<svg xmlns="http://www.w3.org/2000/svg" viewBox="0 0 64 64">
  <rect width="64" height="64" rx="12" fill="white"/>
  <!-- Brain symbol inspired by your logo -->
  <g transform="translate(32,20)">
    <!-- Left brain (organic) -->
    <path d="M-8,0 C-12,0 -15,3 -15,7 C-15,11 -15,15 -12,18 C-10,20 -8,20 -6,18 C-4,16 -4,12 -6,10 C-8,8 -10,8 -12,10" 
          fill="none" stroke="#8b5cf6" stroke-width="1.5" stroke-linecap="round"/>
    <!-- Right brain (circuit) -->
    <g stroke="#8b5cf6" stroke-width="1" fill="none">
      <rect x="2" y="2" width="12" height="16" rx="2"/>
      <line x1="4" y1="6" x2="12" y2="6"/>
      <line x1="4" y1="10" x2="12" y2="10"/>
      <line x1="4" y1="14" x2="12" y2="14"/>
      <circle cx="6" cy="8" r="1" fill="#8b5cf6"/>
      <circle cx="10" cy="12" r="1" fill="#8b5cf6"/>
    </g>
  </g>
  <!-- Stylized "C" -->
  <text x="32" y="52" font-family="Arial, sans-serif" font-size="16" font-weight="bold" text-anchor="middle" fill="#8b5cf6">C</text>
</svg>