<svg xmlns="http://www.w3.org/2000/svg" xmlns:xlink="http://www.w3.org/1999/xlink" width="100" zoomAndPan="magnify" viewBox="0 0 75 74.999997" height="100" preserveAspectRatio="xMidYMid meet" version="1.0"><defs><g/><clipPath id="719605b268"><path d="M 32.222656 21.578125 L 38 21.578125 L 38 32.828125 L 32.222656 32.828125 Z M 32.222656 21.578125 " clip-rule="nonzero"/></clipPath><clipPath id="abeb9e4282"><path d="M 37 21.578125 L 42.722656 21.578125 L 42.722656 32.828125 L 37 32.828125 Z M 37 21.578125 " clip-rule="nonzero"/></clipPath><clipPath id="67f0ec29c5"><path d="M 41 26 L 42.722656 26 L 42.722656 27 L 41 27 Z M 41 26 " clip-rule="nonzero"/></clipPath><clipPath id="26f47f8fda"><path d="M 32.222656 26 L 34 26 L 34 28 L 32.222656 28 Z M 32.222656 26 " clip-rule="nonzero"/></clipPath><clipPath id="e9867416b9"><path d="M 42 26 L 42.722656 26 L 42.722656 27 L 42 27 Z M 42 26 " clip-rule="nonzero"/></clipPath><clipPath id="6aca356576"><path d="M 42 26 L 42.722656 26 L 42.722656 28 L 42 28 Z M 42 26 " clip-rule="nonzero"/></clipPath><clipPath id="d8859db781"><path d="M 42 27 L 42.722656 27 L 42.722656 28 L 42 28 Z M 42 27 " clip-rule="nonzero"/></clipPath><clipPath id="0d277c25d6"><path d="M 42 28 L 42.722656 28 L 42.722656 29 L 42 29 Z M 42 28 " clip-rule="nonzero"/></clipPath><clipPath id="f8fa9a5a98"><path d="M 42 28 L 42.722656 28 L 42.722656 30 L 42 30 Z M 42 28 " clip-rule="nonzero"/></clipPath><clipPath id="9b0ef9327c"><path d="M 38 30 L 42 30 L 42 32.828125 L 38 32.828125 Z M 38 30 " clip-rule="nonzero"/></clipPath><clipPath id="0242ce50a3"><path d="M 38 31 L 39 31 L 39 32.828125 L 38 32.828125 Z M 38 31 " clip-rule="nonzero"/></clipPath><clipPath id="d7d66acc07"><path d="M 39 31 L 40 31 L 40 32.828125 L 39 32.828125 Z M 39 31 " clip-rule="nonzero"/></clipPath><clipPath id="12d9401ac7"><path d="M 39 32 L 40 32 L 40 32.828125 L 39 32.828125 Z M 39 32 " clip-rule="nonzero"/></clipPath><clipPath id="11c33168a4"><path d="M 38 32 L 39 32 L 39 32.828125 L 38 32.828125 Z M 38 32 " clip-rule="nonzero"/></clipPath><clipPath id="6bde9a1d5e"><rect x="0" width="73" y="0" height="23"/></clipPath></defs><g clip-path="url(#719605b268)"><path fill="#020202" d="M 35.796875 21.78125 C 36.058594 21.632812 36.378906 21.585938 36.671875 21.664062 C 36.941406 21.726562 37.164062 21.945312 37.25 22.210938 C 37.339844 22.464844 37.304688 22.742188 37.230469 22.996094 C 37.21875 23.03125 37.230469 23.066406 37.234375 23.105469 C 37.273438 23.339844 37.246094 23.582031 37.199219 23.8125 C 37.171875 23.917969 37.152344 24.023438 37.109375 24.125 C 37.28125 24.355469 37.339844 24.65625 37.308594 24.941406 C 37.285156 25.207031 37.214844 25.464844 37.105469 25.703125 C 37.339844 26.09375 37.347656 26.589844 37.203125 27.015625 C 37.164062 27.097656 37.214844 27.183594 37.21875 27.265625 C 37.285156 27.660156 37.242188 28.078125 37.039062 28.425781 C 37.289062 28.859375 37.34375 29.390625 37.21875 29.871094 C 37.382812 30.25 37.332031 30.691406 37.183594 31.066406 C 37.164062 31.097656 37.1875 31.132812 37.199219 31.167969 C 37.320312 31.457031 37.332031 31.796875 37.214844 32.089844 C 37.101562 32.390625 36.863281 32.648438 36.5625 32.757812 C 36.390625 32.824219 36.199219 32.792969 36.023438 32.746094 C 35.566406 32.628906 35.140625 32.351562 34.886719 31.941406 C 34.601562 31.992188 34.296875 31.96875 34.035156 31.835938 C 33.550781 31.601562 33.199219 31.085938 33.199219 30.535156 C 33.203125 30.511719 33.171875 30.507812 33.15625 30.5 C 32.941406 30.410156 32.761719 30.230469 32.679688 30.007812 C 32.601562 29.792969 32.585938 29.558594 32.628906 29.335938 C 32.425781 29.171875 32.308594 28.921875 32.269531 28.671875 C 32.222656 28.378906 32.265625 28.070312 32.371094 27.792969 C 32.308594 27.601562 32.265625 27.40625 32.261719 27.203125 C 32.246094 26.871094 32.300781 26.527344 32.472656 26.246094 C 32.542969 26.136719 32.628906 26.042969 32.726562 25.957031 C 32.683594 25.621094 32.722656 25.273438 32.832031 24.957031 C 32.945312 24.648438 33.136719 24.351562 33.425781 24.1875 C 33.425781 23.996094 33.472656 23.792969 33.601562 23.644531 C 33.703125 23.519531 33.859375 23.449219 34.015625 23.449219 C 34.042969 23.121094 34.15625 22.796875 34.371094 22.546875 C 34.5 22.394531 34.671875 22.273438 34.867188 22.230469 C 35.027344 22.191406 35.203125 22.222656 35.339844 22.316406 C 35.421875 22.089844 35.585938 21.894531 35.796875 21.78125 Z M 35.839844 21.949219 C 35.652344 22.058594 35.519531 22.25 35.464844 22.460938 C 35.550781 22.582031 35.59375 22.730469 35.578125 22.875 C 35.535156 22.855469 35.511719 22.808594 35.480469 22.769531 C 35.398438 22.648438 35.3125 22.523438 35.179688 22.449219 C 35.09375 22.398438 34.992188 22.390625 34.894531 22.414062 C 34.703125 22.457031 34.550781 22.597656 34.441406 22.757812 C 34.296875 22.96875 34.199219 23.21875 34.199219 23.472656 C 34.332031 23.542969 34.457031 23.628906 34.5625 23.734375 C 34.605469 23.777344 34.644531 23.824219 34.671875 23.882812 C 34.488281 23.820312 34.328125 23.695312 34.148438 23.640625 C 34 23.59375 33.832031 23.644531 33.734375 23.761719 C 33.632812 23.863281 33.59375 24.011719 33.589844 24.152344 C 33.703125 24.167969 33.8125 24.214844 33.898438 24.292969 C 33.992188 24.375 34.078125 24.472656 34.105469 24.601562 C 34.09375 24.597656 34.078125 24.59375 34.070312 24.589844 C 33.949219 24.511719 33.847656 24.398438 33.714844 24.339844 C 33.632812 24.300781 33.53125 24.320312 33.460938 24.371094 C 33.28125 24.492188 33.15625 24.679688 33.0625 24.871094 C 32.917969 25.179688 32.859375 25.535156 32.886719 25.875 C 33.042969 25.816406 33.210938 25.804688 33.378906 25.816406 C 33.328125 25.660156 33.332031 25.492188 33.363281 25.332031 C 33.363281 25.308594 33.378906 25.292969 33.394531 25.28125 C 33.445312 25.46875 33.453125 25.671875 33.550781 25.839844 C 33.730469 25.914062 33.929688 25.984375 34.054688 26.144531 C 34.011719 26.140625 33.96875 26.117188 33.925781 26.101562 C 33.703125 26.003906 33.457031 25.953125 33.207031 25.976562 C 33.058594 25.988281 32.90625 26.042969 32.789062 26.144531 C 32.597656 26.308594 32.492188 26.550781 32.449219 26.792969 C 32.394531 27.117188 32.433594 27.457031 32.546875 27.765625 C 32.605469 27.921875 32.691406 28.074219 32.828125 28.175781 C 32.933594 28.265625 33.0625 28.316406 33.175781 28.386719 C 33.113281 28.421875 33.042969 28.394531 32.980469 28.382812 C 32.769531 28.328125 32.589844 28.179688 32.480469 27.988281 C 32.414062 28.210938 32.394531 28.453125 32.433594 28.679688 C 32.46875 28.886719 32.5625 29.089844 32.734375 29.210938 C 32.894531 29.332031 33.113281 29.34375 33.300781 29.289062 C 33.289062 29.105469 33.414062 28.925781 33.59375 28.886719 C 33.539062 28.996094 33.449219 29.09375 33.441406 29.222656 C 33.425781 29.488281 33.554688 29.742188 33.742188 29.921875 C 33.667969 29.921875 33.601562 29.882812 33.542969 29.835938 C 33.417969 29.730469 33.347656 29.566406 33.3125 29.40625 C 33.148438 29.484375 32.953125 29.472656 32.785156 29.414062 C 32.75 29.628906 32.777344 29.859375 32.886719 30.046875 C 32.996094 30.246094 33.207031 30.371094 33.421875 30.410156 C 33.59375 30.433594 33.777344 30.425781 33.933594 30.347656 C 33.996094 30.316406 34.046875 30.265625 34.109375 30.234375 C 34.085938 30.324219 34.015625 30.390625 33.949219 30.445312 C 33.785156 30.570312 33.5625 30.589844 33.363281 30.554688 C 33.378906 30.898438 33.546875 31.226562 33.792969 31.457031 C 33.992188 31.644531 34.25 31.773438 34.523438 31.785156 C 34.664062 31.792969 34.8125 31.796875 34.941406 31.734375 C 35.035156 31.691406 35.105469 31.601562 35.121094 31.5 C 35.082031 31.398438 35.007812 31.308594 34.992188 31.195312 C 35.066406 31.234375 35.105469 31.3125 35.164062 31.371094 C 35.347656 31.582031 35.5625 31.761719 35.816406 31.878906 C 35.902344 31.921875 36 31.945312 36.085938 31.992188 C 36.019531 32.015625 35.945312 32.003906 35.878906 31.996094 C 35.632812 31.960938 35.410156 31.816406 35.238281 31.640625 C 35.207031 31.738281 35.125 31.804688 35.050781 31.863281 C 35.230469 32.148438 35.511719 32.355469 35.816406 32.488281 C 36.007812 32.5625 36.214844 32.636719 36.421875 32.601562 C 36.617188 32.558594 36.785156 32.421875 36.90625 32.265625 C 37.101562 32.011719 37.171875 31.664062 37.085938 31.355469 C 37.035156 31.160156 36.914062 30.976562 36.734375 30.875 C 36.691406 30.84375 36.636719 30.835938 36.597656 30.796875 C 36.757812 30.761719 36.921875 30.828125 37.039062 30.945312 C 37.144531 30.660156 37.203125 30.347656 37.117188 30.046875 C 37.035156 30.191406 36.898438 30.300781 36.734375 30.324219 C 36.488281 30.363281 36.234375 30.289062 36.027344 30.144531 C 35.96875 30.101562 35.902344 30.0625 35.875 29.992188 C 35.898438 29.992188 35.929688 29.992188 35.957031 30.003906 C 36.140625 30.074219 36.332031 30.136719 36.53125 30.160156 C 36.640625 30.171875 36.761719 30.167969 36.855469 30.101562 C 36.964844 30.027344 37.023438 29.894531 37.058594 29.769531 C 37.164062 29.378906 37.109375 28.949219 36.921875 28.59375 C 36.78125 28.347656 36.582031 28.125 36.335938 27.984375 C 36.125 27.855469 35.886719 27.789062 35.648438 27.726562 C 35.601562 27.710938 35.550781 27.703125 35.511719 27.667969 C 35.621094 27.648438 35.734375 27.65625 35.84375 27.660156 C 35.769531 27.492188 35.71875 27.316406 35.734375 27.132812 C 35.757812 27.148438 35.769531 27.171875 35.777344 27.195312 C 35.84375 27.371094 35.933594 27.539062 36.046875 27.6875 C 36.210938 27.730469 36.371094 27.796875 36.507812 27.894531 C 36.667969 28 36.800781 28.136719 36.921875 28.285156 C 37.082031 27.96875 37.117188 27.597656 37.058594 27.246094 C 36.992188 27.351562 36.917969 27.476562 36.785156 27.492188 C 36.820312 27.410156 36.871094 27.335938 36.910156 27.257812 C 37.09375 26.910156 37.179688 26.492188 37.078125 26.105469 C 37.023438 25.925781 36.945312 25.734375 36.789062 25.628906 C 36.726562 25.582031 36.648438 25.570312 36.574219 25.558594 C 36.691406 25.472656 36.859375 25.496094 36.972656 25.570312 C 37.070312 25.347656 37.125 25.109375 37.144531 24.863281 C 37.167969 24.582031 37.0625 24.289062 36.855469 24.09375 C 36.707031 23.953125 36.5 23.886719 36.296875 23.894531 C 36.332031 23.855469 36.382812 23.839844 36.433594 23.832031 C 36.625 23.796875 36.828125 23.859375 36.976562 23.988281 C 37.066406 23.628906 37.140625 23.242188 37.023438 22.878906 C 36.976562 22.710938 36.867188 22.558594 36.71875 22.472656 C 36.714844 22.433594 36.761719 22.449219 36.785156 22.445312 C 36.933594 22.441406 37.042969 22.566406 37.109375 22.6875 C 37.144531 22.5 37.113281 22.300781 37.015625 22.136719 C 36.921875 21.976562 36.769531 21.859375 36.589844 21.816406 C 36.34375 21.761719 36.066406 21.816406 35.839844 21.949219 Z M 35.839844 21.949219 " fill-opacity="1" fill-rule="nonzero"/></g><g clip-path="url(#abeb9e4282)"><path fill="#020202" d="M 38.046875 21.78125 C 38.246094 21.648438 38.496094 21.59375 38.730469 21.632812 C 39.039062 21.679688 39.316406 21.863281 39.511719 22.109375 C 39.546875 22.148438 39.5625 22.203125 39.605469 22.230469 C 39.839844 22.1875 40.089844 22.214844 40.300781 22.335938 C 40.691406 22.542969 40.914062 23.003906 40.878906 23.449219 C 41.050781 23.453125 41.21875 23.523438 41.332031 23.65625 C 41.457031 23.796875 41.519531 23.992188 41.511719 24.183594 C 41.796875 24.355469 42.011719 24.636719 42.109375 24.957031 C 42.203125 25.273438 42.226562 25.617188 42.152344 25.941406 C 42.371094 26.070312 42.519531 26.292969 42.597656 26.535156 C 42.722656 26.929688 42.710938 27.367188 42.582031 27.761719 C 42.578125 27.789062 42.5625 27.816406 42.574219 27.84375 C 42.679688 28.128906 42.707031 28.445312 42.640625 28.746094 C 42.589844 28.957031 42.476562 29.160156 42.300781 29.292969 C 42.351562 29.570312 42.328125 29.871094 42.191406 30.121094 C 42.101562 30.285156 41.945312 30.40625 41.769531 30.464844 C 41.769531 30.714844 41.710938 30.972656 41.582031 31.191406 C 41.445312 31.433594 41.238281 31.628906 41 31.769531 C 40.707031 31.949219 40.34375 32.027344 40.003906 31.949219 C 39.953125 32.070312 39.867188 32.175781 39.773438 32.261719 C 39.582031 32.445312 39.34375 32.566406 39.101562 32.664062 C 38.871094 32.75 38.621094 32.8125 38.378906 32.742188 C 38.105469 32.667969 37.902344 32.4375 37.78125 32.1875 C 37.65625 31.933594 37.636719 31.640625 37.632812 31.359375 C 37.625 30.910156 37.628906 30.453125 37.628906 30.003906 C 37.632812 29.492188 37.625 28.980469 37.628906 28.46875 C 37.628906 28.097656 37.613281 27.71875 37.675781 27.347656 C 37.699219 27.226562 37.726562 27.105469 37.761719 26.988281 C 37.664062 26.726562 37.628906 26.449219 37.628906 26.167969 C 37.621094 25.832031 37.621094 25.496094 37.625 25.160156 C 37.621094 24.84375 37.632812 24.515625 37.761719 24.222656 C 37.777344 24.195312 37.753906 24.167969 37.746094 24.140625 C 37.6875 24 37.667969 23.84375 37.648438 23.691406 C 37.625 23.472656 37.628906 23.253906 37.625 23.035156 C 37.625 22.800781 37.625 22.5625 37.667969 22.335938 C 37.714844 22.113281 37.855469 21.90625 38.046875 21.78125 Z M 38.632812 22.101562 C 38.613281 22.179688 38.65625 22.265625 38.738281 22.273438 C 38.742188 22.371094 38.738281 22.46875 38.738281 22.566406 C 38.605469 22.699219 38.476562 22.832031 38.339844 22.953125 C 38.339844 23.296875 38.34375 23.636719 38.332031 23.980469 C 38.460938 24.09375 38.585938 24.210938 38.710938 24.332031 C 38.734375 24.351562 38.734375 24.386719 38.734375 24.414062 C 38.738281 24.792969 38.738281 25.167969 38.734375 25.546875 C 38.535156 25.710938 38.367188 25.910156 38.171875 26.078125 C 38.167969 26.226562 38.171875 26.375 38.171875 26.523438 C 38.171875 27.019531 38.167969 27.519531 38.171875 28.015625 C 38.214844 28.070312 38.273438 28.109375 38.320312 28.160156 C 38.359375 28.195312 38.394531 28.242188 38.441406 28.269531 C 38.789062 28.269531 39.140625 28.269531 39.488281 28.269531 C 39.519531 28.269531 39.558594 28.261719 39.582031 28.292969 C 39.753906 28.472656 39.941406 28.636719 40.117188 28.8125 C 40.210938 28.832031 40.3125 28.8125 40.410156 28.824219 C 40.507812 28.910156 40.605469 28.996094 40.6875 29.09375 C 40.785156 29.09375 40.878906 29.089844 40.972656 29.09375 C 41.0625 29.164062 41.140625 29.25 41.222656 29.328125 C 41.210938 29.375 41.199219 29.425781 41.21875 29.46875 C 41.253906 29.550781 41.375 29.574219 41.4375 29.511719 C 41.507812 29.449219 41.472656 29.324219 41.390625 29.289062 C 41.347656 29.261719 41.296875 29.285156 41.261719 29.308594 C 41.171875 29.21875 41.089844 29.125 40.996094 29.046875 C 40.902344 29.039062 40.804688 29.042969 40.710938 29.042969 C 40.617188 28.949219 40.523438 28.855469 40.425781 28.777344 C 40.332031 28.765625 40.234375 28.789062 40.144531 28.765625 C 39.960938 28.597656 39.78125 28.425781 39.605469 28.25 C 39.585938 28.222656 39.550781 28.226562 39.523438 28.222656 C 39.171875 28.226562 38.816406 28.230469 38.460938 28.226562 C 38.375 28.15625 38.300781 28.074219 38.214844 28 C 38.210938 27.367188 38.21875 26.734375 38.214844 26.105469 C 38.414062 25.933594 38.585938 25.734375 38.785156 25.558594 C 38.777344 25.152344 38.785156 24.742188 38.777344 24.335938 C 38.652344 24.203125 38.511719 24.085938 38.382812 23.960938 C 38.382812 23.636719 38.382812 23.3125 38.386719 22.988281 C 38.417969 22.941406 38.460938 22.90625 38.5 22.871094 C 38.585938 22.789062 38.660156 22.699219 38.75 22.621094 C 38.761719 22.605469 38.789062 22.589844 38.785156 22.566406 C 38.785156 22.46875 38.789062 22.375 38.789062 22.277344 C 38.816406 22.265625 38.851562 22.261719 38.875 22.242188 C 38.929688 22.179688 38.917969 22.0625 38.84375 22.023438 C 38.769531 21.976562 38.65625 22.015625 38.632812 22.101562 Z M 38.265625 22.203125 C 38.175781 22.261719 38.207031 22.429688 38.320312 22.4375 C 38.316406 22.535156 38.324219 22.636719 38.3125 22.734375 C 38.265625 22.785156 38.210938 22.835938 38.160156 22.886719 C 38.164062 23.269531 38.15625 23.648438 38.164062 24.03125 C 38.296875 24.164062 38.429688 24.289062 38.566406 24.417969 C 38.570312 24.792969 38.566406 25.167969 38.570312 25.546875 C 38.578125 25.546875 38.597656 25.542969 38.609375 25.542969 C 38.621094 25.390625 38.601562 25.234375 38.613281 25.078125 C 38.609375 24.855469 38.613281 24.625 38.613281 24.402344 C 38.480469 24.269531 38.335938 24.144531 38.207031 24.007812 C 38.203125 23.648438 38.207031 23.285156 38.207031 22.921875 C 38.246094 22.847656 38.339844 22.808594 38.367188 22.722656 C 38.367188 22.632812 38.363281 22.542969 38.367188 22.453125 C 38.429688 22.433594 38.496094 22.386719 38.492188 22.308594 C 38.5 22.191406 38.347656 22.132812 38.265625 22.203125 Z M 39.050781 22.207031 C 38.949219 22.246094 38.945312 22.402344 39.035156 22.453125 C 39.117188 22.5 39.246094 22.441406 39.253906 22.339844 C 39.261719 22.238281 39.136719 22.160156 39.050781 22.207031 Z M 37.804688 22.359375 C 37.738281 22.425781 37.765625 22.542969 37.84375 22.589844 C 37.851562 23.109375 37.84375 23.628906 37.84375 24.152344 C 37.84375 24.175781 37.867188 24.1875 37.878906 24.203125 C 37.996094 24.304688 38.101562 24.421875 38.214844 24.527344 C 38.234375 24.550781 38.269531 24.574219 38.261719 24.609375 C 38.261719 24.921875 38.265625 25.234375 38.265625 25.546875 C 38.125 25.675781 37.992188 25.816406 37.847656 25.945312 C 37.847656 26.675781 37.84375 27.40625 37.847656 28.136719 C 37.933594 28.230469 38.03125 28.316406 38.117188 28.410156 C 38.011719 28.511719 37.910156 28.617188 37.796875 28.710938 C 37.792969 28.914062 37.792969 29.121094 37.792969 29.320312 C 37.867188 29.371094 37.921875 29.4375 37.984375 29.5 C 38.085938 29.605469 38.191406 29.703125 38.292969 29.808594 C 38.300781 29.949219 38.296875 30.09375 38.296875 30.234375 C 38.292969 30.261719 38.304688 30.296875 38.285156 30.316406 C 38.230469 30.371094 38.179688 30.417969 38.117188 30.464844 C 38.105469 30.921875 38.117188 31.378906 38.113281 31.835938 C 38.046875 31.871094 37.980469 31.941406 38.011719 32.027344 C 38.046875 32.136719 38.222656 32.144531 38.269531 32.039062 C 38.292969 31.996094 38.285156 31.941406 38.257812 31.894531 C 38.269531 31.894531 38.292969 31.890625 38.300781 31.890625 C 38.304688 31.527344 38.300781 31.160156 38.300781 30.792969 C 38.351562 30.734375 38.417969 30.695312 38.464844 30.632812 C 38.472656 30.496094 38.464844 30.351562 38.46875 30.210938 C 38.511719 30.171875 38.554688 30.136719 38.597656 30.097656 C 38.613281 30.082031 38.632812 30.070312 38.628906 30.046875 C 38.621094 29.976562 38.625 29.90625 38.621094 29.835938 C 38.449219 29.691406 38.300781 29.53125 38.136719 29.378906 C 38.09375 29.332031 38.035156 29.292969 38 29.238281 C 37.996094 29.132812 38 29.019531 37.996094 28.910156 C 37.988281 28.847656 38.050781 28.816406 38.085938 28.773438 C 38.53125 28.777344 38.976562 28.777344 39.417969 28.769531 C 39.808594 29.144531 40.191406 29.535156 40.578125 29.910156 C 40.746094 30.085938 40.917969 30.253906 41.085938 30.429688 C 41.152344 30.433594 41.222656 30.4375 41.289062 30.4375 C 41.300781 30.484375 41.3125 30.539062 41.359375 30.566406 C 41.425781 30.597656 41.519531 30.574219 41.554688 30.503906 C 41.601562 30.417969 41.539062 30.300781 41.441406 30.300781 C 41.378906 30.285156 41.328125 30.332031 41.296875 30.382812 C 41.234375 30.382812 41.167969 30.386719 41.105469 30.382812 C 41.023438 30.28125 40.917969 30.199219 40.832031 30.105469 C 40.726562 29.988281 40.609375 29.875 40.5 29.765625 C 40.242188 29.511719 39.988281 29.261719 39.730469 29.011719 C 39.632812 28.917969 39.539062 28.816406 39.433594 28.726562 C 39.121094 28.726562 38.804688 28.726562 38.492188 28.730469 C 38.355469 28.730469 38.21875 28.734375 38.082031 28.722656 C 38.03125 28.757812 37.988281 28.800781 37.949219 28.851562 C 37.945312 28.976562 37.949219 29.101562 37.945312 29.222656 C 37.9375 29.277344 37.988281 29.300781 38.019531 29.332031 C 38.195312 29.5 38.363281 29.667969 38.539062 29.832031 C 38.554688 29.847656 38.574219 29.863281 38.570312 29.886719 C 38.574219 29.941406 38.574219 30 38.566406 30.050781 C 38.53125 30.113281 38.441406 30.132812 38.417969 30.199219 C 38.410156 30.339844 38.421875 30.472656 38.414062 30.609375 C 38.367188 30.667969 38.304688 30.710938 38.253906 30.761719 C 38.253906 31.136719 38.253906 31.507812 38.253906 31.882812 C 38.222656 31.867188 38.1875 31.851562 38.152344 31.839844 C 38.152344 31.390625 38.152344 30.941406 38.15625 30.488281 C 38.214844 30.429688 38.289062 30.386719 38.339844 30.320312 C 38.34375 30.140625 38.335938 29.960938 38.339844 29.78125 C 38.15625 29.632812 38.003906 29.453125 37.832031 29.292969 C 37.832031 29.105469 37.832031 28.921875 37.835938 28.738281 C 37.941406 28.640625 38.050781 28.539062 38.148438 28.4375 C 38.210938 28.488281 38.257812 28.550781 38.324219 28.601562 C 38.703125 28.601562 39.082031 28.601562 39.464844 28.597656 C 39.511719 28.644531 39.554688 28.695312 39.601562 28.742188 C 40.019531 29.144531 40.429688 29.546875 40.84375 29.953125 C 40.875 29.988281 40.921875 29.976562 40.960938 29.976562 C 41.136719 29.972656 41.308594 29.980469 41.484375 29.980469 C 41.476562 29.96875 41.464844 29.945312 41.457031 29.933594 C 41.277344 29.929688 41.09375 29.933594 40.914062 29.933594 C 40.886719 29.9375 40.871094 29.910156 40.851562 29.894531 C 40.640625 29.6875 40.425781 29.484375 40.214844 29.273438 C 40 29.0625 39.78125 28.855469 39.566406 28.644531 C 39.535156 28.613281 39.511719 28.574219 39.472656 28.558594 C 39.09375 28.558594 38.710938 28.566406 38.335938 28.554688 C 38.1875 28.414062 38.039062 28.273438 37.894531 28.128906 C 37.882812 27.417969 37.894531 26.703125 37.890625 25.992188 C 37.898438 25.976562 37.910156 25.960938 37.925781 25.949219 C 38.054688 25.824219 38.183594 25.699219 38.308594 25.570312 C 38.320312 25.359375 38.308594 25.144531 38.3125 24.929688 C 38.308594 24.804688 38.324219 24.675781 38.304688 24.550781 C 38.195312 24.453125 38.097656 24.34375 37.988281 24.242188 C 37.953125 24.203125 37.886719 24.171875 37.890625 24.109375 C 37.898438 23.609375 37.886719 23.105469 37.898438 22.605469 C 37.976562 22.609375 38.058594 22.542969 38.046875 22.457031 C 38.046875 22.332031 37.878906 22.269531 37.804688 22.359375 Z M 37.996094 22.832031 C 37.996094 23.253906 38.003906 23.675781 37.996094 24.09375 C 38.140625 24.21875 38.265625 24.359375 38.410156 24.484375 C 38.410156 24.867188 38.414062 25.25 38.410156 25.632812 C 38.269531 25.757812 38.136719 25.890625 38.003906 26.023438 C 37.996094 26.648438 38.003906 27.273438 38.003906 27.894531 C 38.003906 27.957031 37.992188 28.019531 38.003906 28.078125 C 38.125 28.191406 38.25 28.300781 38.367188 28.421875 L 38.378906 28.425781 C 38.753906 28.425781 39.128906 28.429688 39.503906 28.421875 C 39.574219 28.480469 39.632812 28.554688 39.703125 28.617188 C 40.113281 29.011719 40.523438 29.410156 40.933594 29.804688 C 41.113281 29.8125 41.292969 29.804688 41.476562 29.808594 C 41.527344 29.84375 41.566406 29.894531 41.613281 29.933594 C 41.605469 30.015625 41.605469 30.097656 41.609375 30.175781 C 41.617188 30.175781 41.636719 30.167969 41.644531 30.167969 C 41.664062 30.085938 41.648438 30 41.660156 29.917969 C 41.613281 29.863281 41.554688 29.820312 41.503906 29.765625 C 41.363281 29.761719 41.222656 29.769531 41.082031 29.765625 C 41.027344 29.757812 40.960938 29.78125 40.921875 29.730469 C 40.703125 29.519531 40.480469 29.308594 40.265625 29.09375 C 40.019531 28.851562 39.761719 28.621094 39.523438 28.375 C 39.386719 28.382812 39.25 28.378906 39.113281 28.382812 C 38.871094 28.382812 38.632812 28.382812 38.394531 28.378906 C 38.277344 28.28125 38.171875 28.164062 38.058594 28.0625 C 38.042969 27.957031 38.054688 27.847656 38.050781 27.738281 C 38.046875 27.199219 38.046875 26.660156 38.046875 26.117188 C 38.050781 26.085938 38.042969 26.042969 38.070312 26.019531 C 38.195312 25.894531 38.332031 25.773438 38.457031 25.644531 C 38.457031 25.273438 38.453125 24.902344 38.453125 24.53125 C 38.449219 24.503906 38.460938 24.46875 38.4375 24.449219 C 38.304688 24.328125 38.179688 24.199219 38.050781 24.074219 C 38.035156 23.796875 38.046875 23.519531 38.042969 23.242188 C 38.042969 23.109375 38.035156 22.976562 38.046875 22.84375 C 38.105469 22.773438 38.179688 22.71875 38.230469 22.644531 C 38.253906 22.617188 38.234375 22.585938 38.222656 22.558594 C 38.179688 22.679688 38.070312 22.742188 37.996094 22.832031 Z M 39.65625 22.761719 C 39.660156 22.800781 39.695312 22.828125 39.722656 22.855469 C 39.722656 22.898438 39.722656 22.9375 39.722656 22.980469 C 39.574219 23.105469 39.441406 23.253906 39.300781 23.390625 C 39.167969 23.519531 39.046875 23.65625 38.90625 23.773438 C 38.855469 23.730469 38.808594 23.679688 38.761719 23.628906 C 38.8125 23.566406 38.871094 23.515625 38.925781 23.460938 C 39.015625 23.371094 39.101562 23.273438 39.199219 23.191406 C 39.199219 23.144531 39.199219 23.09375 39.203125 23.046875 C 39.222656 23.023438 39.257812 23.019531 39.28125 23 C 39.347656 22.945312 39.335938 22.828125 39.265625 22.78125 C 39.195312 22.734375 39.089844 22.761719 39.054688 22.839844 C 39.015625 22.921875 39.066406 23.023438 39.15625 23.035156 C 39.15625 23.082031 39.164062 23.125 39.152344 23.167969 C 39.019531 23.300781 38.890625 23.433594 38.753906 23.566406 C 38.722656 23.589844 38.710938 23.644531 38.742188 23.675781 C 38.792969 23.734375 38.855469 23.789062 38.910156 23.84375 C 39.078125 23.6875 39.238281 23.519531 39.402344 23.355469 C 39.523438 23.238281 39.636719 23.109375 39.773438 23.007812 C 39.769531 22.960938 39.769531 22.917969 39.769531 22.871094 C 39.816406 22.867188 39.871094 22.859375 39.902344 22.816406 C 39.964844 22.742188 39.921875 22.613281 39.828125 22.597656 C 39.730469 22.5625 39.632812 22.664062 39.65625 22.761719 Z M 40.105469 22.828125 C 40.066406 22.90625 40.109375 23.011719 40.195312 23.027344 C 40.195312 23.09375 40.207031 23.160156 40.191406 23.226562 C 40.128906 23.296875 40.0625 23.351562 40 23.421875 C 39.980469 23.4375 39.964844 23.46875 39.9375 23.464844 C 39.785156 23.464844 39.636719 23.464844 39.488281 23.460938 C 39.460938 23.464844 39.429688 23.457031 39.410156 23.484375 C 39.238281 23.660156 39.058594 23.832031 38.882812 24.007812 C 38.816406 23.933594 38.734375 23.875 38.667969 23.800781 C 38.660156 23.597656 38.660156 23.394531 38.667969 23.1875 C 38.726562 23.175781 38.785156 23.140625 38.792969 23.074219 C 38.8125 22.988281 38.734375 22.90625 38.648438 22.914062 C 38.558594 22.921875 38.488281 23.027344 38.527344 23.113281 C 38.539062 23.15625 38.597656 23.160156 38.617188 23.199219 C 38.625 23.40625 38.617188 23.617188 38.625 23.832031 C 38.714844 23.902344 38.792969 23.996094 38.886719 24.0625 C 39.066406 23.894531 39.242188 23.71875 39.421875 23.542969 C 39.4375 23.53125 39.453125 23.507812 39.472656 23.511719 C 39.644531 23.503906 39.816406 23.511719 39.984375 23.515625 C 40.0625 23.421875 40.148438 23.339844 40.238281 23.257812 C 40.253906 23.183594 40.238281 23.105469 40.246094 23.03125 C 40.332031 23.023438 40.402344 22.941406 40.378906 22.855469 C 40.347656 22.734375 40.152344 22.710938 40.105469 22.828125 Z M 40.390625 23.484375 C 40.367188 23.523438 40.367188 23.566406 40.378906 23.613281 C 40.078125 23.617188 39.78125 23.625 39.484375 23.617188 C 39.480469 23.707031 39.480469 23.796875 39.480469 23.886719 C 39.378906 23.988281 39.269531 24.089844 39.164062 24.191406 C 39.082031 24.269531 39.011719 24.355469 38.914062 24.417969 C 38.914062 24.769531 38.914062 25.121094 38.910156 25.476562 C 38.910156 25.515625 38.917969 25.554688 38.90625 25.59375 C 38.722656 25.761719 38.554688 25.945312 38.371094 26.105469 C 38.371094 26.722656 38.371094 27.332031 38.371094 27.949219 C 38.796875 27.949219 39.230469 27.945312 39.660156 27.949219 C 39.757812 28.03125 39.847656 28.121094 39.941406 28.210938 C 40.046875 28.234375 40.160156 28.207031 40.273438 28.21875 C 40.359375 28.289062 40.425781 28.386719 40.519531 28.445312 C 40.667969 28.445312 40.8125 28.4375 40.957031 28.449219 C 41.050781 28.539062 41.152344 28.628906 41.242188 28.722656 C 41.421875 28.734375 41.601562 28.71875 41.777344 28.726562 C 41.777344 28.714844 41.78125 28.691406 41.78125 28.679688 C 41.617188 28.675781 41.453125 28.683594 41.292969 28.675781 C 41.273438 28.679688 41.257812 28.671875 41.246094 28.65625 C 41.160156 28.570312 41.070312 28.484375 40.980469 28.398438 C 40.832031 28.386719 40.675781 28.394531 40.527344 28.394531 C 40.441406 28.332031 40.375 28.242188 40.292969 28.175781 C 40.1875 28.160156 40.082031 28.179688 39.976562 28.171875 C 39.917969 28.132812 39.875 28.074219 39.820312 28.03125 C 39.769531 27.988281 39.734375 27.929688 39.675781 27.898438 C 39.257812 27.90625 38.839844 27.902344 38.421875 27.90625 C 38.414062 27.820312 38.417969 27.734375 38.417969 27.652344 C 38.417969 27.15625 38.417969 26.65625 38.417969 26.160156 C 38.414062 26.121094 38.449219 26.101562 38.46875 26.078125 C 38.601562 25.953125 38.730469 25.832031 38.855469 25.703125 C 38.890625 25.667969 38.9375 25.640625 38.957031 25.597656 C 38.957031 25.292969 38.960938 24.988281 38.957031 24.679688 C 39.089844 24.5625 39.210938 24.4375 39.335938 24.3125 C 39.570312 24.320312 39.804688 24.304688 40.039062 24.308594 C 40.101562 24.304688 40.167969 24.3125 40.230469 24.296875 C 40.265625 24.273438 40.300781 24.246094 40.316406 24.207031 C 40.246094 24.207031 40.195312 24.269531 40.125 24.265625 C 39.855469 24.269531 39.582031 24.261719 39.3125 24.269531 C 39.191406 24.386719 39.082031 24.511719 38.957031 24.613281 C 38.957031 24.5625 38.949219 24.507812 38.960938 24.457031 C 39.148438 24.277344 39.328125 24.09375 39.519531 23.921875 C 39.699219 23.914062 39.882812 23.921875 40.0625 23.917969 C 40.082031 24.027344 40.230469 24.070312 40.308594 23.992188 C 40.386719 23.925781 40.339844 23.785156 40.242188 23.769531 C 40.167969 23.746094 40.089844 23.796875 40.066406 23.871094 C 39.886719 23.871094 39.707031 23.871094 39.53125 23.875 C 39.53125 23.808594 39.53125 23.738281 39.527344 23.671875 C 39.800781 23.667969 40.074219 23.664062 40.351562 23.664062 C 40.414062 23.660156 40.46875 23.710938 40.53125 23.695312 C 40.628906 23.6875 40.6875 23.566406 40.628906 23.488281 C 40.582031 23.398438 40.4375 23.398438 40.390625 23.484375 Z M 40.953125 23.988281 C 40.882812 23.984375 40.808594 23.984375 40.742188 23.984375 C 40.71875 23.984375 40.6875 23.976562 40.671875 23.996094 C 40.53125 24.136719 40.394531 24.277344 40.25 24.417969 C 39.964844 24.429688 39.675781 24.421875 39.386719 24.425781 C 39.28125 24.527344 39.183594 24.632812 39.070312 24.726562 C 39.070312 24.792969 39.070312 24.859375 39.074219 24.925781 C 39.082031 24.925781 39.101562 24.917969 39.109375 24.917969 C 39.113281 24.859375 39.109375 24.804688 39.113281 24.746094 C 39.21875 24.664062 39.304688 24.554688 39.40625 24.472656 C 39.691406 24.464844 39.976562 24.464844 40.257812 24.46875 C 40.28125 24.460938 40.289062 24.4375 40.308594 24.425781 C 40.4375 24.292969 40.578125 24.164062 40.703125 24.023438 C 40.789062 24.023438 40.871094 24.027344 40.953125 24.03125 C 40.96875 24.066406 40.976562 24.113281 41.015625 24.125 C 41.097656 24.164062 41.199219 24.121094 41.230469 24.039062 C 41.257812 23.9375 41.148438 23.832031 41.046875 23.871094 C 40.996094 23.886719 40.972656 23.945312 40.953125 23.988281 Z M 40.664062 24.234375 C 40.585938 24.304688 40.511719 24.390625 40.429688 24.464844 C 40.382812 24.503906 40.347656 24.558594 40.292969 24.589844 C 40.015625 24.589844 39.738281 24.589844 39.460938 24.59375 C 39.378906 24.679688 39.292969 24.761719 39.203125 24.835938 C 39.203125 24.882812 39.203125 24.925781 39.199219 24.96875 C 39.15625 25.003906 39.113281 25.039062 39.0625 25.066406 C 39.0625 25.234375 39.0625 25.398438 39.0625 25.566406 C 39.0625 25.605469 39.074219 25.652344 39.039062 25.683594 C 38.867188 25.851562 38.699219 26.019531 38.519531 26.175781 C 38.515625 26.628906 38.527344 27.082031 38.515625 27.535156 C 38.507812 27.59375 38.566406 27.617188 38.59375 27.65625 C 38.636719 27.691406 38.667969 27.757812 38.734375 27.753906 C 39.050781 27.75 39.371094 27.753906 39.6875 27.75 C 39.785156 27.855469 39.898438 27.945312 39.992188 28.054688 C 40.5 28.058594 41.003906 28.054688 41.511719 28.058594 C 41.550781 28.101562 41.589844 28.144531 41.636719 28.175781 C 41.738281 28.171875 41.84375 28.171875 41.949219 28.171875 C 41.96875 28.242188 42.035156 28.304688 42.113281 28.289062 C 42.222656 28.28125 42.269531 28.125 42.1875 28.054688 C 42.113281 27.980469 41.960938 28.015625 41.953125 28.125 C 41.847656 28.128906 41.742188 28.132812 41.636719 28.125 C 41.601562 28.09375 41.570312 28.054688 41.535156 28.019531 C 41.601562 27.957031 41.664062 27.886719 41.726562 27.820312 C 41.757812 27.796875 41.777344 27.765625 41.796875 27.730469 C 41.898438 27.730469 42.003906 27.734375 42.109375 27.730469 C 42.121094 27.761719 42.125 27.796875 42.148438 27.824219 C 42.203125 27.882812 42.308594 27.882812 42.363281 27.824219 C 42.421875 27.75 42.382812 27.617188 42.292969 27.59375 C 42.21875 27.570312 42.140625 27.617188 42.121094 27.6875 C 42.003906 27.6875 41.886719 27.683594 41.769531 27.6875 C 41.734375 27.710938 41.722656 27.757812 41.691406 27.785156 C 41.621094 27.851562 41.558594 27.929688 41.488281 28.003906 C 41.457031 28.011719 41.425781 28.007812 41.390625 28.011719 C 40.933594 28.011719 40.476562 28.007812 40.019531 28.011719 C 39.917969 27.90625 39.808594 27.808594 39.710938 27.699219 C 39.378906 27.707031 39.046875 27.699219 38.714844 27.707031 C 38.667969 27.65625 38.617188 27.605469 38.566406 27.5625 C 38.566406 27.265625 38.566406 26.972656 38.566406 26.679688 C 38.566406 26.527344 38.554688 26.378906 38.566406 26.226562 C 38.566406 26.191406 38.601562 26.171875 38.621094 26.148438 C 38.773438 26.015625 38.914062 25.867188 39.066406 25.730469 C 39.082031 25.710938 39.105469 25.695312 39.105469 25.667969 C 39.105469 25.480469 39.101562 25.296875 39.105469 25.113281 C 39.144531 25.074219 39.195312 25.050781 39.238281 25.015625 C 39.242188 24.964844 39.242188 24.917969 39.242188 24.867188 C 39.324219 24.796875 39.40625 24.714844 39.492188 24.640625 C 39.769531 24.636719 40.046875 24.632812 40.324219 24.636719 C 40.441406 24.515625 40.5625 24.402344 40.679688 24.28125 C 40.796875 24.269531 40.914062 24.28125 41.027344 24.265625 C 41.046875 24.261719 41.058594 24.246094 41.054688 24.226562 C 40.925781 24.234375 40.792969 24.222656 40.664062 24.234375 Z M 41.175781 24.347656 C 41.160156 24.367188 41.152344 24.40625 41.121094 24.402344 C 40.984375 24.40625 40.847656 24.402344 40.714844 24.402344 C 40.609375 24.507812 40.503906 24.609375 40.402344 24.714844 C 40.382812 24.734375 40.359375 24.761719 40.328125 24.757812 C 40.097656 24.761719 39.863281 24.761719 39.625 24.761719 C 39.585938 24.753906 39.5625 24.789062 39.539062 24.8125 C 39.460938 24.898438 39.378906 24.976562 39.292969 25.054688 C 39.261719 25.082031 39.226562 25.117188 39.226562 25.164062 C 39.21875 25.351562 39.234375 25.542969 39.21875 25.730469 C 39.175781 25.785156 39.117188 25.832031 39.066406 25.886719 C 38.9375 26.007812 38.8125 26.136719 38.671875 26.253906 C 38.671875 26.660156 38.671875 27.070312 38.667969 27.480469 C 38.664062 27.53125 38.707031 27.570312 38.75 27.585938 C 39.074219 27.585938 39.398438 27.585938 39.726562 27.582031 C 39.746094 27.582031 39.761719 27.589844 39.777344 27.605469 C 39.863281 27.695312 39.953125 27.785156 40.042969 27.875 C 40.054688 27.886719 40.070312 27.894531 40.085938 27.890625 C 40.511719 27.886719 40.933594 27.890625 41.355469 27.886719 C 41.464844 27.789062 41.554688 27.667969 41.671875 27.574219 C 41.804688 27.570312 41.9375 27.574219 42.070312 27.570312 C 42.078125 27.511719 42.09375 27.453125 42.089844 27.390625 C 41.917969 27.378906 41.738281 27.378906 41.566406 27.378906 C 41.453125 27.46875 41.367188 27.59375 41.253906 27.675781 C 40.910156 27.679688 40.566406 27.683594 40.222656 27.683594 C 40.195312 27.679688 40.160156 27.691406 40.140625 27.671875 C 40.035156 27.578125 39.945312 27.472656 39.839844 27.378906 C 39.738281 27.363281 39.632812 27.375 39.527344 27.371094 C 39.527344 27.152344 39.523438 26.933594 39.527344 26.714844 C 39.835938 26.714844 40.148438 26.710938 40.457031 26.722656 C 40.527344 26.773438 40.585938 26.847656 40.660156 26.898438 C 40.773438 26.902344 40.890625 26.898438 41.007812 26.902344 C 41.023438 26.945312 41.039062 26.992188 41.082031 27.011719 C 41.15625 27.0625 41.269531 27.011719 41.289062 26.921875 C 41.308594 26.828125 41.210938 26.734375 41.117188 26.757812 C 41.066406 26.761719 41.035156 26.816406 41.007812 26.855469 C 40.894531 26.855469 40.785156 26.855469 40.671875 26.851562 C 40.601562 26.796875 40.546875 26.726562 40.472656 26.671875 C 40.164062 26.664062 39.851562 26.675781 39.542969 26.667969 L 39.53125 26.65625 C 39.53125 26.574219 39.527344 26.488281 39.53125 26.410156 C 39.566406 26.355469 39.617188 26.3125 39.664062 26.261719 C 39.6875 26.242188 39.707031 26.207031 39.746094 26.210938 C 39.953125 26.210938 40.15625 26.207031 40.363281 26.210938 C 40.472656 26.101562 40.589844 25.996094 40.699219 25.886719 C 40.757812 25.828125 40.8125 25.765625 40.878906 25.722656 C 41 25.820312 41.109375 25.929688 41.226562 26.035156 C 41.246094 26.070312 41.226562 26.125 41.261719 26.160156 C 41.320312 26.234375 41.441406 26.222656 41.496094 26.148438 C 41.605469 26.15625 41.714844 26.148438 41.820312 26.152344 C 41.800781 26.246094 41.882812 26.339844 41.976562 26.320312 C 42.074219 26.316406 42.125 26.191406 42.070312 26.113281 C 42.015625 26.027344 41.875 26.023438 41.828125 26.117188 C 41.722656 26.105469 41.617188 26.113281 41.511719 26.109375 C 41.515625 26.039062 41.480469 25.953125 41.402344 25.941406 C 41.347656 25.921875 41.289062 25.949219 41.25 25.992188 C 41.144531 25.90625 41.050781 25.800781 40.945312 25.710938 C 40.914062 25.679688 40.859375 25.671875 40.824219 25.699219 C 40.664062 25.851562 40.511719 26.011719 40.347656 26.164062 C 40.132812 26.171875 39.917969 26.160156 39.707031 26.167969 C 39.648438 26.207031 39.605469 26.265625 39.554688 26.308594 C 39.527344 26.339844 39.480469 26.367188 39.488281 26.417969 C 39.492188 26.753906 39.488281 27.085938 39.492188 27.417969 C 39.59375 27.417969 39.695312 27.417969 39.796875 27.417969 C 39.824219 27.414062 39.839844 27.441406 39.859375 27.457031 C 39.933594 27.535156 40.015625 27.601562 40.085938 27.679688 C 40.105469 27.699219 40.125 27.730469 40.160156 27.726562 C 40.390625 27.726562 40.621094 27.726562 40.847656 27.726562 C 40.988281 27.730469 41.125 27.71875 41.261719 27.726562 C 41.289062 27.730469 41.308594 27.703125 41.328125 27.6875 C 41.414062 27.597656 41.5 27.511719 41.589844 27.421875 C 41.738281 27.421875 41.894531 27.421875 42.046875 27.429688 C 42.046875 27.460938 42.046875 27.492188 42.046875 27.523438 C 41.914062 27.523438 41.785156 27.523438 41.652344 27.523438 C 41.566406 27.613281 41.476562 27.699219 41.394531 27.792969 C 41.371094 27.816406 41.347656 27.847656 41.3125 27.84375 C 40.949219 27.84375 40.582031 27.839844 40.214844 27.84375 C 40.171875 27.84375 40.128906 27.847656 40.085938 27.835938 C 40.003906 27.765625 39.933594 27.691406 39.859375 27.617188 C 39.824219 27.585938 39.800781 27.53125 39.75 27.539062 C 39.429688 27.539062 39.109375 27.542969 38.789062 27.539062 C 38.753906 27.542969 38.714844 27.519531 38.726562 27.480469 C 38.726562 27.09375 38.726562 26.703125 38.726562 26.316406 C 38.71875 26.289062 38.742188 26.269531 38.757812 26.25 C 38.910156 26.109375 39.0625 25.964844 39.207031 25.816406 C 39.230469 25.789062 39.277344 25.765625 39.273438 25.722656 C 39.277344 25.542969 39.277344 25.363281 39.277344 25.183594 C 39.273438 25.144531 39.304688 25.121094 39.324219 25.101562 C 39.421875 25.007812 39.515625 24.910156 39.609375 24.8125 C 39.863281 24.800781 40.113281 24.808594 40.367188 24.804688 C 40.429688 24.769531 40.472656 24.707031 40.523438 24.664062 C 40.597656 24.597656 40.660156 24.519531 40.730469 24.453125 C 40.875 24.445312 41.015625 24.449219 41.15625 24.445312 C 41.183594 24.53125 41.292969 24.578125 41.371094 24.527344 C 41.441406 24.488281 41.449219 24.386719 41.398438 24.328125 C 41.339844 24.257812 41.214844 24.269531 41.175781 24.347656 Z M 37.898438 24.613281 C 37.820312 24.691406 37.882812 24.839844 37.992188 24.84375 C 37.996094 25.058594 37.992188 25.277344 37.996094 25.496094 C 37.992188 25.519531 38 25.546875 37.984375 25.566406 C 37.910156 25.648438 37.824219 25.71875 37.753906 25.804688 C 37.742188 25.824219 37.734375 25.839844 37.738281 25.863281 C 37.761719 25.851562 37.78125 25.84375 37.792969 25.828125 C 37.863281 25.757812 37.929688 25.6875 38 25.617188 C 38.019531 25.597656 38.046875 25.578125 38.042969 25.550781 C 38.042969 25.3125 38.039062 25.082031 38.039062 24.84375 C 38.097656 24.828125 38.152344 24.78125 38.144531 24.710938 C 38.144531 24.589844 37.972656 24.511719 37.898438 24.613281 Z M 40.4375 24.90625 C 40.417969 24.925781 40.386719 24.921875 40.363281 24.921875 C 40.136719 24.925781 39.910156 24.925781 39.679688 24.929688 C 39.660156 24.925781 39.644531 24.945312 39.628906 24.957031 C 39.558594 25.03125 39.484375 25.101562 39.40625 25.167969 C 39.386719 25.183594 39.382812 25.207031 39.382812 25.230469 C 39.375 25.417969 39.398438 25.609375 39.375 25.796875 C 39.273438 25.894531 39.167969 25.992188 39.074219 26.101562 C 39.085938 26.105469 39.101562 26.113281 39.113281 26.121094 C 39.21875 26.011719 39.332031 25.914062 39.429688 25.800781 C 39.4375 25.605469 39.421875 25.410156 39.433594 25.21875 C 39.515625 25.136719 39.597656 25.054688 39.683594 24.976562 C 39.9375 24.957031 40.195312 24.980469 40.453125 24.957031 C 40.523438 24.890625 40.589844 24.820312 40.664062 24.753906 C 40.679688 24.738281 40.699219 24.714844 40.722656 24.71875 C 40.785156 24.722656 40.847656 24.710938 40.90625 24.730469 C 41 24.824219 41.09375 24.914062 41.195312 24.996094 C 41.222656 25.03125 41.238281 25.074219 41.269531 25.105469 C 40.757812 25.105469 40.242188 25.105469 39.734375 25.105469 C 39.667969 25.15625 39.613281 25.214844 39.550781 25.269531 C 39.554688 25.445312 39.550781 25.617188 39.554688 25.792969 C 39.550781 25.816406 39.5625 25.84375 39.542969 25.859375 C 39.40625 25.984375 39.285156 26.113281 39.15625 26.246094 C 39.105469 26.203125 39.03125 26.160156 38.964844 26.199219 C 38.859375 26.242188 38.878906 26.429688 38.992188 26.445312 C 39.074219 26.449219 39.15625 26.4375 39.238281 26.441406 C 39.375 26.289062 39.535156 26.160156 39.671875 26.011719 C 39.703125 25.972656 39.765625 25.949219 39.761719 25.894531 C 39.765625 25.703125 39.761719 25.511719 39.765625 25.324219 C 40.371094 25.320312 40.976562 25.3125 41.582031 25.3125 C 41.609375 25.3125 41.636719 25.304688 41.664062 25.320312 C 41.683594 25.347656 41.695312 25.378906 41.726562 25.398438 C 41.800781 25.449219 41.929688 25.398438 41.933594 25.300781 C 41.945312 25.21875 41.871094 25.140625 41.789062 25.148438 C 41.722656 25.144531 41.671875 25.203125 41.664062 25.265625 C 41.066406 25.273438 40.464844 25.273438 39.867188 25.273438 C 39.816406 25.277344 39.753906 25.261719 39.722656 25.308594 C 39.710938 25.507812 39.726562 25.710938 39.714844 25.910156 C 39.550781 26.070312 39.386719 26.230469 39.222656 26.390625 C 39.191406 26.40625 39.152344 26.394531 39.117188 26.390625 C 39.140625 26.347656 39.164062 26.300781 39.203125 26.265625 C 39.316406 26.148438 39.429688 26.027344 39.546875 25.917969 C 39.5625 25.898438 39.589844 25.886719 39.597656 25.859375 C 39.601562 25.671875 39.589844 25.480469 39.601562 25.292969 C 39.648438 25.242188 39.699219 25.195312 39.753906 25.152344 C 40.226562 25.148438 40.699219 25.152344 41.171875 25.148438 C 41.214844 25.148438 41.253906 25.136719 41.292969 25.121094 C 41.335938 25.117188 41.390625 25.125 41.429688 25.089844 C 41.507812 25.03125 41.484375 24.886719 41.390625 24.851562 C 41.3125 24.820312 41.238281 24.875 41.199219 24.9375 C 41.101562 24.859375 41.015625 24.765625 40.925781 24.679688 C 40.84375 24.667969 40.757812 24.671875 40.675781 24.675781 C 40.59375 24.75 40.519531 24.832031 40.4375 24.90625 Z M 40.484375 25.640625 C 40.4375 25.644531 40.382812 25.652344 40.34375 25.621094 C 40.300781 25.59375 40.246094 25.585938 40.199219 25.609375 C 40.121094 25.640625 40.101562 25.761719 40.160156 25.824219 C 40.222656 25.886719 40.339844 25.871094 40.386719 25.796875 C 40.394531 25.761719 40.390625 25.726562 40.390625 25.691406 C 40.4375 25.6875 40.484375 25.691406 40.53125 25.683594 C 40.574219 25.652344 40.605469 25.605469 40.644531 25.574219 C 40.835938 25.570312 41.023438 25.574219 41.210938 25.574219 C 41.292969 25.652344 41.378906 25.726562 41.445312 25.816406 C 41.527344 25.820312 41.609375 25.820312 41.691406 25.816406 C 41.710938 25.914062 41.824219 25.964844 41.90625 25.914062 C 42.007812 25.863281 41.980469 25.691406 41.871094 25.667969 C 41.796875 25.644531 41.71875 25.699219 41.691406 25.769531 C 41.617188 25.765625 41.542969 25.773438 41.472656 25.761719 C 41.390625 25.683594 41.316406 25.605469 41.234375 25.527344 C 41.042969 25.515625 40.847656 25.523438 40.652344 25.523438 C 40.578125 25.523438 40.5625 25.640625 40.484375 25.640625 Z M 40.429688 26.308594 C 40.414062 26.328125 40.386719 26.324219 40.363281 26.324219 C 40.152344 26.320312 39.941406 26.320312 39.726562 26.320312 C 39.726562 26.394531 39.726562 26.46875 39.726562 26.542969 C 39.957031 26.546875 40.1875 26.546875 40.417969 26.542969 C 40.417969 26.535156 40.417969 26.511719 40.417969 26.496094 C 40.203125 26.496094 39.988281 26.503906 39.773438 26.492188 C 39.773438 26.449219 39.773438 26.410156 39.773438 26.367188 C 39.992188 26.367188 40.210938 26.367188 40.433594 26.367188 C 40.519531 26.300781 40.59375 26.214844 40.675781 26.144531 C 40.753906 26.210938 40.832031 26.28125 40.910156 26.351562 C 40.921875 26.386719 40.898438 26.429688 40.914062 26.464844 C 40.941406 26.535156 41.023438 26.574219 41.089844 26.546875 C 41.125 26.535156 41.148438 26.507812 41.171875 26.484375 C 41.234375 26.511719 41.28125 26.558594 41.328125 26.609375 C 41.582031 26.605469 41.839844 26.605469 42.09375 26.609375 C 42.109375 26.640625 42.117188 26.675781 42.148438 26.699219 C 42.226562 26.769531 42.382812 26.703125 42.371094 26.589844 C 42.375 26.503906 42.285156 26.441406 42.203125 26.460938 C 42.152344 26.472656 42.121094 26.519531 42.097656 26.5625 C 41.851562 26.566406 41.605469 26.566406 41.359375 26.5625 C 41.300781 26.53125 41.261719 26.464844 41.195312 26.441406 C 41.183594 26.382812 41.160156 26.316406 41.097656 26.296875 C 41.042969 26.269531 40.988281 26.289062 40.941406 26.324219 C 40.851562 26.246094 40.769531 26.160156 40.671875 26.09375 C 40.582031 26.160156 40.511719 26.242188 40.429688 26.308594 Z M 39 26.671875 C 38.953125 26.738281 38.96875 26.851562 39.046875 26.882812 C 39.0625 26.894531 39.09375 26.898438 39.089844 26.925781 C 39.09375 27.039062 39.089844 27.15625 39.089844 27.269531 C 39.171875 27.265625 39.253906 27.265625 39.335938 27.265625 C 39.335938 27.257812 39.335938 27.234375 39.335938 27.222656 C 39.269531 27.222656 39.199219 27.222656 39.132812 27.226562 C 39.132812 27.117188 39.132812 27.007812 39.136719 26.898438 C 39.175781 26.882812 39.222656 26.867188 39.242188 26.824219 C 39.265625 26.769531 39.261719 26.699219 39.214844 26.65625 C 39.15625 26.605469 39.054688 26.613281 39 26.671875 Z M 39.769531 26.894531 C 39.667969 26.933594 39.664062 27.105469 39.765625 27.148438 C 39.863281 27.171875 39.964844 27.132812 40.066406 27.152344 C 40.199219 27.285156 40.332031 27.421875 40.46875 27.554688 C 40.71875 27.554688 40.96875 27.554688 41.222656 27.554688 C 41.308594 27.453125 41.40625 27.363281 41.5 27.269531 C 41.691406 27.257812 41.882812 27.273438 42.074219 27.253906 C 42.070312 27.246094 42.070312 27.230469 42.066406 27.222656 C 41.867188 27.207031 41.667969 27.222656 41.46875 27.222656 C 41.386719 27.324219 41.289062 27.414062 41.195312 27.503906 C 40.992188 27.511719 40.789062 27.503906 40.589844 27.507812 C 40.546875 27.507812 40.496094 27.519531 40.464844 27.484375 C 40.351562 27.371094 40.238281 27.261719 40.128906 27.140625 C 40.089844 27.082031 40.011719 27.105469 39.953125 27.101562 C 39.886719 27.097656 39.796875 27.140625 39.753906 27.070312 C 39.703125 26.996094 39.789062 26.902344 39.863281 26.933594 C 39.90625 26.945312 39.90625 26.988281 39.910156 27.023438 C 39.992188 27.027344 40.074219 27.027344 40.15625 27.019531 C 40.277344 27.144531 40.40625 27.261719 40.523438 27.386719 C 40.726562 27.382812 40.929688 27.386719 41.128906 27.382812 C 41.230469 27.296875 41.3125 27.191406 41.414062 27.105469 C 41.652344 27.105469 41.890625 27.101562 42.128906 27.101562 C 42.152344 27.207031 42.292969 27.242188 42.367188 27.171875 C 42.441406 27.109375 42.410156 26.976562 42.320312 26.949219 C 42.238281 26.914062 42.144531 26.96875 42.125 27.054688 C 41.878906 27.054688 41.632812 27.058594 41.382812 27.058594 C 41.296875 27.15625 41.207031 27.242188 41.117188 27.332031 C 40.929688 27.34375 40.742188 27.332031 40.554688 27.335938 C 40.417969 27.234375 40.308594 27.097656 40.183594 26.980469 C 40.113281 26.972656 40.039062 26.976562 39.96875 26.972656 C 39.9375 26.898438 39.847656 26.859375 39.769531 26.894531 Z M 40.867188 28.097656 C 40.863281 28.148438 40.863281 28.203125 40.859375 28.257812 C 40.917969 28.261719 40.980469 28.242188 41.035156 28.261719 C 41.140625 28.34375 41.222656 28.449219 41.324219 28.53125 C 41.589844 28.539062 41.855469 28.53125 42.121094 28.535156 C 42.144531 28.566406 42.15625 28.617188 42.199219 28.632812 C 42.28125 28.675781 42.410156 28.613281 42.402344 28.507812 C 42.40625 28.414062 42.304688 28.347656 42.21875 28.378906 C 42.164062 28.386719 42.148438 28.445312 42.125 28.488281 C 41.867188 28.484375 41.601562 28.488281 41.34375 28.488281 C 41.242188 28.410156 41.164062 28.304688 41.066406 28.226562 C 41.023438 28.179688 40.960938 28.21875 40.910156 28.214844 C 40.90625 28.175781 40.90625 28.132812 40.90625 28.09375 C 40.894531 28.09375 40.875 28.097656 40.867188 28.097656 Z M 40.167969 28.320312 L 40.160156 28.332031 C 40.296875 28.484375 40.445312 28.621094 40.59375 28.761719 C 40.636719 28.804688 40.679688 28.851562 40.730469 28.886719 C 40.996094 28.882812 41.265625 28.882812 41.53125 28.878906 C 41.628906 28.863281 41.675781 28.976562 41.757812 29.011719 C 41.835938 29.011719 41.914062 29.007812 41.992188 29.007812 C 42.007812 29.050781 42.019531 29.097656 42.066406 29.121094 C 42.152344 29.171875 42.277344 29.097656 42.273438 28.996094 C 42.277344 28.914062 42.191406 28.851562 42.113281 28.867188 C 42.054688 28.867188 42.015625 28.917969 41.996094 28.964844 C 41.917969 28.964844 41.84375 28.96875 41.769531 28.96875 C 41.710938 28.933594 41.667969 28.875 41.613281 28.828125 C 41.351562 28.839844 41.085938 28.835938 40.824219 28.84375 C 40.789062 28.84375 40.746094 28.855469 40.722656 28.824219 C 40.542969 28.660156 40.371094 28.488281 40.199219 28.320312 C 40.195312 28.320312 40.179688 28.320312 40.167969 28.320312 Z M 38.117188 28.894531 C 38.117188 28.996094 38.117188 29.097656 38.117188 29.199219 C 38.308594 29.375 38.492188 29.554688 38.679688 29.726562 C 38.703125 29.742188 38.71875 29.769531 38.75 29.765625 C 38.863281 29.753906 38.980469 29.761719 39.097656 29.757812 C 39.097656 29.949219 39.101562 30.136719 39.101562 30.324219 C 38.921875 30.324219 38.742188 30.328125 38.566406 30.328125 C 38.558594 30.453125 38.570312 30.574219 38.5625 30.699219 C 38.515625 30.761719 38.4375 30.796875 38.398438 30.859375 C 38.398438 31.105469 38.402344 31.347656 38.398438 31.59375 C 38.402344 31.644531 38.394531 31.695312 38.40625 31.746094 C 38.453125 31.796875 38.511719 31.832031 38.566406 31.875 C 38.566406 31.9375 38.566406 32.003906 38.558594 32.070312 C 38.488281 32.078125 38.421875 32.144531 38.429688 32.21875 C 38.433594 32.335938 38.597656 32.382812 38.671875 32.300781 C 38.734375 32.226562 38.703125 32.097656 38.605469 32.074219 C 38.601562 31.996094 38.605469 31.921875 38.601562 31.84375 C 38.550781 31.804688 38.492188 31.769531 38.449219 31.722656 C 38.433594 31.667969 38.445312 31.609375 38.441406 31.554688 C 38.445312 31.328125 38.4375 31.105469 38.445312 30.878906 C 38.480469 30.8125 38.570312 30.785156 38.605469 30.714844 C 38.613281 30.601562 38.605469 30.484375 38.609375 30.371094 C 38.785156 30.378906 38.96875 30.363281 39.144531 30.363281 C 39.144531 30.148438 39.132812 29.933594 39.140625 29.714844 C 39.015625 29.714844 38.890625 29.707031 38.761719 29.714844 C 38.730469 29.71875 38.707031 29.6875 38.683594 29.667969 C 38.503906 29.511719 38.339844 29.335938 38.160156 29.183594 C 38.15625 29.101562 38.15625 29.019531 38.15625 28.9375 C 38.554688 28.9375 38.949219 28.9375 39.347656 28.933594 C 39.371094 28.929688 39.390625 28.949219 39.40625 28.96875 C 39.582031 29.140625 39.761719 29.316406 39.9375 29.488281 C 40.019531 29.570312 40.105469 29.644531 40.179688 29.730469 C 40.1875 29.808594 40.179688 29.886719 40.183594 29.964844 C 40.140625 29.992188 40.089844 30.03125 40.09375 30.089844 C 40.082031 30.195312 40.210938 30.269531 40.296875 30.21875 C 40.359375 30.191406 40.378906 30.105469 40.355469 30.042969 C 40.332031 29.988281 40.273438 29.972656 40.226562 29.964844 C 40.226562 29.878906 40.226562 29.792969 40.222656 29.707031 C 40.144531 29.632812 40.066406 29.550781 39.988281 29.472656 C 39.785156 29.285156 39.59375 29.082031 39.390625 28.890625 C 38.972656 28.890625 38.542969 28.894531 38.117188 28.894531 Z M 41.269531 29.035156 C 41.269531 29.046875 41.269531 29.070312 41.269531 29.078125 C 41.34375 29.089844 41.417969 29.074219 41.488281 29.089844 C 41.566406 29.167969 41.644531 29.246094 41.71875 29.324219 C 41.691406 29.359375 41.664062 29.398438 41.675781 29.445312 C 41.679688 29.511719 41.746094 29.5625 41.808594 29.5625 C 41.886719 29.570312 41.960938 29.496094 41.941406 29.414062 C 41.933594 29.324219 41.835938 29.269531 41.757812 29.308594 C 41.679688 29.214844 41.59375 29.125 41.507812 29.039062 C 41.425781 29.03125 41.347656 29.039062 41.269531 29.035156 Z M 38.636719 29.089844 C 38.546875 29.113281 38.5 29.234375 38.5625 29.308594 C 38.632812 29.398438 38.796875 29.355469 38.808594 29.238281 C 38.828125 29.140625 38.726562 29.050781 38.636719 29.089844 Z M 38.960938 29.335938 C 38.863281 29.359375 38.828125 29.515625 38.917969 29.574219 C 39 29.640625 39.15625 29.582031 39.152344 29.46875 C 39.160156 29.371094 39.050781 29.300781 38.960938 29.335938 Z M 39.410156 29.421875 C 39.328125 29.453125 39.308594 29.574219 39.371094 29.636719 C 39.390625 29.660156 39.425781 29.664062 39.441406 29.691406 C 39.445312 29.789062 39.4375 29.882812 39.441406 29.976562 C 39.398438 29.976562 39.351562 29.972656 39.3125 29.996094 C 39.222656 30.042969 39.234375 30.199219 39.332031 30.234375 C 39.417969 30.277344 39.535156 30.207031 39.53125 30.105469 C 39.535156 30.058594 39.496094 30.027344 39.484375 29.984375 C 39.484375 29.878906 39.488281 29.777344 39.492188 29.671875 C 39.523438 29.660156 39.558594 29.636719 39.589844 29.613281 C 39.667969 29.691406 39.746094 29.765625 39.824219 29.835938 C 39.835938 30.050781 39.832031 30.265625 39.832031 30.480469 C 39.457031 30.476562 39.085938 30.488281 38.710938 30.484375 C 38.710938 30.582031 38.714844 30.679688 38.710938 30.777344 C 38.671875 30.859375 38.539062 30.886719 38.554688 30.992188 C 38.558594 31.199219 38.546875 31.414062 38.558594 31.625 C 38.71875 31.765625 38.875 31.917969 39.023438 32.070312 C 38.945312 32.128906 38.949219 32.261719 39.039062 32.304688 C 39.117188 32.351562 39.238281 32.292969 39.238281 32.195312 C 39.242188 32.125 39.191406 32.070312 39.132812 32.050781 C 39.132812 31.976562 39.128906 31.902344 39.128906 31.828125 C 39.011719 31.726562 38.902344 31.617188 38.789062 31.511719 C 38.789062 31.417969 38.785156 31.320312 38.789062 31.222656 C 38.839844 31.167969 38.910156 31.136719 38.953125 31.074219 C 38.957031 30.949219 38.953125 30.820312 38.953125 30.695312 C 39.40625 30.6875 39.859375 30.691406 40.3125 30.6875 C 40.433594 30.796875 40.550781 30.910156 40.664062 31.023438 C 40.679688 31.039062 40.699219 31.0625 40.726562 31.058594 C 40.835938 31.066406 40.941406 31.0625 41.046875 31.066406 C 41.054688 31.101562 41.058594 31.140625 41.085938 31.167969 C 41.152344 31.234375 41.289062 31.214844 41.316406 31.121094 C 41.351562 31.03125 41.269531 30.933594 41.183594 30.933594 C 41.140625 30.855469 41.074219 30.800781 41.011719 30.738281 C 40.921875 30.652344 40.832031 30.558594 40.742188 30.46875 C 40.6875 30.464844 40.628906 30.480469 40.574219 30.472656 C 40.34375 30.46875 40.109375 30.480469 39.878906 30.472656 C 39.878906 30.28125 39.878906 30.085938 39.878906 29.894531 C 39.875 29.863281 39.882812 29.824219 39.859375 29.804688 C 39.78125 29.726562 39.695312 29.65625 39.621094 29.574219 C 39.605469 29.542969 39.605469 29.507812 39.59375 29.476562 C 39.554688 29.421875 39.472656 29.386719 39.410156 29.421875 Z M 37.800781 30.003906 C 37.792969 30.074219 37.847656 30.121094 37.902344 30.148438 C 37.902344 30.683594 37.902344 31.222656 37.898438 31.757812 C 37.90625 31.757812 37.929688 31.753906 37.941406 31.753906 C 37.941406 31.21875 37.941406 30.683594 37.945312 30.148438 C 37.976562 30.136719 38.007812 30.132812 38.03125 30.109375 C 38.097656 30.046875 38.085938 29.917969 37.996094 29.882812 C 37.910156 29.839844 37.792969 29.90625 37.800781 30.003906 Z M 38.8125 29.878906 C 38.722656 29.90625 38.683594 30.03125 38.742188 30.101562 C 38.820312 30.179688 38.980469 30.140625 38.996094 30.019531 C 39.019531 29.921875 38.898438 29.84375 38.8125 29.878906 Z M 41.828125 29.875 C 41.714844 29.902344 41.710938 30.074219 41.808594 30.125 C 41.890625 30.175781 42.003906 30.121094 42.011719 30.023438 C 42.035156 29.921875 41.921875 29.828125 41.828125 29.875 Z M 40.585938 30.160156 C 40.792969 30.363281 41 30.570312 41.210938 30.765625 C 41.335938 30.785156 41.46875 30.777344 41.597656 30.773438 C 41.597656 30.761719 41.601562 30.742188 41.605469 30.730469 C 41.488281 30.730469 41.375 30.734375 41.261719 30.730469 C 41.238281 30.730469 41.222656 30.71875 41.203125 30.703125 C 41.003906 30.511719 40.8125 30.320312 40.621094 30.128906 C 40.605469 30.136719 40.597656 30.148438 40.585938 30.160156 Z M 39.054688 30.828125 C 39.058594 30.984375 39.046875 31.148438 39.0625 31.304688 C 39.199219 31.441406 39.347656 31.5625 39.476562 31.703125 C 39.492188 31.761719 39.480469 31.820312 39.484375 31.878906 C 39.441406 31.902344 39.398438 31.925781 39.390625 31.976562 C 39.351562 32.078125 39.472656 32.191406 39.570312 32.144531 C 39.652344 32.121094 39.679688 32.011719 39.636719 31.945312 C 39.613281 31.910156 39.570312 31.890625 39.53125 31.878906 C 39.523438 31.796875 39.554688 31.695312 39.480469 31.636719 C 39.355469 31.523438 39.234375 31.40625 39.113281 31.289062 C 39.097656 31.152344 39.109375 31.007812 39.101562 30.871094 C 39.371094 30.867188 39.636719 30.871094 39.902344 30.859375 C 39.996094 30.957031 40.097656 31.046875 40.191406 31.140625 C 40.210938 31.15625 40.226562 31.179688 40.25 31.183594 C 40.335938 31.191406 40.417969 31.183594 40.503906 31.1875 C 40.570312 31.242188 40.625 31.3125 40.691406 31.371094 C 40.667969 31.425781 40.660156 31.496094 40.707031 31.542969 C 40.777344 31.625 40.933594 31.578125 40.945312 31.46875 C 40.960938 31.351562 40.808594 31.265625 40.722656 31.339844 C 40.65625 31.277344 40.601562 31.203125 40.53125 31.148438 C 40.441406 31.125 40.347656 31.148438 40.257812 31.128906 C 40.152344 31.042969 40.0625 30.945312 39.960938 30.855469 C 39.945312 30.839844 39.925781 30.816406 39.902344 30.816406 C 39.617188 30.820312 39.335938 30.816406 39.054688 30.828125 Z M 39.210938 30.988281 C 39.210938 31.070312 39.207031 31.15625 39.21875 31.238281 C 39.339844 31.351562 39.460938 31.46875 39.578125 31.589844 C 39.613281 31.613281 39.589844 31.660156 39.605469 31.695312 C 39.652344 31.777344 39.777344 31.78125 39.828125 31.710938 C 39.886719 31.644531 39.867188 31.511719 39.773438 31.492188 C 39.707031 31.464844 39.644531 31.503906 39.605469 31.554688 C 39.496094 31.441406 39.382812 31.324219 39.261719 31.21875 C 39.25 31.15625 39.257812 31.09375 39.253906 31.03125 C 39.382812 31.035156 39.507812 31.039062 39.632812 31.035156 C 39.777344 31.199219 39.945312 31.339844 40.089844 31.496094 C 40.109375 31.535156 40.085938 31.578125 40.113281 31.617188 C 40.15625 31.691406 40.277344 31.703125 40.339844 31.636719 C 40.398438 31.570312 40.371094 31.453125 40.289062 31.421875 C 40.230469 31.390625 40.160156 31.417969 40.121094 31.46875 C 39.984375 31.320312 39.832031 31.183594 39.695312 31.035156 C 39.675781 31.015625 39.65625 30.984375 39.625 30.992188 C 39.484375 30.988281 39.347656 30.992188 39.210938 30.988281 Z M 39.210938 30.988281 " fill-opacity="1" fill-rule="nonzero"/></g><path fill="#020202" d="M 38.742188 22.054688 C 38.8125 22.027344 38.890625 22.113281 38.855469 22.179688 C 38.816406 22.242188 38.71875 22.238281 38.679688 22.179688 C 38.660156 22.132812 38.695312 22.070312 38.742188 22.054688 Z M 38.742188 22.054688 " fill-opacity="1" fill-rule="nonzero"/><path fill="#020202" d="M 36.035156 22.316406 C 36.066406 22.222656 36.128906 22.125 36.234375 22.097656 C 36.214844 22.171875 36.167969 22.226562 36.152344 22.296875 C 36.089844 22.488281 36.128906 22.6875 36.121094 22.882812 C 36.113281 23.007812 36.070312 23.128906 35.996094 23.230469 C 36.15625 23.191406 36.332031 23.203125 36.472656 23.296875 C 36.53125 23.335938 36.597656 23.386719 36.617188 23.460938 C 36.535156 23.425781 36.457031 23.371094 36.367188 23.355469 C 36.15625 23.300781 35.929688 23.375 35.757812 23.5 C 35.484375 23.707031 35.28125 24.011719 35.195312 24.34375 C 35.15625 24.5 35.171875 24.664062 35.214844 24.816406 C 35.402344 24.808594 35.597656 24.828125 35.765625 24.917969 C 35.910156 24.992188 36.023438 25.136719 36.050781 25.300781 C 36.058594 25.394531 36.058594 25.496094 36.003906 25.578125 C 35.929688 25.695312 35.808594 25.792969 35.671875 25.792969 C 35.722656 25.71875 35.800781 25.667969 35.84375 25.585938 C 35.933594 25.445312 35.898438 25.242188 35.773438 25.132812 C 35.644531 25.015625 35.46875 24.984375 35.300781 24.984375 C 35 24.988281 34.714844 25.105469 34.449219 25.238281 C 34.367188 25.277344 34.289062 25.324219 34.207031 25.359375 C 34.246094 25.246094 34.351562 25.183594 34.429688 25.105469 C 34.203125 25.082031 33.953125 25.132812 33.742188 25.015625 C 33.773438 24.976562 33.832031 24.996094 33.875 24.988281 C 34.113281 24.964844 34.359375 24.929688 34.601562 24.976562 C 34.636719 24.980469 34.667969 24.957031 34.695312 24.949219 C 34.8125 24.902344 34.929688 24.871094 35.050781 24.835938 C 34.988281 24.640625 34.992188 24.429688 35.046875 24.234375 C 34.875 24.167969 34.675781 24.144531 34.5 24.210938 C 34.441406 24.230469 34.394531 24.269531 34.335938 24.292969 C 34.367188 24.171875 34.488281 24.101562 34.597656 24.0625 C 34.761719 24.011719 34.933594 24.042969 35.09375 24.097656 C 35.203125 23.863281 35.339844 23.636719 35.535156 23.464844 C 35.632812 23.375 35.753906 23.316406 35.824219 23.203125 C 35.898438 23.109375 35.960938 23 35.96875 22.875 C 35.980469 22.691406 35.964844 22.496094 36.035156 22.316406 Z M 36.035156 22.316406 " fill-opacity="1" fill-rule="nonzero"/><path fill="#020202" d="M 38.3125 22.226562 C 38.375 22.195312 38.457031 22.253906 38.445312 22.324219 C 38.429688 22.390625 38.328125 22.417969 38.28125 22.363281 C 38.238281 22.324219 38.265625 22.25 38.3125 22.226562 Z M 38.3125 22.226562 " fill-opacity="1" fill-rule="nonzero"/><path fill="#020202" d="M 39.066406 22.253906 C 39.128906 22.21875 39.21875 22.285156 39.195312 22.355469 C 39.183594 22.421875 39.089844 22.441406 39.042969 22.394531 C 38.996094 22.355469 39.015625 22.28125 39.066406 22.253906 Z M 39.066406 22.253906 " fill-opacity="1" fill-rule="nonzero"/><path fill="#020202" d="M 37.882812 22.367188 C 37.953125 22.34375 38.019531 22.4375 37.980469 22.503906 C 37.945312 22.550781 37.867188 22.558594 37.828125 22.507812 C 37.789062 22.460938 37.824219 22.378906 37.882812 22.367188 Z M 37.882812 22.367188 " fill-opacity="1" fill-rule="nonzero"/><path fill="#020202" d="M 39.753906 22.644531 C 39.808594 22.613281 39.882812 22.660156 39.882812 22.722656 C 39.886719 22.804688 39.773438 22.839844 39.722656 22.78125 C 39.679688 22.742188 39.707031 22.667969 39.753906 22.644531 Z M 39.753906 22.644531 " fill-opacity="1" fill-rule="nonzero"/><path fill="#020202" d="M 34.792969 23.402344 C 34.71875 23.203125 34.71875 22.960938 34.839844 22.78125 C 34.882812 22.808594 34.867188 22.859375 34.867188 22.902344 C 34.855469 23.125 34.894531 23.359375 35 23.554688 C 35.03125 23.613281 35.078125 23.664062 35.101562 23.726562 C 34.953125 23.683594 34.851562 23.542969 34.792969 23.402344 Z M 34.792969 23.402344 " fill-opacity="1" fill-rule="nonzero"/><path fill="#020202" d="M 39.136719 22.816406 C 39.199219 22.78125 39.28125 22.84375 39.269531 22.917969 C 39.25 22.984375 39.152344 23.011719 39.109375 22.953125 C 39.066406 22.914062 39.082031 22.839844 39.136719 22.816406 Z M 39.136719 22.816406 " fill-opacity="1" fill-rule="nonzero"/><path fill="#020202" d="M 40.183594 22.8125 C 40.238281 22.777344 40.335938 22.824219 40.324219 22.898438 C 40.320312 22.964844 40.234375 22.996094 40.183594 22.964844 C 40.121094 22.9375 40.125 22.84375 40.183594 22.8125 Z M 40.183594 22.8125 " fill-opacity="1" fill-rule="nonzero"/><path fill="#020202" d="M 38.621094 22.976562 C 38.675781 22.9375 38.75 22.992188 38.746094 23.058594 C 38.742188 23.140625 38.609375 23.171875 38.574219 23.097656 C 38.550781 23.050781 38.578125 22.996094 38.621094 22.976562 Z M 38.621094 22.976562 " fill-opacity="1" fill-rule="nonzero"/><path fill="#020202" d="M 40.472656 23.476562 C 40.53125 23.445312 40.613281 23.503906 40.597656 23.574219 C 40.582031 23.648438 40.476562 23.667969 40.433594 23.613281 C 40.402344 23.566406 40.421875 23.5 40.472656 23.476562 Z M 40.472656 23.476562 " fill-opacity="1" fill-rule="nonzero"/><path fill="#020202" d="M 40.183594 23.8125 C 40.234375 23.800781 40.304688 23.847656 40.292969 23.90625 C 40.285156 23.976562 40.191406 24.007812 40.144531 23.957031 C 40.089844 23.917969 40.125 23.828125 40.183594 23.8125 Z M 40.183594 23.8125 " fill-opacity="1" fill-rule="nonzero"/><path fill="#020202" d="M 41.054688 23.925781 C 41.105469 23.898438 41.167969 23.929688 41.183594 23.984375 C 41.199219 24.058594 41.101562 24.132812 41.039062 24.078125 C 40.984375 24.042969 41 23.953125 41.054688 23.925781 Z M 41.054688 23.925781 " fill-opacity="1" fill-rule="nonzero"/><path fill="#020202" d="M 35.617188 24.050781 C 35.851562 24.0625 36.070312 24.1875 36.242188 24.347656 C 36.378906 24.480469 36.492188 24.644531 36.566406 24.820312 C 36.597656 24.886719 36.621094 24.957031 36.628906 25.03125 C 36.574219 25.011719 36.558594 24.953125 36.527344 24.914062 C 36.386719 24.695312 36.226562 24.488281 36.023438 24.324219 C 35.917969 24.238281 35.800781 24.164062 35.679688 24.101562 C 35.65625 24.085938 35.632812 24.070312 35.617188 24.050781 Z M 35.617188 24.050781 " fill-opacity="1" fill-rule="nonzero"/><path fill="#020202" d="M 41.265625 24.335938 C 41.332031 24.304688 41.40625 24.394531 41.367188 24.457031 C 41.332031 24.527344 41.21875 24.503906 41.207031 24.429688 C 41.199219 24.386719 41.226562 24.351562 41.265625 24.335938 Z M 41.265625 24.335938 " fill-opacity="1" fill-rule="nonzero"/><path fill="#020202" d="M 37.953125 24.628906 C 38.019531 24.582031 38.117188 24.664062 38.09375 24.738281 C 38.070312 24.792969 37.992188 24.808594 37.949219 24.773438 C 37.902344 24.742188 37.902344 24.65625 37.953125 24.628906 Z M 37.953125 24.628906 " fill-opacity="1" fill-rule="nonzero"/><path fill="#020202" d="M 41.296875 24.902344 C 41.351562 24.867188 41.433594 24.921875 41.425781 24.988281 C 41.429688 25.0625 41.316406 25.105469 41.273438 25.042969 C 41.230469 25.003906 41.246094 24.929688 41.296875 24.902344 Z M 41.296875 24.902344 " fill-opacity="1" fill-rule="nonzero"/><path fill="#020202" d="M 41.761719 25.203125 C 41.820312 25.171875 41.894531 25.234375 41.886719 25.300781 C 41.878906 25.363281 41.796875 25.402344 41.75 25.363281 C 41.699219 25.324219 41.695312 25.230469 41.761719 25.203125 Z M 41.761719 25.203125 " fill-opacity="1" fill-rule="nonzero"/><path fill="#020202" d="M 40.21875 25.660156 C 40.277344 25.617188 40.367188 25.679688 40.347656 25.753906 C 40.332031 25.828125 40.226562 25.828125 40.183594 25.777344 C 40.152344 25.738281 40.175781 25.679688 40.21875 25.660156 Z M 40.21875 25.660156 " fill-opacity="1" fill-rule="nonzero"/><path fill="#020202" d="M 34.585938 25.816406 C 34.644531 25.757812 34.707031 25.691406 34.789062 25.675781 C 34.757812 25.742188 34.707031 25.796875 34.667969 25.859375 C 34.511719 26.089844 34.402344 26.359375 34.386719 26.640625 C 34.382812 26.804688 34.414062 26.988281 34.535156 27.105469 C 34.644531 27.210938 34.8125 27.21875 34.953125 27.179688 C 35.058594 27.15625 35.152344 27.09375 35.257812 27.066406 C 35.234375 27.117188 35.1875 27.15625 35.140625 27.195312 C 35.070312 27.257812 34.980469 27.304688 34.890625 27.339844 C 34.84375 27.527344 34.828125 27.730469 34.890625 27.914062 C 34.988281 28.207031 35.21875 28.445312 35.496094 28.570312 C 35.863281 28.734375 36.265625 28.765625 36.65625 28.835938 C 36.679688 28.839844 36.699219 28.84375 36.707031 28.867188 C 36.320312 28.925781 35.917969 28.882812 35.539062 28.765625 C 35.296875 28.691406 35.078125 28.539062 34.917969 28.335938 C 34.761719 28.140625 34.667969 27.886719 34.675781 27.632812 C 34.675781 27.539062 34.695312 27.445312 34.710938 27.351562 C 34.570312 27.332031 34.441406 27.257812 34.359375 27.140625 C 34.238281 26.964844 34.21875 26.734375 34.246094 26.527344 C 34.292969 26.269531 34.40625 26.015625 34.585938 25.816406 Z M 34.585938 25.816406 " fill-opacity="1" fill-rule="nonzero"/><path fill="#020202" d="M 35.203125 25.804688 C 35.191406 25.761719 35.171875 25.710938 35.195312 25.667969 C 35.257812 25.757812 35.3125 25.851562 35.386719 25.929688 C 35.519531 26.085938 35.691406 26.199219 35.863281 26.300781 C 35.914062 26.320312 35.96875 26.324219 36.019531 26.335938 C 36.199219 26.386719 36.375 26.492188 36.46875 26.660156 C 36.5625 26.820312 36.589844 27.011719 36.554688 27.191406 C 36.507812 27.179688 36.515625 27.132812 36.503906 27.097656 C 36.46875 26.910156 36.390625 26.71875 36.234375 26.605469 C 36.011719 26.4375 35.71875 26.433594 35.457031 26.488281 C 35.289062 26.519531 35.136719 26.601562 34.984375 26.667969 C 35.007812 26.601562 35.066406 26.554688 35.121094 26.511719 C 35.269531 26.394531 35.453125 26.34375 35.636719 26.3125 C 35.441406 26.203125 35.277344 26.019531 35.203125 25.804688 Z M 35.203125 25.804688 " fill-opacity="1" fill-rule="nonzero"/><path fill="#020202" d="M 41.8125 25.710938 C 41.882812 25.695312 41.953125 25.785156 41.910156 25.847656 C 41.878906 25.894531 41.808594 25.898438 41.769531 25.859375 C 41.71875 25.816406 41.753906 25.726562 41.8125 25.710938 Z M 41.8125 25.710938 " fill-opacity="1" fill-rule="nonzero"/><path fill="#020202" d="M 41.347656 25.988281 C 41.414062 25.964844 41.492188 26.058594 41.441406 26.117188 C 41.402344 26.171875 41.3125 26.164062 41.285156 26.101562 C 41.265625 26.050781 41.304688 26.003906 41.347656 25.988281 Z M 41.347656 25.988281 " fill-opacity="1" fill-rule="nonzero"/><g clip-path="url(#67f0ec29c5)"><path fill="#020202" d="M 41.914062 26.109375 C 41.972656 26.074219 42.058594 26.136719 42.042969 26.207031 C 42.027344 26.265625 41.945312 26.296875 41.894531 26.257812 C 41.847656 26.214844 41.863281 26.132812 41.914062 26.109375 Z M 41.914062 26.109375 " fill-opacity="1" fill-rule="nonzero"/></g><path fill="#020202" d="M 39 26.234375 C 39.0625 26.207031 39.140625 26.277344 39.113281 26.34375 C 39.101562 26.417969 38.992188 26.421875 38.957031 26.363281 C 38.925781 26.320312 38.949219 26.253906 39 26.234375 Z M 39 26.234375 " fill-opacity="1" fill-rule="nonzero"/><path fill="#020202" d="M 41.023438 26.335938 C 41.097656 26.308594 41.171875 26.421875 41.109375 26.480469 C 41.070312 26.53125 40.980469 26.511719 40.957031 26.449219 C 40.949219 26.402344 40.980469 26.351562 41.023438 26.335938 Z M 41.023438 26.335938 " fill-opacity="1" fill-rule="nonzero"/><g clip-path="url(#26f47f8fda)"><path fill="#020202" d="M 32.910156 26.484375 C 33.023438 26.5625 33.113281 26.664062 33.222656 26.746094 C 33.410156 26.59375 33.683594 26.570312 33.90625 26.667969 C 33.941406 26.683594 33.984375 26.699219 34 26.742188 C 33.820312 26.707031 33.628906 26.710938 33.457031 26.789062 C 33.300781 26.851562 33.191406 27.003906 33.160156 27.167969 C 33.125 27.335938 33.140625 27.511719 33.1875 27.671875 C 33.207031 27.742188 33.234375 27.816406 33.242188 27.890625 C 33.183594 27.859375 33.15625 27.789062 33.125 27.734375 C 32.988281 27.460938 32.964844 27.121094 33.125 26.855469 C 33.023438 26.757812 32.9375 26.632812 32.910156 26.484375 Z M 32.910156 26.484375 " fill-opacity="1" fill-rule="nonzero"/></g><g clip-path="url(#e9867416b9)"><path fill="#020202" d="M 42.207031 26.511719 C 42.265625 26.492188 42.332031 26.546875 42.324219 26.609375 C 42.3125 26.679688 42.207031 26.703125 42.164062 26.644531 C 42.121094 26.601562 42.15625 26.527344 42.207031 26.511719 Z M 42.207031 26.511719 " fill-opacity="1" fill-rule="nonzero"/></g><path fill="#020202" d="M 39.066406 26.6875 C 39.125 26.644531 39.210938 26.695312 39.203125 26.765625 C 39.203125 26.847656 39.089844 26.882812 39.039062 26.820312 C 39.003906 26.777344 39.019531 26.710938 39.066406 26.6875 Z M 39.066406 26.6875 " fill-opacity="1" fill-rule="nonzero"/><path fill="#020202" d="M 41.121094 26.800781 C 41.195312 26.773438 41.269531 26.867188 41.234375 26.933594 C 41.199219 26.984375 41.117188 26.992188 41.082031 26.945312 C 41.042969 26.894531 41.074219 26.824219 41.121094 26.800781 Z M 41.121094 26.800781 " fill-opacity="1" fill-rule="nonzero"/><g clip-path="url(#6aca356576)"><path fill="#020202" d="M 42.242188 27 C 42.304688 26.980469 42.378906 27.046875 42.355469 27.109375 C 42.332031 27.175781 42.238281 27.1875 42.195312 27.132812 C 42.152344 27.09375 42.1875 27.011719 42.242188 27 Z M 42.242188 27 " fill-opacity="1" fill-rule="nonzero"/></g><path fill="#020202" d="M 33.722656 27.25 C 33.765625 27.261719 33.78125 27.308594 33.800781 27.347656 C 33.882812 27.515625 33.914062 27.707031 33.914062 27.894531 C 33.914062 28 33.914062 28.105469 33.929688 28.210938 C 33.992188 28.566406 34.207031 28.898438 34.523438 29.070312 C 34.757812 29.1875 35.003906 29.277344 35.230469 29.414062 C 35.246094 29.421875 35.257812 29.441406 35.269531 29.460938 C 35.1875 29.457031 35.105469 29.433594 35.027344 29.414062 C 34.851562 29.363281 34.679688 29.3125 34.515625 29.238281 C 34.386719 29.359375 34.269531 29.507812 34.25 29.691406 C 34.230469 29.933594 34.335938 30.167969 34.472656 30.359375 C 34.679688 30.640625 35.003906 30.851562 35.351562 30.878906 C 35.511719 30.886719 35.683594 30.867188 35.8125 30.769531 C 35.910156 30.703125 35.976562 30.601562 36.023438 30.5 C 36.03125 30.5 36.042969 30.492188 36.046875 30.488281 C 36.066406 30.578125 36.058594 30.679688 36.011719 30.761719 C 35.960938 30.851562 35.878906 30.914062 35.792969 30.964844 C 35.835938 31.121094 35.933594 31.261719 36.066406 31.347656 C 36.25 31.472656 36.464844 31.515625 36.679688 31.554688 C 36.625 31.601562 36.546875 31.597656 36.484375 31.601562 C 36.128906 31.601562 35.761719 31.375 35.664062 31.019531 C 35.355469 31.101562 35.019531 31.03125 34.75 30.867188 C 34.679688 31.03125 34.507812 31.128906 34.332031 31.140625 C 34.34375 31.207031 34.355469 31.269531 34.386719 31.328125 C 34.414062 31.386719 34.460938 31.433594 34.496094 31.488281 C 34.320312 31.476562 34.203125 31.296875 34.1875 31.128906 C 34.046875 31.09375 33.910156 31.015625 33.847656 30.882812 C 33.925781 30.90625 33.996094 30.953125 34.078125 30.976562 C 34.226562 31.027344 34.398438 31.023438 34.535156 30.9375 C 34.585938 30.90625 34.617188 30.855469 34.648438 30.804688 C 34.402344 30.605469 34.199219 30.347656 34.109375 30.042969 C 34.050781 29.863281 34.042969 29.667969 34.105469 29.488281 C 34.152344 29.355469 34.242188 29.246094 34.347656 29.152344 C 34.070312 28.984375 33.882812 28.679688 33.824219 28.363281 C 33.769531 28.113281 33.816406 27.855469 33.78125 27.601562 C 33.773438 27.480469 33.730469 27.367188 33.722656 27.25 Z M 33.722656 27.25 " fill-opacity="1" fill-rule="nonzero"/><g clip-path="url(#d8859db781)"><path fill="#020202" d="M 42.226562 27.648438 C 42.292969 27.617188 42.371094 27.695312 42.34375 27.765625 C 42.3125 27.835938 42.195312 27.828125 42.171875 27.753906 C 42.152344 27.710938 42.183594 27.664062 42.226562 27.648438 Z M 42.226562 27.648438 " fill-opacity="1" fill-rule="nonzero"/></g><g clip-path="url(#0d277c25d6)"><path fill="#020202" d="M 42.070312 28.066406 C 42.132812 28.046875 42.199219 28.125 42.171875 28.1875 C 42.152344 28.242188 42.066406 28.261719 42.023438 28.214844 C 41.980469 28.167969 42.003906 28.074219 42.070312 28.066406 Z M 42.070312 28.066406 " fill-opacity="1" fill-rule="nonzero"/><path fill="#020202" d="M 42.226562 28.425781 C 42.28125 28.394531 42.355469 28.445312 42.355469 28.507812 C 42.363281 28.585938 42.253906 28.628906 42.207031 28.574219 C 42.15625 28.535156 42.171875 28.453125 42.226562 28.425781 Z M 42.226562 28.425781 " fill-opacity="1" fill-rule="nonzero"/></g><path fill="#020202" d="M 35.742188 28.878906 C 35.796875 28.890625 35.824219 28.949219 35.859375 28.988281 C 36.070312 29.269531 36.050781 29.71875 35.792969 29.964844 C 35.621094 30.128906 35.382812 30.21875 35.148438 30.214844 C 35.09375 30.214844 35.035156 30.21875 34.988281 30.1875 C 35.214844 30.117188 35.46875 30.078125 35.652344 29.914062 C 35.824219 29.769531 35.890625 29.535156 35.863281 29.316406 C 35.851562 29.164062 35.785156 29.023438 35.742188 28.878906 Z M 35.742188 28.878906 " fill-opacity="1" fill-rule="nonzero"/><g clip-path="url(#f8fa9a5a98)"><path fill="#020202" d="M 42.101562 28.914062 C 42.152344 28.894531 42.207031 28.925781 42.226562 28.976562 C 42.242188 29.050781 42.148438 29.117188 42.085938 29.074219 C 42.03125 29.039062 42.035156 28.933594 42.101562 28.914062 Z M 42.101562 28.914062 " fill-opacity="1" fill-rule="nonzero"/></g><path fill="#020202" d="M 38.636719 29.140625 C 38.695312 29.109375 38.777344 29.167969 38.757812 29.234375 C 38.75 29.292969 38.675781 29.328125 38.625 29.296875 C 38.566406 29.265625 38.578125 29.164062 38.636719 29.140625 Z M 38.636719 29.140625 " fill-opacity="1" fill-rule="nonzero"/><path fill="#020202" d="M 41.316406 29.335938 C 41.390625 29.300781 41.457031 29.40625 41.410156 29.46875 C 41.371094 29.527344 41.269531 29.5 41.257812 29.425781 C 41.242188 29.382812 41.277344 29.347656 41.316406 29.335938 Z M 41.316406 29.335938 " fill-opacity="1" fill-rule="nonzero"/><path fill="#020202" d="M 41.777344 29.355469 C 41.835938 29.328125 41.90625 29.382812 41.890625 29.445312 C 41.878906 29.519531 41.761719 29.539062 41.730469 29.472656 C 41.707031 29.425781 41.730469 29.367188 41.777344 29.355469 Z M 41.777344 29.355469 " fill-opacity="1" fill-rule="nonzero"/><path fill="#020202" d="M 38.964844 29.390625 C 39.019531 29.359375 39.109375 29.394531 39.105469 29.46875 C 39.101562 29.546875 38.984375 29.582031 38.9375 29.519531 C 38.894531 29.480469 38.914062 29.40625 38.964844 29.390625 Z M 38.964844 29.390625 " fill-opacity="1" fill-rule="nonzero"/><path fill="#020202" d="M 39.425781 29.46875 C 39.484375 29.429688 39.574219 29.480469 39.558594 29.550781 C 39.546875 29.628906 39.441406 29.65625 39.394531 29.59375 C 39.359375 29.554688 39.382812 29.488281 39.425781 29.46875 Z M 39.425781 29.46875 " fill-opacity="1" fill-rule="nonzero"/><path fill="#020202" d="M 37.902344 29.925781 C 37.960938 29.902344 38.035156 29.957031 38.023438 30.019531 C 38.019531 30.09375 37.921875 30.121094 37.875 30.074219 C 37.824219 30.035156 37.839844 29.945312 37.902344 29.925781 Z M 37.902344 29.925781 " fill-opacity="1" fill-rule="nonzero"/><path fill="#020202" d="M 38.824219 29.921875 C 38.878906 29.90625 38.953125 29.945312 38.945312 30.007812 C 38.945312 30.082031 38.84375 30.121094 38.789062 30.070312 C 38.742188 30.03125 38.761719 29.9375 38.824219 29.921875 Z M 38.824219 29.921875 " fill-opacity="1" fill-rule="nonzero"/><path fill="#020202" d="M 41.832031 29.925781 C 41.894531 29.875 41.996094 29.960938 41.957031 30.035156 C 41.929688 30.109375 41.816406 30.101562 41.792969 30.03125 C 41.769531 29.996094 41.796875 29.945312 41.832031 29.925781 Z M 41.832031 29.925781 " fill-opacity="1" fill-rule="nonzero"/><path fill="#020202" d="M 39.355469 30.03125 C 39.410156 30.011719 39.484375 30.046875 39.480469 30.109375 C 39.480469 30.183594 39.386719 30.226562 39.332031 30.183594 C 39.277344 30.144531 39.292969 30.042969 39.355469 30.03125 Z M 39.355469 30.03125 " fill-opacity="1" fill-rule="nonzero"/><path fill="#020202" d="M 40.195312 30.027344 C 40.25 29.996094 40.332031 30.042969 40.320312 30.109375 C 40.320312 30.167969 40.246094 30.207031 40.195312 30.175781 C 40.132812 30.15625 40.128906 30.046875 40.195312 30.027344 Z M 40.195312 30.027344 " fill-opacity="1" fill-rule="nonzero"/><path fill="#020202" d="M 41.386719 30.363281 C 41.441406 30.324219 41.527344 30.375 41.519531 30.441406 C 41.523438 30.519531 41.414062 30.5625 41.363281 30.503906 C 41.320312 30.464844 41.339844 30.390625 41.386719 30.363281 Z M 41.386719 30.363281 " fill-opacity="1" fill-rule="nonzero"/><g clip-path="url(#9b0ef9327c)"><path fill="#020202" d="M 38.753906 30.535156 C 39.402344 30.535156 40.054688 30.519531 40.707031 30.523438 C 40.753906 30.535156 40.78125 30.589844 40.820312 30.625 C 40.921875 30.734375 41.039062 30.824219 41.132812 30.945312 C 41.09375 30.964844 41.066406 30.996094 41.046875 31.03125 C 40.941406 31.023438 40.835938 31.03125 40.730469 31.027344 C 40.585938 30.914062 40.472656 30.761719 40.328125 30.652344 C 39.855469 30.652344 39.382812 30.652344 38.910156 30.65625 C 38.910156 30.792969 38.910156 30.933594 38.910156 31.070312 C 38.859375 31.121094 38.792969 31.15625 38.746094 31.21875 C 38.742188 31.324219 38.738281 31.4375 38.75 31.542969 C 38.847656 31.632812 38.945312 31.726562 39.042969 31.820312 C 39.121094 31.875 39.078125 31.980469 39.085938 32.0625 C 39.03125 32.03125 38.992188 31.980469 38.949219 31.9375 C 38.847656 31.828125 38.738281 31.730469 38.632812 31.628906 C 38.617188 31.613281 38.597656 31.597656 38.597656 31.574219 C 38.597656 31.390625 38.605469 31.214844 38.601562 31.03125 C 38.605469 31.003906 38.597656 30.976562 38.609375 30.953125 C 38.652344 30.90625 38.710938 30.875 38.753906 30.820312 C 38.761719 30.726562 38.75 30.628906 38.753906 30.535156 Z M 38.753906 30.535156 " fill-opacity="1" fill-rule="nonzero"/></g><path fill="#020202" d="M 41.125 31.003906 C 41.175781 30.972656 41.261719 31.003906 41.269531 31.070312 C 41.28125 31.125 41.226562 31.175781 41.171875 31.164062 C 41.101562 31.164062 41.0625 31.046875 41.125 31.003906 Z M 41.125 31.003906 " fill-opacity="1" fill-rule="nonzero"/><path fill="#020202" d="M 40.78125 31.371094 C 40.839844 31.34375 40.90625 31.402344 40.890625 31.464844 C 40.882812 31.539062 40.765625 31.5625 40.734375 31.496094 C 40.703125 31.449219 40.730469 31.382812 40.78125 31.371094 Z M 40.78125 31.371094 " fill-opacity="1" fill-rule="nonzero"/><path fill="#020202" d="M 40.199219 31.46875 C 40.253906 31.433594 40.328125 31.492188 40.320312 31.554688 C 40.324219 31.644531 40.1875 31.660156 40.15625 31.585938 C 40.128906 31.542969 40.160156 31.492188 40.199219 31.46875 Z M 40.199219 31.46875 " fill-opacity="1" fill-rule="nonzero"/><path fill="#020202" d="M 39.683594 31.542969 C 39.746094 31.5 39.832031 31.570312 39.8125 31.640625 C 39.800781 31.699219 39.726562 31.726562 39.679688 31.695312 C 39.625 31.660156 39.636719 31.574219 39.683594 31.542969 Z M 39.683594 31.542969 " fill-opacity="1" fill-rule="nonzero"/><g clip-path="url(#0242ce50a3)"><path fill="#020202" d="M 38.121094 31.890625 C 38.183594 31.871094 38.253906 31.941406 38.230469 32.003906 C 38.210938 32.070312 38.101562 32.09375 38.0625 32.023438 C 38.03125 31.972656 38.070312 31.90625 38.121094 31.890625 Z M 38.121094 31.890625 " fill-opacity="1" fill-rule="nonzero"/></g><g clip-path="url(#d7d66acc07)"><path fill="#020202" d="M 39.476562 31.945312 C 39.535156 31.914062 39.613281 31.960938 39.605469 32.027344 C 39.601562 32.09375 39.515625 32.128906 39.464844 32.085938 C 39.414062 32.054688 39.421875 31.964844 39.476562 31.945312 Z M 39.476562 31.945312 " fill-opacity="1" fill-rule="nonzero"/></g><g clip-path="url(#12d9401ac7)"><path fill="#020202" d="M 39.066406 32.117188 C 39.117188 32.085938 39.195312 32.132812 39.183594 32.199219 C 39.183594 32.269531 39.089844 32.304688 39.039062 32.253906 C 38.996094 32.214844 39.007812 32.132812 39.066406 32.117188 Z M 39.066406 32.117188 " fill-opacity="1" fill-rule="nonzero"/></g><g clip-path="url(#11c33168a4)"><path fill="#020202" d="M 38.519531 32.136719 C 38.558594 32.109375 38.625 32.117188 38.652344 32.164062 C 38.6875 32.226562 38.617188 32.316406 38.546875 32.289062 C 38.480469 32.277344 38.453125 32.171875 38.519531 32.136719 Z M 38.519531 32.136719 " fill-opacity="1" fill-rule="nonzero"/></g><g transform="matrix(1, 0, 0, 1, 1, 26)"><g clip-path="url(#6bde9a1d5e)"><g fill="#7a2fcd" fill-opacity="1"><g transform="translate(0.665444, 17.469698)"><g><path d="M 6.21875 0.15625 C 5.164062 0.15625 4.238281 -0.0546875 3.4375 -0.484375 C 2.644531 -0.921875 2.019531 -1.578125 1.5625 -2.453125 C 1.113281 -3.328125 0.890625 -4.40625 0.890625 -5.6875 C 0.890625 -6.96875 1.113281 -8.039062 1.5625 -8.90625 C 2.019531 -9.78125 2.644531 -10.4375 3.4375 -10.875 C 4.238281 -11.3125 5.164062 -11.53125 6.21875 -11.53125 C 7.3125 -11.53125 8.238281 -11.316406 9 -10.890625 C 9.757812 -10.460938 10.304688 -9.8125 10.640625 -8.9375 L 9 -7.9375 L 8.796875 -7.9375 C 8.554688 -8.53125 8.226562 -8.953125 7.8125 -9.203125 C 7.394531 -9.460938 6.863281 -9.59375 6.21875 -9.59375 C 5.269531 -9.59375 4.53125 -9.28125 4 -8.65625 C 3.46875 -8.03125 3.203125 -7.039062 3.203125 -5.6875 C 3.203125 -4.332031 3.46875 -3.34375 4 -2.71875 C 4.53125 -2.09375 5.269531 -1.78125 6.21875 -1.78125 C 7.6875 -1.78125 8.585938 -2.5 8.921875 -3.9375 L 9.125 -3.9375 L 10.78125 -3.078125 C 10.46875 -1.992188 9.929688 -1.179688 9.171875 -0.640625 C 8.421875 -0.109375 7.4375 0.15625 6.21875 0.15625 Z M 6.21875 0.15625 "/></g></g></g><g fill="#7a2fcd" fill-opacity="1"><g transform="translate(11.810908, 17.469698)"><g><path d="M 4.984375 0.15625 C 4.140625 0.15625 3.398438 -0.015625 2.765625 -0.359375 C 2.128906 -0.703125 1.632812 -1.207031 1.28125 -1.875 C 0.9375 -2.539062 0.765625 -3.34375 0.765625 -4.28125 C 0.765625 -5.226562 0.9375 -6.035156 1.28125 -6.703125 C 1.632812 -7.367188 2.128906 -7.875 2.765625 -8.21875 C 3.398438 -8.5625 4.140625 -8.734375 4.984375 -8.734375 C 5.828125 -8.734375 6.5625 -8.5625 7.1875 -8.21875 C 7.820312 -7.875 8.316406 -7.367188 8.671875 -6.703125 C 9.023438 -6.035156 9.203125 -5.226562 9.203125 -4.28125 C 9.203125 -3.34375 9.023438 -2.539062 8.671875 -1.875 C 8.316406 -1.207031 7.820312 -0.703125 7.1875 -0.359375 C 6.5625 -0.015625 5.828125 0.15625 4.984375 0.15625 Z M 4.984375 -1.65625 C 6.316406 -1.65625 6.984375 -2.53125 6.984375 -4.28125 C 6.984375 -5.1875 6.8125 -5.847656 6.46875 -6.265625 C 6.125 -6.691406 5.628906 -6.90625 4.984375 -6.90625 C 3.648438 -6.90625 2.984375 -6.03125 2.984375 -4.28125 C 2.984375 -2.53125 3.648438 -1.65625 4.984375 -1.65625 Z M 4.984375 -1.65625 "/></g></g></g><g fill="#7a2fcd" fill-opacity="1"><g transform="translate(21.712806, 17.469698)"><g><path d="M 4.453125 3.640625 C 3.035156 3.640625 1.988281 3.429688 1.3125 3.015625 C 0.632812 2.597656 0.296875 2.019531 0.296875 1.28125 C 0.296875 0.832031 0.441406 0.460938 0.734375 0.171875 C 1.023438 -0.109375 1.4375 -0.300781 1.96875 -0.40625 L 1.96875 -0.5625 C 1.6875 -0.738281 1.476562 -0.9375 1.34375 -1.15625 C 1.21875 -1.375 1.15625 -1.625 1.15625 -1.90625 C 1.15625 -2.59375 1.601562 -3.054688 2.5 -3.296875 L 2.5 -3.453125 C 2.039062 -3.722656 1.691406 -4.050781 1.453125 -4.4375 C 1.222656 -4.832031 1.109375 -5.304688 1.109375 -5.859375 C 1.109375 -6.429688 1.238281 -6.929688 1.5 -7.359375 C 1.757812 -7.796875 2.140625 -8.132812 2.640625 -8.375 C 3.148438 -8.613281 3.757812 -8.734375 4.46875 -8.734375 C 5.1875 -8.734375 5.757812 -8.609375 6.1875 -8.359375 C 6.445312 -8.742188 6.597656 -9.1875 6.640625 -9.6875 L 6.796875 -9.796875 L 8.34375 -9.421875 C 8.300781 -9.003906 8.179688 -8.65625 7.984375 -8.375 C 7.796875 -8.101562 7.5 -7.859375 7.09375 -7.640625 L 7.09375 -7.46875 C 7.582031 -7.039062 7.828125 -6.445312 7.828125 -5.6875 C 7.828125 -5.15625 7.691406 -4.679688 7.421875 -4.265625 C 7.160156 -3.847656 6.773438 -3.515625 6.265625 -3.265625 C 5.765625 -3.023438 5.164062 -2.90625 4.46875 -2.90625 L 4.140625 -2.921875 C 3.929688 -2.929688 3.785156 -2.9375 3.703125 -2.9375 C 3.503906 -2.9375 3.347656 -2.878906 3.234375 -2.765625 C 3.128906 -2.660156 3.078125 -2.523438 3.078125 -2.359375 C 3.078125 -2.179688 3.148438 -2.039062 3.296875 -1.9375 C 3.441406 -1.832031 3.65625 -1.773438 3.9375 -1.765625 L 5.859375 -1.703125 C 7.753906 -1.640625 8.703125 -0.820312 8.703125 0.75 C 8.703125 1.300781 8.5625 1.789062 8.28125 2.21875 C 8 2.65625 7.539062 3 6.90625 3.25 C 6.269531 3.507812 5.453125 3.640625 4.453125 3.640625 Z M 4.46875 -4.421875 C 4.882812 -4.421875 5.207031 -4.539062 5.4375 -4.78125 C 5.675781 -5.019531 5.796875 -5.367188 5.796875 -5.828125 C 5.796875 -6.273438 5.675781 -6.617188 5.4375 -6.859375 C 5.207031 -7.097656 4.882812 -7.21875 4.46875 -7.21875 C 4.050781 -7.21875 3.726562 -7.097656 3.5 -6.859375 C 3.269531 -6.617188 3.15625 -6.273438 3.15625 -5.828125 C 3.15625 -5.367188 3.269531 -5.019531 3.5 -4.78125 C 3.726562 -4.539062 4.050781 -4.421875 4.46875 -4.421875 Z M 4.453125 2.078125 C 5.179688 2.078125 5.710938 1.972656 6.046875 1.765625 C 6.378906 1.554688 6.546875 1.285156 6.546875 0.953125 C 6.546875 0.679688 6.460938 0.484375 6.296875 0.359375 C 6.128906 0.234375 5.859375 0.164062 5.484375 0.15625 L 3.78125 0.078125 C 3.726562 0.078125 3.675781 0.0703125 3.625 0.0625 C 3.570312 0.0625 3.523438 0.0625 3.484375 0.0625 C 3.117188 0.0625 2.84375 0.140625 2.65625 0.296875 C 2.46875 0.453125 2.375 0.664062 2.375 0.9375 C 2.375 1.300781 2.546875 1.582031 2.890625 1.78125 C 3.234375 1.976562 3.753906 2.078125 4.453125 2.078125 Z M 4.453125 2.078125 "/></g></g></g><g fill="#7a2fcd" fill-opacity="1"><g transform="translate(30.627625, 17.469698)"><g><path d="M 1.234375 0 L 1.234375 -8.578125 L 3.296875 -8.578125 L 3.296875 -7.3125 L 3.46875 -7.28125 C 4 -8.25 4.863281 -8.734375 6.0625 -8.734375 C 7.050781 -8.734375 7.773438 -8.460938 8.234375 -7.921875 C 8.703125 -7.390625 8.9375 -6.609375 8.9375 -5.578125 L 8.9375 0 L 6.78125 0 L 6.78125 -5.3125 C 6.78125 -5.882812 6.664062 -6.296875 6.4375 -6.546875 C 6.21875 -6.796875 5.851562 -6.921875 5.34375 -6.921875 C 4.726562 -6.921875 4.25 -6.71875 3.90625 -6.3125 C 3.5625 -5.914062 3.390625 -5.289062 3.390625 -4.4375 L 3.390625 0 Z M 1.234375 0 "/></g></g></g><g fill="#7a2fcd" fill-opacity="1"><g transform="translate(40.669424, 17.469698)"><g><path d="M 2.3125 -9.59375 C 1.914062 -9.59375 1.597656 -9.710938 1.359375 -9.953125 C 1.117188 -10.191406 1 -10.5 1 -10.875 C 1 -11.238281 1.117188 -11.535156 1.359375 -11.765625 C 1.597656 -12.003906 1.914062 -12.125 2.3125 -12.125 C 2.570312 -12.125 2.800781 -12.066406 3 -11.953125 C 3.195312 -11.847656 3.351562 -11.703125 3.46875 -11.515625 C 3.582031 -11.328125 3.640625 -11.113281 3.640625 -10.875 C 3.640625 -10.625 3.582031 -10.398438 3.46875 -10.203125 C 3.351562 -10.015625 3.195312 -9.863281 3 -9.75 C 2.800781 -9.644531 2.570312 -9.59375 2.3125 -9.59375 Z M 1.234375 0 L 1.234375 -8.578125 L 3.390625 -8.578125 L 3.390625 0 Z M 1.234375 0 "/></g></g></g><g fill="#7a2fcd" fill-opacity="1"><g transform="translate(45.286165, 17.469698)"><g><path d="M 5.90625 0 L 3.328125 0 L 0.15625 -8.578125 L 2.421875 -8.578125 L 4.546875 -2.46875 L 4.734375 -2.46875 L 6.859375 -8.578125 L 9.0625 -8.578125 Z M 5.90625 0 "/></g></g></g><g fill="#7a2fcd" fill-opacity="1"><g transform="translate(54.504101, 17.469698)"><g><path d="M 3.921875 0.15625 C 2.960938 0.15625 2.253906 -0.101562 1.796875 -0.625 C 1.335938 -1.15625 1.109375 -1.910156 1.109375 -2.890625 L 1.109375 -8.578125 L 3.25 -8.578125 L 3.25 -3.171875 C 3.25 -2.640625 3.363281 -2.253906 3.59375 -2.015625 C 3.820312 -1.773438 4.171875 -1.65625 4.640625 -1.65625 C 5.234375 -1.65625 5.695312 -1.847656 6.03125 -2.234375 C 6.363281 -2.628906 6.53125 -3.25 6.53125 -4.09375 L 6.53125 -8.578125 L 8.6875 -8.578125 L 8.6875 0 L 6.609375 0 L 6.609375 -1.265625 L 6.453125 -1.296875 C 6.179688 -0.804688 5.84375 -0.441406 5.4375 -0.203125 C 5.039062 0.0351562 4.535156 0.15625 3.921875 0.15625 Z M 3.921875 0.15625 "/></g></g></g><g fill="#7a2fcd" fill-opacity="1"><g transform="translate(64.421543, 17.469698)"><g><path d="M 4.015625 0.15625 C 3.429688 0.15625 2.894531 0.0859375 2.40625 -0.046875 C 1.914062 -0.179688 1.5 -0.367188 1.15625 -0.609375 C 0.8125 -0.847656 0.554688 -1.125 0.390625 -1.4375 L 1.59375 -2.734375 L 1.75 -2.734375 C 2.03125 -2.347656 2.363281 -2.054688 2.75 -1.859375 C 3.144531 -1.671875 3.570312 -1.578125 4.03125 -1.578125 C 4.445312 -1.578125 4.757812 -1.648438 4.96875 -1.796875 C 5.1875 -1.953125 5.296875 -2.171875 5.296875 -2.453125 C 5.296875 -2.671875 5.21875 -2.851562 5.0625 -3 C 4.90625 -3.144531 4.660156 -3.257812 4.328125 -3.34375 L 3.1875 -3.609375 C 2.332031 -3.816406 1.707031 -4.128906 1.3125 -4.546875 C 0.925781 -4.960938 0.734375 -5.492188 0.734375 -6.140625 C 0.734375 -6.671875 0.867188 -7.128906 1.140625 -7.515625 C 1.421875 -7.910156 1.804688 -8.210938 2.296875 -8.421875 C 2.796875 -8.628906 3.375 -8.734375 4.03125 -8.734375 C 4.800781 -8.734375 5.4375 -8.617188 5.9375 -8.390625 C 6.445312 -8.171875 6.847656 -7.878906 7.140625 -7.515625 L 5.984375 -6.265625 L 5.828125 -6.265625 C 5.585938 -6.535156 5.316406 -6.734375 5.015625 -6.859375 C 4.722656 -6.984375 4.394531 -7.046875 4.03125 -7.046875 C 3.175781 -7.046875 2.75 -6.78125 2.75 -6.25 C 2.75 -6.03125 2.828125 -5.847656 2.984375 -5.703125 C 3.140625 -5.566406 3.421875 -5.453125 3.828125 -5.359375 L 4.875 -5.125 C 5.75 -4.9375 6.382812 -4.632812 6.78125 -4.21875 C 7.1875 -3.8125 7.390625 -3.265625 7.390625 -2.578125 C 7.390625 -2.023438 7.253906 -1.539062 6.984375 -1.125 C 6.710938 -0.71875 6.320312 -0.398438 5.8125 -0.171875 C 5.3125 0.046875 4.710938 0.15625 4.015625 0.15625 Z M 4.015625 0.15625 "/></g></g></g></g></g></svg>