<svg xmlns="http://www.w3.org/2000/svg" xmlns:xlink="http://www.w3.org/1999/xlink" width="100" zoomAndPan="magnify" viewBox="0 0 75 74.999997" height="100" preserveAspectRatio="xMidYMid meet" version="1.0"><defs><g/><clipPath id="9dd114d6d8"><path d="M 34.03125 25.652344 L 38 25.652344 L 38 33.152344 L 34.03125 33.152344 Z M 34.03125 25.652344 " clip-rule="nonzero"/></clipPath><clipPath id="e4f7121089"><path d="M 37 25.652344 L 40.78125 25.652344 L 40.78125 33.152344 L 37 33.152344 Z M 37 25.652344 " clip-rule="nonzero"/></clipPath><clipPath id="2433c25f85"><path d="M 38 25.652344 L 39 25.652344 L 39 27 L 38 27 Z M 38 25.652344 " clip-rule="nonzero"/></clipPath><clipPath id="a4fb301ef0"><path d="M 35 25.652344 L 37 25.652344 L 37 29 L 35 29 Z M 35 25.652344 " clip-rule="nonzero"/></clipPath><clipPath id="9618cba65d"><path d="M 40 28 L 40.78125 28 L 40.78125 29 L 40 29 Z M 40 28 " clip-rule="nonzero"/></clipPath><clipPath id="d32f19aa01"><path d="M 40 28 L 40.78125 28 L 40.78125 29 L 40 29 Z M 40 28 " clip-rule="nonzero"/></clipPath><clipPath id="a55052468e"><path d="M 40 28 L 40.78125 28 L 40.78125 29 L 40 29 Z M 40 28 " clip-rule="nonzero"/></clipPath><clipPath id="cdaf1b9e05"><path d="M 34.03125 28 L 36 28 L 36 30 L 34.03125 30 Z M 34.03125 28 " clip-rule="nonzero"/></clipPath><clipPath id="5a6670787a"><path d="M 40 28 L 40.78125 28 L 40.78125 30 L 40 30 Z M 40 28 " clip-rule="nonzero"/></clipPath><clipPath id="de799a8158"><path d="M 40 29 L 40.78125 29 L 40.78125 30 L 40 30 Z M 40 29 " clip-rule="nonzero"/></clipPath><clipPath id="73efe8dcd3"><path d="M 34.03125 29 L 37 29 L 37 33 L 34.03125 33 Z M 34.03125 29 " clip-rule="nonzero"/></clipPath><clipPath id="52b86cc3f2"><path d="M 40 29 L 40.78125 29 L 40.78125 30 L 40 30 Z M 40 29 " clip-rule="nonzero"/></clipPath><clipPath id="b9d6821e47"><path d="M 40 29 L 40.78125 29 L 40.78125 31 L 40 31 Z M 40 29 " clip-rule="nonzero"/></clipPath><clipPath id="8d2fdfcbbe"><path d="M 40 30 L 40.78125 30 L 40.78125 31 L 40 31 Z M 40 30 " clip-rule="nonzero"/></clipPath><clipPath id="7d80e91a00"><path d="M 40 30 L 40.78125 30 L 40.78125 31 L 40 31 Z M 40 30 " clip-rule="nonzero"/></clipPath><clipPath id="5653b18a90"><path d="M 40 30 L 40.78125 30 L 40.78125 31 L 40 31 Z M 40 30 " clip-rule="nonzero"/></clipPath><clipPath id="3374f270a5"><path d="M 40 31 L 40.78125 31 L 40.78125 32 L 40 32 Z M 40 31 " clip-rule="nonzero"/></clipPath><clipPath id="f70c3c884c"><path d="M 39 31 L 40.78125 31 L 40.78125 32 L 39 32 Z M 39 31 " clip-rule="nonzero"/></clipPath><clipPath id="ed2c85bf13"><path d="M 56 8 L 62.878906 8 L 62.878906 16 L 56 16 Z M 56 8 " clip-rule="nonzero"/></clipPath><clipPath id="c30e899ced"><rect x="0" width="63" y="0" height="21"/></clipPath></defs><rect x="-7.5" width="90" fill="#ffffff" y="-7.5" height="89.999996" fill-opacity="1"/><rect x="-7.5" width="90" fill="#ffffff" y="-7.5" height="89.999996" fill-opacity="1"/><g clip-path="url(#9dd114d6d8)"><path fill="#020202" d="M 36.328125 25.785156 C 36.496094 25.683594 36.703125 25.652344 36.890625 25.707031 C 37.0625 25.75 37.207031 25.894531 37.261719 26.070312 C 37.320312 26.238281 37.296875 26.425781 37.25 26.59375 C 37.242188 26.621094 37.25 26.644531 37.253906 26.667969 C 37.277344 26.824219 37.257812 26.984375 37.226562 27.140625 C 37.210938 27.210938 37.199219 27.28125 37.171875 27.347656 C 37.28125 27.503906 37.320312 27.703125 37.300781 27.894531 C 37.285156 28.070312 37.238281 28.242188 37.167969 28.402344 C 37.320312 28.660156 37.324219 28.992188 37.230469 29.277344 C 37.207031 29.332031 37.238281 29.390625 37.242188 29.445312 C 37.285156 29.707031 37.257812 29.988281 37.125 30.21875 C 37.285156 30.507812 37.320312 30.863281 37.242188 31.183594 C 37.347656 31.4375 37.316406 31.730469 37.21875 31.980469 C 37.207031 32 37.222656 32.023438 37.230469 32.046875 C 37.308594 32.242188 37.316406 32.46875 37.238281 32.664062 C 37.167969 32.863281 37.011719 33.035156 36.820312 33.109375 C 36.710938 33.152344 36.585938 33.132812 36.476562 33.101562 C 36.179688 33.023438 35.90625 32.835938 35.742188 32.566406 C 35.558594 32.597656 35.367188 32.582031 35.195312 32.492188 C 34.886719 32.339844 34.660156 31.992188 34.660156 31.625 C 34.660156 31.609375 34.640625 31.605469 34.632812 31.601562 C 34.492188 31.542969 34.378906 31.421875 34.328125 31.273438 C 34.277344 31.132812 34.265625 30.972656 34.292969 30.824219 C 34.164062 30.714844 34.085938 30.550781 34.0625 30.382812 C 34.03125 30.1875 34.058594 29.980469 34.128906 29.796875 C 34.085938 29.667969 34.058594 29.535156 34.054688 29.402344 C 34.046875 29.183594 34.082031 28.953125 34.191406 28.761719 C 34.238281 28.691406 34.292969 28.628906 34.355469 28.570312 C 34.328125 28.347656 34.351562 28.117188 34.421875 27.902344 C 34.496094 27.695312 34.621094 27.496094 34.804688 27.390625 C 34.804688 27.261719 34.835938 27.125 34.917969 27.027344 C 34.980469 26.945312 35.082031 26.898438 35.183594 26.894531 C 35.199219 26.675781 35.273438 26.460938 35.414062 26.296875 C 35.496094 26.191406 35.605469 26.113281 35.730469 26.082031 C 35.835938 26.058594 35.949219 26.078125 36.035156 26.140625 C 36.089844 25.992188 36.191406 25.859375 36.328125 25.785156 Z M 36.355469 25.894531 C 36.234375 25.96875 36.148438 26.097656 36.113281 26.238281 C 36.167969 26.316406 36.199219 26.417969 36.1875 26.515625 C 36.160156 26.5 36.144531 26.46875 36.125 26.445312 C 36.070312 26.363281 36.015625 26.277344 35.933594 26.230469 C 35.878906 26.195312 35.808594 26.191406 35.75 26.207031 C 35.625 26.234375 35.527344 26.328125 35.457031 26.4375 C 35.367188 26.574219 35.300781 26.742188 35.300781 26.914062 C 35.386719 26.957031 35.46875 27.015625 35.535156 27.085938 C 35.5625 27.117188 35.589844 27.148438 35.605469 27.183594 C 35.488281 27.144531 35.386719 27.0625 35.269531 27.023438 C 35.175781 26.992188 35.066406 27.027344 35.003906 27.105469 C 34.9375 27.171875 34.910156 27.269531 34.910156 27.367188 C 34.984375 27.375 35.054688 27.40625 35.109375 27.460938 C 35.167969 27.515625 35.226562 27.578125 35.242188 27.664062 C 35.234375 27.664062 35.226562 27.660156 35.21875 27.65625 C 35.140625 27.605469 35.074219 27.53125 34.988281 27.492188 C 34.9375 27.464844 34.875 27.476562 34.828125 27.511719 C 34.710938 27.59375 34.632812 27.71875 34.570312 27.84375 C 34.480469 28.050781 34.441406 28.289062 34.460938 28.515625 C 34.558594 28.476562 34.667969 28.46875 34.773438 28.476562 C 34.742188 28.371094 34.746094 28.261719 34.765625 28.152344 C 34.765625 28.140625 34.773438 28.125 34.785156 28.121094 C 34.816406 28.246094 34.824219 28.378906 34.882812 28.492188 C 35 28.539062 35.128906 28.589844 35.210938 28.695312 C 35.179688 28.695312 35.152344 28.679688 35.128906 28.667969 C 34.980469 28.601562 34.824219 28.570312 34.664062 28.582031 C 34.566406 28.589844 34.46875 28.628906 34.394531 28.695312 C 34.273438 28.804688 34.203125 28.964844 34.175781 29.128906 C 34.144531 29.347656 34.167969 29.574219 34.242188 29.777344 C 34.277344 29.882812 34.332031 29.984375 34.421875 30.050781 C 34.488281 30.109375 34.570312 30.144531 34.644531 30.191406 C 34.605469 30.214844 34.558594 30.195312 34.519531 30.191406 C 34.382812 30.152344 34.269531 30.054688 34.199219 29.925781 C 34.15625 30.074219 34.144531 30.234375 34.167969 30.386719 C 34.191406 30.523438 34.25 30.660156 34.359375 30.742188 C 34.464844 30.824219 34.601562 30.832031 34.726562 30.792969 C 34.71875 30.671875 34.796875 30.550781 34.910156 30.527344 C 34.875 30.597656 34.820312 30.664062 34.8125 30.75 C 34.804688 30.925781 34.886719 31.097656 35.007812 31.21875 C 34.960938 31.21875 34.917969 31.191406 34.878906 31.160156 C 34.796875 31.089844 34.753906 30.980469 34.730469 30.871094 C 34.625 30.925781 34.5 30.917969 34.390625 30.878906 C 34.371094 31.019531 34.386719 31.175781 34.457031 31.300781 C 34.53125 31.429688 34.664062 31.515625 34.800781 31.542969 C 34.914062 31.558594 35.03125 31.554688 35.132812 31.5 C 35.171875 31.480469 35.203125 31.445312 35.246094 31.425781 C 35.230469 31.484375 35.183594 31.53125 35.140625 31.566406 C 35.035156 31.648438 34.890625 31.660156 34.765625 31.636719 C 34.773438 31.867188 34.882812 32.085938 35.042969 32.242188 C 35.167969 32.367188 35.335938 32.449219 35.511719 32.460938 C 35.601562 32.464844 35.695312 32.46875 35.777344 32.425781 C 35.839844 32.398438 35.882812 32.335938 35.894531 32.269531 C 35.867188 32.203125 35.820312 32.140625 35.8125 32.066406 C 35.859375 32.09375 35.882812 32.144531 35.921875 32.183594 C 36.039062 32.324219 36.179688 32.445312 36.339844 32.523438 C 36.394531 32.550781 36.457031 32.566406 36.511719 32.597656 C 36.472656 32.613281 36.425781 32.605469 36.382812 32.601562 C 36.222656 32.578125 36.082031 32.480469 35.96875 32.363281 C 35.949219 32.429688 35.894531 32.472656 35.847656 32.511719 C 35.964844 32.703125 36.144531 32.839844 36.339844 32.925781 C 36.464844 32.980469 36.597656 33.027344 36.730469 33.003906 C 36.855469 32.976562 36.964844 32.882812 37.042969 32.78125 C 37.167969 32.609375 37.210938 32.378906 37.15625 32.175781 C 37.125 32.042969 37.046875 31.917969 36.929688 31.851562 C 36.902344 31.832031 36.867188 31.824219 36.839844 31.800781 C 36.945312 31.777344 37.050781 31.820312 37.125 31.898438 C 37.195312 31.710938 37.230469 31.5 37.175781 31.300781 C 37.125 31.394531 37.035156 31.46875 36.929688 31.484375 C 36.773438 31.511719 36.609375 31.460938 36.476562 31.363281 C 36.441406 31.335938 36.398438 31.308594 36.378906 31.261719 C 36.394531 31.261719 36.414062 31.261719 36.429688 31.273438 C 36.550781 31.316406 36.671875 31.359375 36.800781 31.375 C 36.871094 31.382812 36.949219 31.382812 37.007812 31.335938 C 37.078125 31.285156 37.117188 31.199219 37.140625 31.117188 C 37.207031 30.855469 37.171875 30.566406 37.050781 30.332031 C 36.960938 30.164062 36.832031 30.015625 36.675781 29.921875 C 36.539062 29.839844 36.386719 29.792969 36.234375 29.75 C 36.203125 29.742188 36.167969 29.738281 36.144531 29.710938 C 36.214844 29.699219 36.289062 29.703125 36.359375 29.707031 C 36.3125 29.597656 36.277344 29.476562 36.289062 29.355469 C 36.300781 29.367188 36.308594 29.378906 36.316406 29.398438 C 36.359375 29.515625 36.414062 29.625 36.488281 29.722656 C 36.59375 29.753906 36.695312 29.800781 36.785156 29.863281 C 36.886719 29.933594 36.972656 30.027344 37.050781 30.125 C 37.15625 29.910156 37.175781 29.664062 37.140625 29.429688 C 37.097656 29.5 37.046875 29.582031 36.964844 29.597656 C 36.984375 29.539062 37.019531 29.492188 37.042969 29.4375 C 37.160156 29.207031 37.214844 28.925781 37.152344 28.667969 C 37.117188 28.550781 37.066406 28.421875 36.964844 28.351562 C 36.925781 28.320312 36.875 28.3125 36.828125 28.304688 C 36.902344 28.246094 37.011719 28.261719 37.085938 28.3125 C 37.144531 28.164062 37.183594 28.003906 37.195312 27.839844 C 37.210938 27.652344 37.140625 27.457031 37.007812 27.328125 C 36.914062 27.230469 36.78125 27.1875 36.652344 27.195312 C 36.671875 27.167969 36.707031 27.160156 36.738281 27.152344 C 36.859375 27.128906 36.992188 27.171875 37.085938 27.257812 C 37.144531 27.015625 37.191406 26.757812 37.117188 26.515625 C 37.085938 26.40625 37.015625 26.300781 36.917969 26.246094 C 36.917969 26.21875 36.949219 26.230469 36.964844 26.226562 C 37.058594 26.226562 37.128906 26.308594 37.171875 26.390625 C 37.195312 26.265625 37.175781 26.128906 37.113281 26.019531 C 37.050781 25.914062 36.953125 25.835938 36.839844 25.808594 C 36.679688 25.769531 36.503906 25.808594 36.355469 25.894531 Z M 36.355469 25.894531 " fill-opacity="1" fill-rule="nonzero"/></g><g clip-path="url(#e4f7121089)"><path fill="#020202" d="M 37.773438 25.785156 C 37.902344 25.695312 38.0625 25.660156 38.214844 25.6875 C 38.410156 25.714844 38.589844 25.835938 38.714844 26 C 38.738281 26.027344 38.746094 26.0625 38.777344 26.082031 C 38.925781 26.054688 39.085938 26.074219 39.222656 26.152344 C 39.472656 26.292969 39.617188 26.601562 39.59375 26.894531 C 39.703125 26.898438 39.8125 26.949219 39.886719 27.035156 C 39.964844 27.128906 40.003906 27.261719 40 27.386719 C 40.183594 27.503906 40.320312 27.691406 40.382812 27.902344 C 40.445312 28.117188 40.460938 28.34375 40.410156 28.558594 C 40.550781 28.644531 40.648438 28.796875 40.699219 28.957031 C 40.777344 29.21875 40.769531 29.511719 40.6875 29.777344 C 40.683594 29.792969 40.675781 29.808594 40.683594 29.828125 C 40.75 30.019531 40.769531 30.230469 40.726562 30.429688 C 40.691406 30.574219 40.621094 30.707031 40.507812 30.796875 C 40.539062 30.980469 40.523438 31.179688 40.4375 31.347656 C 40.378906 31.460938 40.277344 31.539062 40.167969 31.578125 C 40.167969 31.746094 40.128906 31.917969 40.046875 32.0625 C 39.957031 32.222656 39.824219 32.355469 39.671875 32.449219 C 39.484375 32.570312 39.25 32.621094 39.03125 32.570312 C 39 32.652344 38.945312 32.71875 38.882812 32.777344 C 38.757812 32.902344 38.605469 32.980469 38.449219 33.046875 C 38.304688 33.105469 38.140625 33.144531 37.988281 33.097656 C 37.8125 33.046875 37.679688 32.894531 37.605469 32.726562 C 37.523438 32.558594 37.511719 32.363281 37.507812 32.175781 C 37.503906 31.875 37.507812 31.570312 37.503906 31.269531 C 37.507812 30.929688 37.503906 30.589844 37.503906 30.246094 C 37.507812 29.996094 37.496094 29.746094 37.535156 29.5 C 37.550781 29.417969 37.570312 29.335938 37.589844 29.257812 C 37.527344 29.085938 37.507812 28.898438 37.503906 28.710938 C 37.5 28.488281 37.5 28.261719 37.503906 28.039062 C 37.5 27.828125 37.507812 27.609375 37.589844 27.414062 C 37.601562 27.394531 37.585938 27.378906 37.582031 27.359375 C 37.542969 27.265625 37.53125 27.160156 37.519531 27.058594 C 37.503906 26.914062 37.503906 26.765625 37.503906 26.621094 C 37.503906 26.464844 37.503906 26.304688 37.53125 26.152344 C 37.5625 26.003906 37.648438 25.867188 37.773438 25.785156 Z M 38.152344 25.996094 C 38.136719 26.050781 38.167969 26.105469 38.21875 26.113281 C 38.21875 26.179688 38.21875 26.242188 38.21875 26.308594 C 38.132812 26.398438 38.050781 26.484375 37.960938 26.566406 C 37.960938 26.792969 37.964844 27.023438 37.957031 27.25 C 38.039062 27.328125 38.121094 27.40625 38.199219 27.484375 C 38.214844 27.496094 38.214844 27.523438 38.214844 27.542969 C 38.21875 27.792969 38.21875 28.042969 38.214844 28.296875 C 38.089844 28.40625 37.980469 28.539062 37.855469 28.652344 C 37.851562 28.75 37.851562 28.847656 37.851562 28.949219 C 37.851562 29.28125 37.851562 29.613281 37.851562 29.945312 C 37.882812 29.980469 37.917969 30.007812 37.949219 30.042969 C 37.976562 30.066406 37.996094 30.097656 38.027344 30.113281 C 38.25 30.113281 38.476562 30.113281 38.699219 30.113281 C 38.722656 30.113281 38.746094 30.109375 38.761719 30.128906 C 38.871094 30.25 38.992188 30.359375 39.105469 30.476562 C 39.164062 30.488281 39.230469 30.476562 39.292969 30.484375 C 39.355469 30.539062 39.417969 30.597656 39.472656 30.664062 C 39.53125 30.664062 39.59375 30.660156 39.652344 30.664062 C 39.710938 30.710938 39.761719 30.769531 39.8125 30.820312 C 39.808594 30.851562 39.800781 30.886719 39.8125 30.914062 C 39.835938 30.96875 39.914062 30.984375 39.953125 30.941406 C 39.996094 30.898438 39.976562 30.816406 39.921875 30.792969 C 39.894531 30.777344 39.863281 30.789062 39.839844 30.804688 C 39.78125 30.746094 39.730469 30.683594 39.667969 30.632812 C 39.609375 30.628906 39.546875 30.628906 39.484375 30.628906 C 39.425781 30.566406 39.367188 30.503906 39.300781 30.453125 C 39.242188 30.445312 39.179688 30.460938 39.121094 30.445312 C 39.003906 30.332031 38.890625 30.21875 38.777344 30.097656 C 38.761719 30.082031 38.742188 30.085938 38.722656 30.082031 C 38.496094 30.085938 38.269531 30.085938 38.039062 30.085938 C 37.984375 30.035156 37.9375 29.984375 37.882812 29.933594 C 37.878906 29.511719 37.882812 29.089844 37.882812 28.667969 C 38.011719 28.554688 38.121094 28.421875 38.246094 28.304688 C 38.242188 28.035156 38.25 27.761719 38.242188 27.488281 C 38.164062 27.402344 38.074219 27.324219 37.992188 27.238281 C 37.992188 27.023438 37.992188 26.804688 37.992188 26.589844 C 38.011719 26.558594 38.039062 26.535156 38.066406 26.511719 C 38.121094 26.457031 38.167969 26.398438 38.226562 26.34375 C 38.234375 26.335938 38.25 26.324219 38.246094 26.308594 C 38.25 26.242188 38.25 26.179688 38.25 26.113281 C 38.269531 26.109375 38.289062 26.105469 38.304688 26.089844 C 38.339844 26.050781 38.335938 25.972656 38.285156 25.945312 C 38.238281 25.914062 38.167969 25.9375 38.152344 25.996094 Z M 37.914062 26.0625 C 37.859375 26.105469 37.878906 26.214844 37.949219 26.222656 C 37.949219 26.289062 37.953125 26.355469 37.945312 26.421875 C 37.914062 26.457031 37.878906 26.488281 37.847656 26.519531 C 37.847656 26.777344 37.84375 27.03125 37.847656 27.285156 C 37.933594 27.371094 38.019531 27.457031 38.109375 27.542969 C 38.109375 27.792969 38.109375 28.042969 38.109375 28.296875 C 38.117188 28.296875 38.128906 28.292969 38.136719 28.292969 C 38.140625 28.191406 38.132812 28.085938 38.136719 27.984375 C 38.132812 27.835938 38.136719 27.683594 38.136719 27.53125 C 38.050781 27.445312 37.960938 27.363281 37.878906 27.269531 C 37.875 27.03125 37.875 26.789062 37.875 26.546875 C 37.902344 26.496094 37.964844 26.46875 37.980469 26.414062 C 37.980469 26.351562 37.976562 26.292969 37.980469 26.230469 C 38.019531 26.21875 38.0625 26.1875 38.0625 26.136719 C 38.066406 26.058594 37.96875 26.019531 37.914062 26.0625 Z M 38.417969 26.070312 C 38.355469 26.09375 38.351562 26.199219 38.410156 26.230469 C 38.460938 26.265625 38.542969 26.226562 38.546875 26.15625 C 38.554688 26.089844 38.476562 26.035156 38.417969 26.070312 Z M 37.617188 26.167969 C 37.574219 26.214844 37.59375 26.292969 37.644531 26.324219 C 37.648438 26.671875 37.640625 27.019531 37.644531 27.367188 C 37.644531 27.382812 37.660156 27.390625 37.667969 27.402344 C 37.742188 27.46875 37.808594 27.546875 37.882812 27.617188 C 37.894531 27.632812 37.917969 27.648438 37.914062 27.671875 C 37.914062 27.878906 37.914062 28.085938 37.914062 28.296875 C 37.824219 28.382812 37.738281 28.476562 37.644531 28.5625 C 37.644531 29.050781 37.640625 29.539062 37.644531 30.027344 C 37.699219 30.089844 37.765625 30.144531 37.820312 30.207031 C 37.75 30.273438 37.6875 30.34375 37.613281 30.410156 C 37.613281 30.542969 37.609375 30.679688 37.613281 30.816406 C 37.660156 30.847656 37.695312 30.890625 37.734375 30.933594 C 37.796875 31.003906 37.867188 31.070312 37.933594 31.140625 C 37.9375 31.234375 37.933594 31.328125 37.933594 31.425781 C 37.933594 31.445312 37.9375 31.464844 37.925781 31.480469 C 37.894531 31.515625 37.859375 31.546875 37.820312 31.578125 C 37.8125 31.882812 37.820312 32.1875 37.816406 32.492188 C 37.773438 32.515625 37.730469 32.566406 37.75 32.621094 C 37.773438 32.695312 37.886719 32.699219 37.917969 32.628906 C 37.933594 32.597656 37.925781 32.5625 37.910156 32.53125 C 37.917969 32.53125 37.929688 32.53125 37.9375 32.53125 C 37.941406 32.285156 37.9375 32.042969 37.9375 31.796875 C 37.972656 31.757812 38.011719 31.730469 38.042969 31.691406 C 38.046875 31.597656 38.042969 31.503906 38.046875 31.410156 C 38.074219 31.382812 38.101562 31.359375 38.128906 31.332031 C 38.136719 31.324219 38.152344 31.316406 38.148438 31.300781 C 38.144531 31.253906 38.144531 31.207031 38.140625 31.160156 C 38.03125 31.0625 37.9375 30.953125 37.832031 30.855469 C 37.804688 30.824219 37.765625 30.796875 37.742188 30.761719 C 37.742188 30.6875 37.742188 30.617188 37.742188 30.542969 C 37.738281 30.5 37.777344 30.476562 37.796875 30.449219 C 38.085938 30.453125 38.371094 30.453125 38.65625 30.445312 C 38.90625 30.699219 39.152344 30.957031 39.402344 31.210938 C 39.507812 31.324219 39.621094 31.4375 39.726562 31.554688 C 39.769531 31.558594 39.816406 31.558594 39.859375 31.558594 C 39.863281 31.589844 39.871094 31.628906 39.902344 31.644531 C 39.945312 31.667969 40.003906 31.652344 40.027344 31.605469 C 40.058594 31.546875 40.019531 31.46875 39.957031 31.46875 C 39.914062 31.460938 39.882812 31.492188 39.863281 31.523438 C 39.824219 31.523438 39.78125 31.527344 39.738281 31.523438 C 39.6875 31.457031 39.621094 31.402344 39.5625 31.339844 C 39.496094 31.261719 39.421875 31.183594 39.347656 31.113281 C 39.1875 30.945312 39.023438 30.773438 38.855469 30.609375 C 38.792969 30.546875 38.730469 30.476562 38.664062 30.417969 C 38.464844 30.417969 38.261719 30.417969 38.058594 30.421875 C 37.972656 30.421875 37.882812 30.421875 37.796875 30.417969 C 37.765625 30.4375 37.734375 30.46875 37.710938 30.5 C 37.707031 30.585938 37.710938 30.667969 37.710938 30.75 C 37.703125 30.785156 37.738281 30.804688 37.757812 30.824219 C 37.871094 30.933594 37.976562 31.046875 38.089844 31.15625 C 38.101562 31.167969 38.113281 31.175781 38.109375 31.191406 C 38.113281 31.230469 38.113281 31.265625 38.109375 31.304688 C 38.085938 31.34375 38.027344 31.355469 38.011719 31.402344 C 38.007812 31.492188 38.015625 31.585938 38.011719 31.675781 C 37.980469 31.714844 37.941406 31.742188 37.90625 31.777344 C 37.90625 32.027344 37.90625 32.277344 37.90625 32.523438 C 37.886719 32.511719 37.867188 32.503906 37.84375 32.496094 C 37.839844 32.195312 37.839844 31.894531 37.84375 31.59375 C 37.882812 31.554688 37.929688 31.527344 37.960938 31.480469 C 37.964844 31.363281 37.960938 31.242188 37.960938 31.121094 C 37.84375 31.023438 37.746094 30.902344 37.636719 30.796875 C 37.636719 30.671875 37.636719 30.550781 37.636719 30.425781 C 37.707031 30.359375 37.777344 30.292969 37.839844 30.222656 C 37.878906 30.257812 37.910156 30.300781 37.949219 30.335938 C 38.195312 30.335938 38.441406 30.335938 38.6875 30.332031 C 38.714844 30.363281 38.742188 30.398438 38.773438 30.429688 C 39.039062 30.699219 39.304688 30.96875 39.570312 31.238281 C 39.589844 31.261719 39.621094 31.253906 39.648438 31.253906 C 39.757812 31.25 39.871094 31.257812 39.980469 31.253906 C 39.976562 31.246094 39.96875 31.230469 39.964844 31.222656 C 39.851562 31.222656 39.734375 31.222656 39.617188 31.222656 C 39.601562 31.226562 39.589844 31.210938 39.578125 31.199219 C 39.441406 31.058594 39.300781 30.925781 39.167969 30.785156 C 39.027344 30.644531 38.886719 30.503906 38.75 30.363281 C 38.730469 30.34375 38.714844 30.316406 38.691406 30.304688 C 38.445312 30.304688 38.203125 30.3125 37.960938 30.304688 C 37.863281 30.210938 37.769531 30.117188 37.675781 30.019531 C 37.667969 29.542969 37.675781 29.070312 37.675781 28.59375 C 37.679688 28.582031 37.6875 28.574219 37.695312 28.566406 C 37.777344 28.480469 37.863281 28.398438 37.941406 28.3125 C 37.949219 28.171875 37.941406 28.027344 37.945312 27.882812 C 37.941406 27.800781 37.949219 27.714844 37.941406 27.632812 C 37.871094 27.566406 37.804688 27.496094 37.734375 27.425781 C 37.714844 27.398438 37.671875 27.378906 37.671875 27.339844 C 37.679688 27.003906 37.671875 26.667969 37.679688 26.335938 C 37.730469 26.335938 37.78125 26.292969 37.773438 26.234375 C 37.773438 26.152344 37.667969 26.109375 37.617188 26.167969 Z M 37.742188 26.484375 C 37.742188 26.765625 37.746094 27.046875 37.742188 27.328125 C 37.832031 27.410156 37.914062 27.503906 38.007812 27.589844 C 38.007812 27.84375 38.007812 28.097656 38.007812 28.351562 C 37.917969 28.4375 37.832031 28.527344 37.746094 28.613281 C 37.742188 29.03125 37.746094 29.449219 37.746094 29.863281 C 37.746094 29.90625 37.738281 29.945312 37.746094 29.984375 C 37.824219 30.0625 37.90625 30.136719 37.980469 30.214844 L 37.988281 30.21875 C 38.226562 30.21875 38.46875 30.21875 38.710938 30.214844 C 38.753906 30.253906 38.792969 30.304688 38.835938 30.34375 C 39.101562 30.609375 39.363281 30.875 39.628906 31.136719 C 39.746094 31.144531 39.859375 31.136719 39.976562 31.140625 C 40.011719 31.164062 40.035156 31.199219 40.066406 31.222656 C 40.0625 31.277344 40.0625 31.332031 40.0625 31.386719 C 40.070312 31.386719 40.082031 31.382812 40.085938 31.378906 C 40.097656 31.324219 40.089844 31.269531 40.097656 31.214844 C 40.066406 31.179688 40.027344 31.148438 39.996094 31.113281 C 39.90625 31.109375 39.816406 31.117188 39.726562 31.113281 C 39.691406 31.109375 39.644531 31.121094 39.621094 31.089844 C 39.480469 30.949219 39.335938 30.808594 39.199219 30.664062 C 39.039062 30.503906 38.878906 30.347656 38.722656 30.183594 C 38.636719 30.191406 38.546875 30.1875 38.457031 30.1875 C 38.304688 30.1875 38.152344 30.191406 38 30.1875 C 37.921875 30.121094 37.855469 30.042969 37.78125 29.976562 C 37.769531 29.90625 37.78125 29.832031 37.777344 29.761719 C 37.773438 29.398438 37.773438 29.039062 37.773438 28.679688 C 37.777344 28.65625 37.769531 28.628906 37.789062 28.613281 C 37.871094 28.527344 37.957031 28.449219 38.035156 28.363281 C 38.035156 28.113281 38.035156 27.867188 38.035156 27.617188 C 38.03125 27.601562 38.039062 27.578125 38.027344 27.566406 C 37.941406 27.484375 37.859375 27.394531 37.777344 27.3125 C 37.765625 27.128906 37.773438 26.945312 37.769531 26.757812 C 37.773438 26.671875 37.765625 26.582031 37.773438 26.492188 C 37.8125 26.445312 37.859375 26.410156 37.894531 26.359375 C 37.90625 26.34375 37.894531 26.320312 37.886719 26.304688 C 37.859375 26.382812 37.789062 26.425781 37.742188 26.484375 Z M 38.808594 26.4375 C 38.8125 26.464844 38.832031 26.484375 38.851562 26.5 C 38.851562 26.527344 38.851562 26.554688 38.851562 26.585938 C 38.753906 26.667969 38.671875 26.765625 38.582031 26.855469 C 38.496094 26.941406 38.417969 27.035156 38.324219 27.113281 C 38.292969 27.085938 38.265625 27.050781 38.234375 27.015625 C 38.265625 26.976562 38.304688 26.941406 38.339844 26.902344 C 38.398438 26.84375 38.449219 26.78125 38.515625 26.726562 C 38.515625 26.695312 38.515625 26.660156 38.519531 26.628906 C 38.53125 26.613281 38.550781 26.609375 38.566406 26.597656 C 38.609375 26.5625 38.601562 26.484375 38.554688 26.453125 C 38.511719 26.421875 38.441406 26.4375 38.421875 26.488281 C 38.398438 26.542969 38.429688 26.613281 38.488281 26.621094 C 38.488281 26.652344 38.492188 26.679688 38.484375 26.710938 C 38.398438 26.796875 38.316406 26.886719 38.230469 26.976562 C 38.207031 26.992188 38.203125 27.027344 38.222656 27.046875 C 38.253906 27.085938 38.292969 27.121094 38.328125 27.160156 C 38.4375 27.054688 38.539062 26.941406 38.644531 26.832031 C 38.722656 26.753906 38.796875 26.667969 38.882812 26.601562 C 38.882812 26.570312 38.882812 26.542969 38.882812 26.511719 C 38.910156 26.507812 38.945312 26.503906 38.964844 26.472656 C 39.007812 26.425781 38.980469 26.339844 38.917969 26.328125 C 38.855469 26.304688 38.792969 26.375 38.808594 26.4375 Z M 39.097656 26.484375 C 39.070312 26.535156 39.097656 26.605469 39.15625 26.613281 C 39.152344 26.660156 39.164062 26.707031 39.152344 26.75 C 39.113281 26.792969 39.066406 26.832031 39.03125 26.878906 C 39.015625 26.890625 39.007812 26.910156 38.988281 26.90625 C 38.890625 26.910156 38.796875 26.90625 38.699219 26.90625 C 38.683594 26.90625 38.660156 26.902344 38.648438 26.917969 C 38.539062 27.039062 38.425781 27.152344 38.3125 27.269531 C 38.269531 27.222656 38.214844 27.179688 38.175781 27.132812 C 38.167969 26.996094 38.167969 26.859375 38.175781 26.722656 C 38.210938 26.714844 38.246094 26.691406 38.253906 26.648438 C 38.265625 26.589844 38.214844 26.535156 38.160156 26.539062 C 38.101562 26.546875 38.058594 26.613281 38.082031 26.671875 C 38.089844 26.703125 38.128906 26.703125 38.140625 26.730469 C 38.144531 26.871094 38.140625 27.011719 38.144531 27.152344 C 38.203125 27.199219 38.253906 27.261719 38.3125 27.308594 C 38.429688 27.195312 38.542969 27.078125 38.65625 26.960938 C 38.667969 26.953125 38.675781 26.9375 38.691406 26.9375 C 38.800781 26.933594 38.910156 26.9375 39.019531 26.941406 C 39.070312 26.878906 39.125 26.824219 39.183594 26.769531 C 39.191406 26.71875 39.183594 26.667969 39.1875 26.617188 C 39.242188 26.613281 39.289062 26.558594 39.269531 26.5 C 39.253906 26.417969 39.125 26.40625 39.097656 26.484375 Z M 39.28125 26.921875 C 39.265625 26.945312 39.265625 26.976562 39.269531 27.003906 C 39.082031 27.007812 38.890625 27.015625 38.699219 27.011719 C 38.695312 27.070312 38.695312 27.128906 38.695312 27.1875 C 38.628906 27.257812 38.558594 27.324219 38.492188 27.390625 C 38.441406 27.445312 38.394531 27.5 38.332031 27.542969 C 38.332031 27.777344 38.332031 28.015625 38.328125 28.25 C 38.328125 28.277344 38.332031 28.304688 38.324219 28.328125 C 38.207031 28.4375 38.101562 28.5625 37.980469 28.671875 C 37.984375 29.082031 37.980469 29.488281 37.980469 29.898438 C 38.257812 29.902344 38.535156 29.898438 38.808594 29.898438 C 38.875 29.953125 38.929688 30.015625 38.992188 30.074219 C 39.058594 30.089844 39.132812 30.074219 39.203125 30.078125 C 39.257812 30.128906 39.300781 30.191406 39.363281 30.230469 C 39.457031 30.230469 39.550781 30.222656 39.644531 30.234375 C 39.707031 30.292969 39.769531 30.351562 39.828125 30.414062 C 39.941406 30.421875 40.058594 30.414062 40.171875 30.417969 C 40.171875 30.410156 40.171875 30.394531 40.171875 30.386719 C 40.070312 30.386719 39.964844 30.390625 39.859375 30.386719 C 39.847656 30.386719 39.835938 30.382812 39.832031 30.371094 C 39.773438 30.3125 39.714844 30.257812 39.660156 30.199219 C 39.5625 30.191406 39.464844 30.199219 39.367188 30.195312 C 39.3125 30.15625 39.269531 30.097656 39.21875 30.050781 C 39.148438 30.039062 39.082031 30.054688 39.011719 30.046875 C 38.976562 30.023438 38.949219 29.984375 38.914062 29.953125 C 38.882812 29.925781 38.855469 29.886719 38.820312 29.867188 C 38.550781 29.871094 38.285156 29.867188 38.015625 29.871094 C 38.011719 29.8125 38.011719 29.757812 38.011719 29.703125 C 38.011719 29.371094 38.011719 29.039062 38.011719 28.703125 C 38.011719 28.679688 38.03125 28.664062 38.046875 28.652344 C 38.128906 28.570312 38.214844 28.488281 38.292969 28.402344 C 38.316406 28.375 38.34375 28.359375 38.359375 28.332031 C 38.359375 28.125 38.359375 27.921875 38.359375 27.71875 C 38.441406 27.640625 38.523438 27.554688 38.601562 27.472656 C 38.753906 27.476562 38.902344 27.46875 39.054688 27.46875 C 39.09375 27.46875 39.136719 27.472656 39.179688 27.464844 C 39.199219 27.449219 39.222656 27.429688 39.234375 27.402344 C 39.1875 27.402344 39.15625 27.445312 39.109375 27.441406 C 38.9375 27.445312 38.761719 27.441406 38.585938 27.445312 C 38.511719 27.523438 38.441406 27.605469 38.359375 27.675781 C 38.359375 27.640625 38.355469 27.605469 38.359375 27.570312 C 38.480469 27.449219 38.597656 27.328125 38.71875 27.210938 C 38.835938 27.207031 38.953125 27.210938 39.070312 27.210938 C 39.082031 27.285156 39.179688 27.3125 39.226562 27.257812 C 39.277344 27.214844 39.246094 27.121094 39.1875 27.113281 C 39.136719 27.09375 39.089844 27.128906 39.070312 27.179688 C 38.957031 27.179688 38.839844 27.179688 38.726562 27.183594 C 38.726562 27.136719 38.726562 27.089844 38.726562 27.042969 C 38.902344 27.042969 39.078125 27.039062 39.253906 27.039062 C 39.296875 27.039062 39.332031 27.070312 39.371094 27.0625 C 39.433594 27.058594 39.46875 26.976562 39.433594 26.921875 C 39.402344 26.863281 39.3125 26.863281 39.28125 26.921875 Z M 39.640625 27.257812 C 39.597656 27.253906 39.550781 27.253906 39.503906 27.253906 C 39.492188 27.253906 39.472656 27.246094 39.460938 27.261719 C 39.371094 27.355469 39.28125 27.449219 39.191406 27.542969 C 39.007812 27.550781 38.820312 27.546875 38.632812 27.550781 C 38.570312 27.617188 38.503906 27.6875 38.429688 27.75 C 38.433594 27.792969 38.433594 27.839844 38.433594 27.882812 C 38.441406 27.882812 38.453125 27.878906 38.457031 27.875 C 38.460938 27.839844 38.457031 27.800781 38.457031 27.761719 C 38.527344 27.707031 38.582031 27.636719 38.648438 27.578125 C 38.832031 27.574219 39.011719 27.574219 39.195312 27.578125 C 39.210938 27.574219 39.214844 27.558594 39.226562 27.550781 C 39.3125 27.460938 39.398438 27.375 39.480469 27.28125 C 39.535156 27.28125 39.589844 27.285156 39.640625 27.285156 C 39.652344 27.308594 39.65625 27.339844 39.683594 27.347656 C 39.734375 27.375 39.800781 27.34375 39.820312 27.289062 C 39.835938 27.222656 39.765625 27.152344 39.703125 27.179688 C 39.667969 27.1875 39.652344 27.226562 39.640625 27.257812 Z M 39.457031 27.421875 C 39.40625 27.46875 39.359375 27.527344 39.304688 27.574219 C 39.277344 27.601562 39.253906 27.636719 39.21875 27.65625 C 39.039062 27.660156 38.859375 27.65625 38.683594 27.660156 C 38.628906 27.71875 38.574219 27.773438 38.515625 27.824219 C 38.515625 27.851562 38.515625 27.882812 38.515625 27.910156 C 38.488281 27.933594 38.457031 27.957031 38.425781 27.976562 C 38.425781 28.085938 38.425781 28.199219 38.425781 28.308594 C 38.425781 28.335938 38.433594 28.367188 38.410156 28.386719 C 38.300781 28.5 38.195312 28.613281 38.078125 28.71875 C 38.074219 29.019531 38.082031 29.320312 38.078125 29.625 C 38.070312 29.660156 38.109375 29.679688 38.125 29.703125 C 38.152344 29.726562 38.175781 29.773438 38.214844 29.769531 C 38.417969 29.765625 38.625 29.769531 38.828125 29.765625 C 38.890625 29.835938 38.964844 29.894531 39.023438 29.96875 C 39.347656 29.972656 39.671875 29.972656 40 29.972656 C 40.027344 30 40.050781 30.03125 40.082031 30.050781 C 40.148438 30.046875 40.214844 30.046875 40.28125 30.046875 C 40.292969 30.097656 40.335938 30.136719 40.386719 30.125 C 40.457031 30.121094 40.484375 30.015625 40.433594 29.96875 C 40.386719 29.921875 40.289062 29.945312 40.285156 30.015625 C 40.21875 30.019531 40.148438 30.023438 40.082031 30.015625 C 40.058594 29.996094 40.039062 29.96875 40.015625 29.949219 C 40.058594 29.90625 40.097656 29.859375 40.140625 29.8125 C 40.15625 29.796875 40.171875 29.777344 40.183594 29.753906 C 40.25 29.753906 40.316406 29.757812 40.382812 29.753906 C 40.394531 29.777344 40.394531 29.800781 40.410156 29.816406 C 40.445312 29.855469 40.511719 29.855469 40.546875 29.816406 C 40.585938 29.765625 40.558594 29.679688 40.503906 29.660156 C 40.457031 29.648438 40.40625 29.679688 40.390625 29.722656 C 40.316406 29.726562 40.242188 29.722656 40.167969 29.726562 C 40.144531 29.742188 40.136719 29.769531 40.117188 29.789062 C 40.070312 29.835938 40.03125 29.886719 39.988281 29.933594 C 39.964844 29.941406 39.945312 29.941406 39.921875 29.941406 C 39.628906 29.941406 39.335938 29.9375 39.042969 29.941406 C 38.976562 29.871094 38.90625 29.804688 38.84375 29.734375 C 38.628906 29.738281 38.417969 29.734375 38.203125 29.738281 C 38.171875 29.703125 38.140625 29.671875 38.109375 29.640625 C 38.105469 29.445312 38.109375 29.25 38.105469 29.050781 C 38.109375 28.953125 38.101562 28.851562 38.105469 28.75 C 38.105469 28.726562 38.128906 28.714844 38.144531 28.699219 C 38.242188 28.609375 38.332031 28.511719 38.429688 28.417969 C 38.4375 28.40625 38.453125 28.394531 38.453125 28.375 C 38.453125 28.253906 38.453125 28.128906 38.453125 28.007812 C 38.480469 27.980469 38.511719 27.964844 38.539062 27.941406 C 38.542969 27.910156 38.542969 27.878906 38.542969 27.84375 C 38.597656 27.796875 38.648438 27.742188 38.703125 27.691406 C 38.882812 27.6875 39.058594 27.6875 39.238281 27.691406 C 39.3125 27.609375 39.390625 27.535156 39.464844 27.453125 C 39.539062 27.445312 39.617188 27.453125 39.691406 27.441406 C 39.703125 27.441406 39.710938 27.429688 39.707031 27.414062 C 39.625 27.421875 39.539062 27.414062 39.457031 27.421875 Z M 39.785156 27.496094 C 39.773438 27.511719 39.769531 27.535156 39.75 27.535156 C 39.660156 27.535156 39.574219 27.535156 39.488281 27.535156 C 39.421875 27.605469 39.351562 27.671875 39.289062 27.742188 C 39.273438 27.753906 39.261719 27.773438 39.242188 27.769531 C 39.089844 27.773438 38.941406 27.773438 38.789062 27.773438 C 38.761719 27.769531 38.746094 27.792969 38.730469 27.808594 C 38.683594 27.863281 38.628906 27.917969 38.574219 27.96875 C 38.554688 27.988281 38.53125 28.007812 38.53125 28.042969 C 38.527344 28.167969 38.535156 28.292969 38.527344 28.417969 C 38.5 28.457031 38.460938 28.488281 38.429688 28.523438 C 38.34375 28.605469 38.265625 28.691406 38.175781 28.765625 C 38.175781 29.039062 38.175781 29.3125 38.175781 29.585938 C 38.171875 29.621094 38.199219 29.644531 38.226562 29.660156 C 38.433594 29.65625 38.644531 29.660156 38.851562 29.65625 C 38.867188 29.65625 38.878906 29.660156 38.886719 29.667969 C 38.941406 29.730469 39 29.789062 39.054688 29.847656 C 39.0625 29.859375 39.074219 29.863281 39.085938 29.863281 C 39.355469 29.859375 39.628906 29.859375 39.898438 29.859375 C 39.96875 29.792969 40.027344 29.710938 40.101562 29.648438 C 40.1875 29.644531 40.273438 29.648438 40.359375 29.648438 C 40.363281 29.605469 40.375 29.566406 40.371094 29.527344 C 40.261719 29.519531 40.148438 29.519531 40.035156 29.519531 C 39.960938 29.578125 39.910156 29.664062 39.835938 29.71875 C 39.613281 29.722656 39.394531 29.722656 39.171875 29.722656 C 39.15625 29.722656 39.132812 29.726562 39.117188 29.714844 C 39.050781 29.652344 38.996094 29.582031 38.925781 29.519531 C 38.859375 29.511719 38.792969 29.515625 38.726562 29.515625 C 38.726562 29.367188 38.722656 29.222656 38.726562 29.074219 C 38.925781 29.074219 39.125 29.074219 39.324219 29.082031 C 39.367188 29.117188 39.40625 29.164062 39.453125 29.199219 C 39.527344 29.203125 39.601562 29.199219 39.675781 29.203125 C 39.6875 29.230469 39.695312 29.261719 39.722656 29.273438 C 39.773438 29.308594 39.84375 29.273438 39.855469 29.214844 C 39.871094 29.152344 39.808594 29.089844 39.746094 29.105469 C 39.714844 29.109375 39.695312 29.144531 39.675781 29.171875 C 39.605469 29.167969 39.53125 29.167969 39.460938 29.167969 C 39.414062 29.132812 39.378906 29.082031 39.332031 29.046875 C 39.132812 29.042969 38.933594 29.050781 38.734375 29.042969 L 38.726562 29.039062 C 38.726562 28.980469 38.726562 28.925781 38.726562 28.871094 C 38.75 28.835938 38.785156 28.808594 38.8125 28.773438 C 38.828125 28.761719 38.839844 28.738281 38.867188 28.738281 C 39 28.738281 39.128906 28.738281 39.261719 28.742188 C 39.332031 28.664062 39.410156 28.597656 39.480469 28.523438 C 39.515625 28.484375 39.550781 28.445312 39.59375 28.414062 C 39.671875 28.476562 39.742188 28.554688 39.816406 28.621094 C 39.828125 28.644531 39.816406 28.683594 39.839844 28.703125 C 39.878906 28.753906 39.953125 28.746094 39.992188 28.699219 C 40.058594 28.703125 40.128906 28.699219 40.199219 28.703125 C 40.1875 28.765625 40.238281 28.828125 40.300781 28.8125 C 40.363281 28.808594 40.394531 28.726562 40.359375 28.675781 C 40.324219 28.617188 40.234375 28.617188 40.203125 28.679688 C 40.136719 28.671875 40.066406 28.675781 40 28.671875 C 40.003906 28.625 39.980469 28.566406 39.929688 28.558594 C 39.894531 28.546875 39.855469 28.566406 39.832031 28.59375 C 39.761719 28.535156 39.703125 28.464844 39.636719 28.40625 C 39.617188 28.386719 39.582031 28.378906 39.558594 28.398438 C 39.453125 28.5 39.355469 28.609375 39.25 28.707031 C 39.113281 28.714844 38.976562 28.707031 38.839844 28.710938 C 38.804688 28.738281 38.777344 28.777344 38.742188 28.804688 C 38.726562 28.828125 38.695312 28.84375 38.699219 28.878906 C 38.703125 29.101562 38.699219 29.324219 38.703125 29.546875 C 38.765625 29.546875 38.832031 29.546875 38.898438 29.546875 C 38.917969 29.542969 38.925781 29.558594 38.9375 29.570312 C 38.988281 29.621094 39.039062 29.667969 39.085938 29.71875 C 39.097656 29.734375 39.109375 29.753906 39.132812 29.75 C 39.28125 29.75 39.425781 29.75 39.574219 29.75 C 39.664062 29.753906 39.75 29.746094 39.839844 29.75 C 39.859375 29.753906 39.871094 29.738281 39.882812 29.726562 C 39.9375 29.664062 39.992188 29.605469 40.050781 29.546875 C 40.148438 29.546875 40.246094 29.546875 40.34375 29.554688 C 40.34375 29.574219 40.34375 29.597656 40.34375 29.617188 C 40.257812 29.617188 40.175781 29.617188 40.09375 29.617188 C 40.035156 29.675781 39.976562 29.730469 39.925781 29.792969 C 39.910156 29.808594 39.894531 29.832031 39.871094 29.828125 C 39.636719 29.828125 39.402344 29.828125 39.167969 29.828125 C 39.140625 29.828125 39.113281 29.832031 39.085938 29.824219 C 39.03125 29.777344 38.984375 29.726562 38.9375 29.679688 C 38.917969 29.660156 38.902344 29.621094 38.867188 29.625 C 38.664062 29.625 38.457031 29.628906 38.25 29.625 C 38.230469 29.628906 38.203125 29.613281 38.210938 29.585938 C 38.210938 29.328125 38.210938 29.070312 38.210938 28.808594 C 38.207031 28.792969 38.222656 28.777344 38.230469 28.765625 C 38.328125 28.671875 38.425781 28.578125 38.519531 28.476562 C 38.535156 28.457031 38.5625 28.445312 38.5625 28.414062 C 38.5625 28.292969 38.5625 28.171875 38.5625 28.054688 C 38.5625 28.027344 38.582031 28.015625 38.597656 28 C 38.65625 27.9375 38.71875 27.871094 38.777344 27.804688 C 38.941406 27.796875 39.101562 27.804688 39.265625 27.800781 C 39.304688 27.777344 39.332031 27.738281 39.367188 27.707031 C 39.414062 27.664062 39.453125 27.609375 39.5 27.566406 C 39.589844 27.5625 39.683594 27.566406 39.769531 27.5625 C 39.789062 27.621094 39.859375 27.648438 39.910156 27.617188 C 39.957031 27.589844 39.960938 27.523438 39.929688 27.484375 C 39.890625 27.433594 39.8125 27.445312 39.785156 27.496094 Z M 37.679688 27.671875 C 37.628906 27.726562 37.667969 27.824219 37.738281 27.828125 C 37.742188 27.972656 37.738281 28.117188 37.742188 28.261719 C 37.738281 28.277344 37.742188 28.296875 37.734375 28.308594 C 37.6875 28.367188 37.628906 28.410156 37.585938 28.46875 C 37.578125 28.480469 37.574219 28.492188 37.578125 28.507812 C 37.589844 28.5 37.601562 28.496094 37.613281 28.484375 C 37.65625 28.4375 37.699219 28.390625 37.742188 28.34375 C 37.757812 28.332031 37.773438 28.316406 37.769531 28.296875 C 37.769531 28.140625 37.769531 27.984375 37.769531 27.828125 C 37.804688 27.816406 37.84375 27.785156 37.835938 27.738281 C 37.835938 27.660156 37.726562 27.605469 37.679688 27.671875 Z M 39.308594 27.871094 C 39.296875 27.882812 39.277344 27.878906 39.261719 27.878906 C 39.117188 27.882812 38.96875 27.882812 38.824219 27.882812 C 38.808594 27.882812 38.800781 27.894531 38.792969 27.902344 C 38.746094 27.953125 38.699219 28 38.648438 28.042969 C 38.636719 28.054688 38.632812 28.070312 38.632812 28.085938 C 38.628906 28.210938 38.640625 28.339844 38.628906 28.460938 C 38.5625 28.527344 38.496094 28.59375 38.433594 28.664062 C 38.441406 28.667969 38.453125 28.675781 38.457031 28.679688 C 38.527344 28.609375 38.601562 28.542969 38.660156 28.464844 C 38.667969 28.335938 38.65625 28.207031 38.664062 28.078125 C 38.71875 28.023438 38.769531 27.96875 38.824219 27.917969 C 38.988281 27.902344 39.15625 27.917969 39.320312 27.902344 C 39.367188 27.859375 39.410156 27.8125 39.453125 27.769531 C 39.464844 27.757812 39.476562 27.742188 39.492188 27.746094 C 39.53125 27.746094 39.574219 27.738281 39.613281 27.75 C 39.671875 27.816406 39.730469 27.875 39.796875 27.929688 C 39.8125 27.953125 39.824219 27.980469 39.84375 28 C 39.515625 28 39.1875 28 38.855469 28.003906 C 38.816406 28.035156 38.78125 28.078125 38.742188 28.109375 C 38.742188 28.226562 38.738281 28.34375 38.742188 28.460938 C 38.742188 28.476562 38.746094 28.496094 38.734375 28.507812 C 38.648438 28.589844 38.570312 28.675781 38.488281 28.761719 C 38.453125 28.734375 38.40625 28.707031 38.363281 28.730469 C 38.296875 28.761719 38.308594 28.886719 38.382812 28.898438 C 38.433594 28.898438 38.488281 28.890625 38.539062 28.894531 C 38.628906 28.792969 38.730469 28.707031 38.820312 28.605469 C 38.835938 28.578125 38.878906 28.566406 38.878906 28.527344 C 38.878906 28.402344 38.878906 28.273438 38.878906 28.148438 C 39.265625 28.144531 39.65625 28.140625 40.046875 28.140625 C 40.0625 28.140625 40.082031 28.136719 40.097656 28.144531 C 40.109375 28.164062 40.121094 28.183594 40.136719 28.199219 C 40.1875 28.230469 40.269531 28.199219 40.269531 28.132812 C 40.277344 28.078125 40.230469 28.023438 40.179688 28.03125 C 40.136719 28.027344 40.105469 28.066406 40.097656 28.109375 C 39.714844 28.113281 39.328125 28.113281 38.941406 28.117188 C 38.910156 28.117188 38.871094 28.105469 38.851562 28.140625 C 38.84375 28.269531 38.855469 28.40625 38.84375 28.539062 C 38.742188 28.644531 38.636719 28.753906 38.53125 28.859375 C 38.507812 28.871094 38.484375 28.863281 38.460938 28.859375 C 38.476562 28.828125 38.492188 28.800781 38.515625 28.777344 C 38.589844 28.699219 38.660156 28.617188 38.738281 28.542969 C 38.75 28.53125 38.765625 28.523438 38.773438 28.503906 C 38.773438 28.378906 38.765625 28.253906 38.773438 28.128906 C 38.804688 28.09375 38.835938 28.0625 38.871094 28.035156 C 39.171875 28.03125 39.476562 28.035156 39.78125 28.03125 C 39.808594 28.03125 39.835938 28.023438 39.859375 28.011719 C 39.890625 28.011719 39.921875 28.015625 39.945312 27.992188 C 39.996094 27.953125 39.980469 27.855469 39.921875 27.832031 C 39.871094 27.8125 39.824219 27.847656 39.800781 27.890625 C 39.738281 27.835938 39.683594 27.777344 39.625 27.71875 C 39.570312 27.710938 39.515625 27.714844 39.464844 27.714844 C 39.410156 27.765625 39.363281 27.820312 39.308594 27.871094 Z M 39.339844 28.359375 C 39.308594 28.363281 39.277344 28.367188 39.25 28.347656 C 39.222656 28.328125 39.1875 28.324219 39.15625 28.335938 C 39.105469 28.359375 39.09375 28.4375 39.132812 28.480469 C 39.171875 28.523438 39.246094 28.511719 39.277344 28.460938 C 39.285156 28.4375 39.28125 28.414062 39.28125 28.390625 C 39.3125 28.390625 39.339844 28.394531 39.371094 28.390625 C 39.398438 28.367188 39.417969 28.335938 39.445312 28.316406 C 39.566406 28.3125 39.6875 28.3125 39.808594 28.316406 C 39.859375 28.367188 39.914062 28.414062 39.957031 28.476562 C 40.011719 28.476562 40.0625 28.476562 40.117188 28.476562 C 40.128906 28.539062 40.199219 28.578125 40.253906 28.542969 C 40.320312 28.507812 40.304688 28.390625 40.230469 28.378906 C 40.183594 28.363281 40.132812 28.398438 40.117188 28.445312 C 40.070312 28.445312 40.019531 28.449219 39.972656 28.441406 C 39.921875 28.390625 39.875 28.335938 39.824219 28.285156 C 39.699219 28.277344 39.574219 28.28125 39.449219 28.28125 C 39.398438 28.28125 39.390625 28.359375 39.339844 28.359375 Z M 39.304688 28.804688 C 39.296875 28.820312 39.277344 28.816406 39.261719 28.816406 C 39.125 28.8125 38.992188 28.8125 38.851562 28.8125 C 38.851562 28.863281 38.851562 28.910156 38.851562 28.960938 C 39 28.964844 39.148438 28.964844 39.296875 28.960938 C 39.296875 28.957031 39.296875 28.941406 39.296875 28.929688 C 39.160156 28.929688 39.019531 28.933594 38.882812 28.925781 C 38.882812 28.898438 38.882812 28.871094 38.882812 28.84375 C 39.023438 28.84375 39.164062 28.84375 39.308594 28.84375 C 39.363281 28.800781 39.410156 28.742188 39.460938 28.695312 C 39.511719 28.742188 39.5625 28.785156 39.613281 28.835938 C 39.621094 28.859375 39.605469 28.886719 39.617188 28.910156 C 39.632812 28.957031 39.6875 28.980469 39.730469 28.964844 C 39.75 28.957031 39.765625 28.9375 39.785156 28.921875 C 39.824219 28.941406 39.851562 28.972656 39.882812 29.007812 C 40.046875 29.003906 40.210938 29.003906 40.375 29.003906 C 40.382812 29.027344 40.390625 29.050781 40.410156 29.066406 C 40.460938 29.113281 40.558594 29.070312 40.554688 28.992188 C 40.554688 28.9375 40.496094 28.890625 40.445312 28.90625 C 40.410156 28.914062 40.394531 28.945312 40.375 28.972656 C 40.21875 28.976562 40.0625 28.976562 39.902344 28.972656 C 39.863281 28.953125 39.839844 28.910156 39.796875 28.894531 C 39.789062 28.855469 39.773438 28.808594 39.734375 28.796875 C 39.699219 28.78125 39.664062 28.792969 39.632812 28.816406 C 39.574219 28.765625 39.523438 28.703125 39.460938 28.660156 C 39.402344 28.703125 39.359375 28.761719 39.304688 28.804688 Z M 38.386719 29.046875 C 38.355469 29.089844 38.367188 29.167969 38.417969 29.1875 C 38.425781 29.195312 38.445312 29.199219 38.441406 29.214844 C 38.445312 29.292969 38.441406 29.371094 38.445312 29.449219 C 38.496094 29.445312 38.550781 29.441406 38.601562 29.445312 C 38.601562 29.4375 38.601562 29.421875 38.601562 29.414062 C 38.558594 29.414062 38.515625 29.414062 38.472656 29.417969 C 38.472656 29.34375 38.472656 29.269531 38.472656 29.199219 C 38.5 29.1875 38.53125 29.179688 38.542969 29.148438 C 38.558594 29.113281 38.554688 29.066406 38.523438 29.039062 C 38.488281 29.003906 38.421875 29.007812 38.386719 29.046875 Z M 38.882812 29.195312 C 38.816406 29.222656 38.8125 29.335938 38.878906 29.367188 C 38.941406 29.382812 39.007812 29.355469 39.070312 29.367188 C 39.15625 29.457031 39.242188 29.546875 39.328125 29.636719 C 39.492188 29.636719 39.652344 29.636719 39.816406 29.636719 C 39.871094 29.570312 39.933594 29.507812 39.992188 29.449219 C 40.117188 29.4375 40.238281 29.449219 40.359375 29.4375 C 40.359375 29.429688 40.359375 29.417969 40.355469 29.414062 C 40.230469 29.402344 40.101562 29.414062 39.972656 29.414062 C 39.917969 29.480469 39.859375 29.542969 39.796875 29.601562 C 39.667969 29.609375 39.535156 29.601562 39.40625 29.605469 C 39.382812 29.605469 39.347656 29.613281 39.328125 29.589844 C 39.253906 29.515625 39.183594 29.441406 39.113281 29.359375 C 39.089844 29.320312 39.035156 29.335938 39 29.332031 C 38.957031 29.332031 38.898438 29.359375 38.871094 29.3125 C 38.835938 29.265625 38.894531 29.203125 38.941406 29.222656 C 38.96875 29.230469 38.96875 29.257812 38.96875 29.28125 C 39.023438 29.285156 39.078125 29.285156 39.128906 29.28125 C 39.207031 29.363281 39.289062 29.441406 39.367188 29.523438 C 39.496094 29.519531 39.625 29.523438 39.753906 29.519531 C 39.820312 29.464844 39.871094 29.394531 39.9375 29.335938 C 40.089844 29.335938 40.246094 29.335938 40.398438 29.335938 C 40.410156 29.402344 40.503906 29.429688 40.550781 29.378906 C 40.597656 29.339844 40.578125 29.25 40.519531 29.230469 C 40.46875 29.210938 40.40625 29.246094 40.394531 29.304688 C 40.234375 29.304688 40.078125 29.304688 39.917969 29.304688 C 39.863281 29.371094 39.804688 29.429688 39.746094 29.488281 C 39.625 29.496094 39.507812 29.488281 39.386719 29.492188 C 39.296875 29.421875 39.226562 29.332031 39.144531 29.253906 C 39.101562 29.246094 39.054688 29.25 39.007812 29.25 C 38.988281 29.199219 38.929688 29.171875 38.882812 29.195312 Z M 39.585938 29.996094 C 39.582031 30.03125 39.582031 30.070312 39.582031 30.105469 C 39.617188 30.109375 39.65625 30.097656 39.695312 30.109375 C 39.761719 30.160156 39.8125 30.234375 39.878906 30.289062 C 40.050781 30.292969 40.222656 30.289062 40.390625 30.292969 C 40.40625 30.3125 40.414062 30.34375 40.441406 30.355469 C 40.496094 30.386719 40.578125 30.34375 40.570312 30.273438 C 40.574219 30.210938 40.511719 30.167969 40.453125 30.1875 C 40.421875 30.191406 40.410156 30.230469 40.394531 30.261719 C 40.226562 30.257812 40.058594 30.257812 39.890625 30.257812 C 39.828125 30.207031 39.777344 30.136719 39.714844 30.085938 C 39.6875 30.054688 39.644531 30.078125 39.613281 30.078125 C 39.613281 30.050781 39.613281 30.023438 39.609375 29.996094 C 39.605469 29.996094 39.59375 29.996094 39.585938 29.996094 Z M 39.136719 30.148438 L 39.132812 30.15625 C 39.21875 30.257812 39.316406 30.347656 39.410156 30.441406 C 39.4375 30.46875 39.464844 30.5 39.5 30.523438 C 39.667969 30.523438 39.839844 30.523438 40.011719 30.519531 C 40.074219 30.507812 40.105469 30.585938 40.15625 30.609375 C 40.207031 30.609375 40.257812 30.605469 40.308594 30.605469 C 40.320312 30.632812 40.328125 30.667969 40.355469 30.679688 C 40.410156 30.714844 40.492188 30.667969 40.488281 30.597656 C 40.492188 30.542969 40.4375 30.503906 40.386719 30.511719 C 40.347656 30.511719 40.324219 30.546875 40.3125 30.578125 C 40.261719 30.578125 40.214844 30.578125 40.164062 30.578125 C 40.128906 30.558594 40.101562 30.519531 40.066406 30.488281 C 39.898438 30.496094 39.726562 30.492188 39.558594 30.496094 C 39.535156 30.496094 39.507812 30.503906 39.492188 30.484375 C 39.378906 30.375 39.269531 30.261719 39.15625 30.148438 C 39.152344 30.148438 39.144531 30.148438 39.136719 30.148438 Z M 37.820312 30.53125 C 37.820312 30.597656 37.820312 30.667969 37.820312 30.734375 C 37.941406 30.851562 38.058594 30.972656 38.183594 31.085938 C 38.195312 31.097656 38.207031 31.117188 38.226562 31.113281 C 38.300781 31.105469 38.375 31.109375 38.449219 31.109375 C 38.449219 31.234375 38.453125 31.359375 38.449219 31.484375 C 38.335938 31.484375 38.222656 31.488281 38.105469 31.488281 C 38.105469 31.570312 38.109375 31.652344 38.105469 31.734375 C 38.078125 31.777344 38.027344 31.800781 38 31.84375 C 38 32.003906 38.003906 32.167969 38 32.332031 C 38.003906 32.367188 38 32.398438 38.003906 32.433594 C 38.035156 32.46875 38.074219 32.492188 38.105469 32.519531 C 38.105469 32.5625 38.105469 32.605469 38.101562 32.648438 C 38.054688 32.65625 38.015625 32.699219 38.019531 32.75 C 38.023438 32.828125 38.128906 32.859375 38.175781 32.800781 C 38.214844 32.753906 38.195312 32.667969 38.132812 32.652344 C 38.132812 32.601562 38.132812 32.550781 38.132812 32.5 C 38.097656 32.472656 38.0625 32.449219 38.03125 32.417969 C 38.023438 32.382812 38.027344 32.34375 38.027344 32.304688 C 38.027344 32.15625 38.027344 32.003906 38.027344 31.855469 C 38.054688 31.8125 38.109375 31.792969 38.132812 31.746094 C 38.136719 31.667969 38.132812 31.59375 38.132812 31.515625 C 38.25 31.519531 38.367188 31.511719 38.480469 31.511719 C 38.480469 31.367188 38.472656 31.222656 38.476562 31.078125 C 38.394531 31.078125 38.316406 31.074219 38.234375 31.078125 C 38.210938 31.082031 38.199219 31.058594 38.183594 31.046875 C 38.070312 30.941406 37.964844 30.824219 37.847656 30.722656 C 37.84375 30.667969 37.84375 30.613281 37.84375 30.558594 C 38.101562 30.558594 38.355469 30.558594 38.609375 30.558594 C 38.625 30.554688 38.636719 30.566406 38.648438 30.578125 C 38.761719 30.695312 38.875 30.8125 38.988281 30.929688 C 39.042969 30.980469 39.097656 31.03125 39.144531 31.089844 C 39.148438 31.140625 39.144531 31.191406 39.144531 31.242188 C 39.117188 31.261719 39.085938 31.289062 39.089844 31.328125 C 39.082031 31.398438 39.164062 31.449219 39.21875 31.414062 C 39.257812 31.394531 39.269531 31.339844 39.257812 31.296875 C 39.242188 31.261719 39.207031 31.25 39.171875 31.242188 C 39.171875 31.1875 39.171875 31.132812 39.171875 31.074219 C 39.121094 31.023438 39.070312 30.96875 39.019531 30.917969 C 38.890625 30.789062 38.765625 30.65625 38.636719 30.527344 C 38.367188 30.527344 38.09375 30.53125 37.820312 30.53125 Z M 39.84375 30.625 C 39.84375 30.632812 39.84375 30.648438 39.84375 30.652344 C 39.890625 30.660156 39.941406 30.652344 39.988281 30.660156 C 40.035156 30.710938 40.085938 30.765625 40.132812 30.816406 C 40.117188 30.839844 40.097656 30.867188 40.105469 30.898438 C 40.109375 30.945312 40.148438 30.976562 40.191406 30.976562 C 40.242188 30.980469 40.289062 30.929688 40.277344 30.875 C 40.269531 30.816406 40.210938 30.78125 40.160156 30.804688 C 40.109375 30.742188 40.054688 30.683594 39.996094 30.628906 C 39.945312 30.621094 39.894531 30.625 39.84375 30.625 Z M 38.152344 30.660156 C 38.09375 30.675781 38.066406 30.757812 38.105469 30.808594 C 38.148438 30.867188 38.253906 30.835938 38.261719 30.761719 C 38.277344 30.695312 38.210938 30.636719 38.152344 30.660156 Z M 38.363281 30.824219 C 38.300781 30.84375 38.277344 30.945312 38.335938 30.984375 C 38.386719 31.03125 38.488281 30.988281 38.484375 30.914062 C 38.488281 30.847656 38.417969 30.804688 38.363281 30.824219 Z M 38.648438 30.882812 C 38.597656 30.90625 38.585938 30.984375 38.625 31.027344 C 38.636719 31.039062 38.660156 31.042969 38.671875 31.0625 C 38.671875 31.128906 38.667969 31.191406 38.671875 31.253906 C 38.640625 31.253906 38.613281 31.25 38.585938 31.265625 C 38.527344 31.296875 38.535156 31.402344 38.597656 31.425781 C 38.652344 31.453125 38.730469 31.40625 38.726562 31.339844 C 38.730469 31.308594 38.707031 31.285156 38.699219 31.257812 C 38.699219 31.1875 38.699219 31.121094 38.703125 31.050781 C 38.722656 31.039062 38.746094 31.027344 38.765625 31.011719 C 38.816406 31.0625 38.863281 31.113281 38.917969 31.160156 C 38.925781 31.300781 38.921875 31.445312 38.921875 31.589844 C 38.679688 31.585938 38.441406 31.59375 38.203125 31.589844 C 38.203125 31.65625 38.203125 31.722656 38.199219 31.785156 C 38.175781 31.839844 38.089844 31.859375 38.101562 31.929688 C 38.101562 32.070312 38.097656 32.210938 38.101562 32.351562 C 38.207031 32.445312 38.304688 32.546875 38.402344 32.652344 C 38.351562 32.6875 38.355469 32.777344 38.410156 32.804688 C 38.460938 32.835938 38.539062 32.796875 38.539062 32.734375 C 38.542969 32.6875 38.511719 32.652344 38.472656 32.636719 C 38.472656 32.589844 38.46875 32.539062 38.46875 32.488281 C 38.394531 32.421875 38.324219 32.347656 38.25 32.277344 C 38.25 32.214844 38.25 32.148438 38.25 32.085938 C 38.285156 32.046875 38.328125 32.027344 38.355469 31.984375 C 38.359375 31.902344 38.355469 31.816406 38.355469 31.730469 C 38.648438 31.726562 38.9375 31.730469 39.230469 31.726562 C 39.308594 31.800781 39.382812 31.875 39.453125 31.949219 C 39.464844 31.960938 39.480469 31.976562 39.496094 31.976562 C 39.566406 31.980469 39.632812 31.976562 39.703125 31.980469 C 39.707031 32.003906 39.710938 32.03125 39.726562 32.046875 C 39.769531 32.09375 39.859375 32.078125 39.875 32.015625 C 39.898438 31.957031 39.84375 31.890625 39.789062 31.890625 C 39.761719 31.839844 39.71875 31.800781 39.679688 31.761719 C 39.621094 31.703125 39.5625 31.640625 39.507812 31.582031 C 39.46875 31.578125 39.433594 31.589844 39.398438 31.585938 C 39.25 31.582031 39.101562 31.589844 38.949219 31.582031 C 38.953125 31.457031 38.949219 31.324219 38.949219 31.199219 C 38.949219 31.175781 38.953125 31.152344 38.9375 31.136719 C 38.886719 31.085938 38.832031 31.039062 38.785156 30.984375 C 38.777344 30.960938 38.777344 30.941406 38.769531 30.917969 C 38.742188 30.882812 38.691406 30.859375 38.648438 30.882812 Z M 37.617188 31.273438 C 37.609375 31.316406 37.644531 31.347656 37.679688 31.367188 C 37.679688 31.726562 37.679688 32.082031 37.679688 32.441406 C 37.683594 32.441406 37.699219 32.441406 37.707031 32.441406 C 37.707031 32.082031 37.707031 31.726562 37.710938 31.367188 C 37.726562 31.359375 37.75 31.359375 37.765625 31.34375 C 37.808594 31.300781 37.796875 31.214844 37.742188 31.191406 C 37.6875 31.160156 37.613281 31.203125 37.617188 31.273438 Z M 38.265625 31.1875 C 38.207031 31.203125 38.183594 31.289062 38.222656 31.335938 C 38.273438 31.386719 38.375 31.363281 38.382812 31.28125 C 38.398438 31.214844 38.320312 31.164062 38.265625 31.1875 Z M 40.203125 31.183594 C 40.132812 31.203125 40.128906 31.320312 40.191406 31.351562 C 40.242188 31.386719 40.316406 31.347656 40.324219 31.285156 C 40.335938 31.214844 40.261719 31.15625 40.203125 31.183594 Z M 39.40625 31.375 C 39.539062 31.511719 39.671875 31.648438 39.808594 31.78125 C 39.890625 31.792969 39.972656 31.789062 40.054688 31.785156 C 40.054688 31.777344 40.058594 31.761719 40.058594 31.753906 C 39.988281 31.753906 39.914062 31.757812 39.839844 31.753906 C 39.824219 31.757812 39.8125 31.746094 39.804688 31.738281 C 39.675781 31.609375 39.550781 31.484375 39.425781 31.355469 C 39.417969 31.359375 39.414062 31.367188 39.40625 31.375 Z M 38.421875 31.820312 C 38.425781 31.925781 38.417969 32.035156 38.425781 32.140625 C 38.515625 32.230469 38.609375 32.308594 38.695312 32.40625 C 38.703125 32.445312 38.695312 32.484375 38.699219 32.523438 C 38.671875 32.535156 38.640625 32.554688 38.636719 32.585938 C 38.613281 32.65625 38.691406 32.730469 38.753906 32.699219 C 38.804688 32.683594 38.824219 32.613281 38.796875 32.566406 C 38.78125 32.542969 38.753906 32.53125 38.726562 32.523438 C 38.722656 32.46875 38.742188 32.398438 38.695312 32.359375 C 38.617188 32.285156 38.539062 32.207031 38.460938 32.128906 C 38.449219 32.035156 38.457031 31.941406 38.453125 31.847656 C 38.625 31.847656 38.796875 31.847656 38.964844 31.84375 C 39.027344 31.90625 39.09375 31.964844 39.152344 32.03125 C 39.164062 32.039062 39.175781 32.054688 39.191406 32.058594 C 39.242188 32.0625 39.296875 32.058594 39.351562 32.058594 C 39.394531 32.097656 39.429688 32.144531 39.472656 32.183594 C 39.457031 32.21875 39.453125 32.265625 39.484375 32.296875 C 39.527344 32.351562 39.628906 32.320312 39.636719 32.246094 C 39.648438 32.171875 39.550781 32.113281 39.492188 32.164062 C 39.449219 32.121094 39.414062 32.074219 39.371094 32.035156 C 39.3125 32.019531 39.25 32.035156 39.195312 32.023438 C 39.128906 31.964844 39.066406 31.898438 39.003906 31.839844 C 38.992188 31.828125 38.984375 31.8125 38.964844 31.8125 C 38.785156 31.816406 38.601562 31.8125 38.421875 31.820312 Z M 38.523438 31.929688 C 38.519531 31.984375 38.519531 32.039062 38.527344 32.09375 C 38.605469 32.171875 38.683594 32.246094 38.757812 32.328125 C 38.78125 32.34375 38.765625 32.378906 38.777344 32.402344 C 38.804688 32.453125 38.886719 32.457031 38.917969 32.410156 C 38.957031 32.367188 38.941406 32.277344 38.882812 32.261719 C 38.839844 32.246094 38.800781 32.273438 38.777344 32.304688 C 38.703125 32.230469 38.632812 32.152344 38.554688 32.082031 C 38.546875 32.039062 38.550781 31.996094 38.550781 31.957031 C 38.632812 31.960938 38.710938 31.960938 38.792969 31.960938 C 38.886719 32.066406 38.992188 32.164062 39.089844 32.265625 C 39.097656 32.292969 39.085938 32.324219 39.101562 32.347656 C 39.128906 32.398438 39.207031 32.40625 39.246094 32.359375 C 39.285156 32.316406 39.265625 32.238281 39.214844 32.21875 C 39.175781 32.195312 39.132812 32.214844 39.109375 32.246094 C 39.019531 32.148438 38.921875 32.058594 38.832031 31.957031 C 38.820312 31.945312 38.808594 31.925781 38.789062 31.929688 C 38.699219 31.929688 38.609375 31.929688 38.523438 31.929688 Z M 38.523438 31.929688 " fill-opacity="1" fill-rule="nonzero"/></g><g clip-path="url(#2433c25f85)"><path fill="#020202" d="M 38.21875 25.96875 C 38.265625 25.949219 38.316406 26.003906 38.292969 26.050781 C 38.269531 26.09375 38.207031 26.089844 38.183594 26.050781 C 38.167969 26.019531 38.191406 25.976562 38.21875 25.96875 Z M 38.21875 25.96875 " fill-opacity="1" fill-rule="nonzero"/></g><g clip-path="url(#a4fb301ef0)"><path fill="#020202" d="M 36.480469 26.140625 C 36.503906 26.078125 36.542969 26.011719 36.609375 25.996094 C 36.597656 26.042969 36.566406 26.082031 36.558594 26.128906 C 36.515625 26.253906 36.542969 26.386719 36.535156 26.519531 C 36.53125 26.601562 36.503906 26.683594 36.457031 26.75 C 36.558594 26.726562 36.671875 26.730469 36.761719 26.792969 C 36.800781 26.820312 36.84375 26.855469 36.855469 26.90625 C 36.800781 26.882812 36.753906 26.847656 36.695312 26.832031 C 36.558594 26.796875 36.414062 26.847656 36.304688 26.933594 C 36.125 27.066406 35.996094 27.269531 35.941406 27.496094 C 35.914062 27.597656 35.925781 27.707031 35.957031 27.808594 C 36.074219 27.804688 36.199219 27.816406 36.308594 27.878906 C 36.402344 27.925781 36.472656 28.023438 36.492188 28.132812 C 36.496094 28.195312 36.496094 28.265625 36.460938 28.316406 C 36.414062 28.394531 36.335938 28.460938 36.246094 28.460938 C 36.28125 28.410156 36.328125 28.378906 36.359375 28.324219 C 36.417969 28.230469 36.394531 28.09375 36.3125 28.019531 C 36.230469 27.941406 36.117188 27.921875 36.007812 27.921875 C 35.816406 27.925781 35.632812 28 35.460938 28.089844 C 35.410156 28.117188 35.359375 28.148438 35.308594 28.171875 C 35.332031 28.097656 35.398438 28.054688 35.449219 28 C 35.304688 27.988281 35.144531 28.019531 35.007812 27.941406 C 35.027344 27.914062 35.066406 27.929688 35.09375 27.925781 C 35.246094 27.90625 35.40625 27.886719 35.558594 27.917969 C 35.582031 27.917969 35.601562 27.902344 35.621094 27.898438 C 35.695312 27.867188 35.773438 27.84375 35.847656 27.820312 C 35.808594 27.691406 35.808594 27.550781 35.847656 27.421875 C 35.734375 27.378906 35.609375 27.363281 35.496094 27.40625 C 35.457031 27.417969 35.425781 27.445312 35.390625 27.460938 C 35.410156 27.378906 35.488281 27.332031 35.558594 27.308594 C 35.664062 27.269531 35.773438 27.292969 35.878906 27.328125 C 35.949219 27.171875 36.035156 27.023438 36.160156 26.910156 C 36.222656 26.847656 36.300781 26.808594 36.347656 26.734375 C 36.394531 26.667969 36.433594 26.597656 36.4375 26.515625 C 36.449219 26.390625 36.4375 26.261719 36.480469 26.140625 Z M 36.480469 26.140625 " fill-opacity="1" fill-rule="nonzero"/></g><path fill="#020202" d="M 37.945312 26.082031 C 37.984375 26.058594 38.039062 26.097656 38.03125 26.144531 C 38.019531 26.191406 37.953125 26.207031 37.925781 26.171875 C 37.898438 26.144531 37.914062 26.097656 37.945312 26.082031 Z M 37.945312 26.082031 " fill-opacity="1" fill-rule="nonzero"/><path fill="#020202" d="M 38.429688 26.101562 C 38.46875 26.078125 38.527344 26.121094 38.511719 26.167969 C 38.503906 26.210938 38.441406 26.222656 38.414062 26.195312 C 38.386719 26.167969 38.398438 26.117188 38.429688 26.101562 Z M 38.429688 26.101562 " fill-opacity="1" fill-rule="nonzero"/><path fill="#020202" d="M 37.667969 26.175781 C 37.714844 26.160156 37.757812 26.222656 37.730469 26.265625 C 37.710938 26.296875 37.660156 26.304688 37.632812 26.269531 C 37.609375 26.238281 37.632812 26.183594 37.667969 26.175781 Z M 37.667969 26.175781 " fill-opacity="1" fill-rule="nonzero"/><path fill="#020202" d="M 38.871094 26.359375 C 38.90625 26.339844 38.953125 26.371094 38.953125 26.414062 C 38.957031 26.46875 38.882812 26.488281 38.851562 26.449219 C 38.824219 26.425781 38.839844 26.375 38.871094 26.359375 Z M 38.871094 26.359375 " fill-opacity="1" fill-rule="nonzero"/><path fill="#020202" d="M 35.683594 26.867188 C 35.636719 26.734375 35.636719 26.570312 35.714844 26.453125 C 35.742188 26.46875 35.730469 26.503906 35.730469 26.53125 C 35.722656 26.683594 35.75 26.835938 35.816406 26.96875 C 35.835938 27.007812 35.867188 27.039062 35.882812 27.082031 C 35.785156 27.054688 35.71875 26.957031 35.683594 26.867188 Z M 35.683594 26.867188 " fill-opacity="1" fill-rule="nonzero"/><path fill="#020202" d="M 38.472656 26.476562 C 38.515625 26.449219 38.570312 26.492188 38.558594 26.542969 C 38.546875 26.585938 38.484375 26.605469 38.457031 26.566406 C 38.429688 26.539062 38.441406 26.488281 38.472656 26.476562 Z M 38.472656 26.476562 " fill-opacity="1" fill-rule="nonzero"/><path fill="#020202" d="M 39.144531 26.472656 C 39.183594 26.449219 39.246094 26.480469 39.238281 26.527344 C 39.234375 26.574219 39.179688 26.59375 39.148438 26.574219 C 39.105469 26.554688 39.109375 26.492188 39.144531 26.472656 Z M 39.144531 26.472656 " fill-opacity="1" fill-rule="nonzero"/><path fill="#020202" d="M 38.144531 26.582031 C 38.179688 26.554688 38.226562 26.59375 38.222656 26.636719 C 38.222656 26.691406 38.136719 26.710938 38.113281 26.664062 C 38.097656 26.632812 38.113281 26.59375 38.144531 26.582031 Z M 38.144531 26.582031 " fill-opacity="1" fill-rule="nonzero"/><path fill="#020202" d="M 39.332031 26.914062 C 39.371094 26.894531 39.421875 26.933594 39.414062 26.980469 C 39.402344 27.03125 39.335938 27.042969 39.308594 27.003906 C 39.289062 26.976562 39.300781 26.929688 39.332031 26.914062 Z M 39.332031 26.914062 " fill-opacity="1" fill-rule="nonzero"/><path fill="#020202" d="M 39.144531 27.140625 C 39.179688 27.128906 39.222656 27.164062 39.21875 27.203125 C 39.214844 27.246094 39.152344 27.269531 39.121094 27.234375 C 39.085938 27.210938 39.109375 27.148438 39.144531 27.140625 Z M 39.144531 27.140625 " fill-opacity="1" fill-rule="nonzero"/><path fill="#020202" d="M 39.707031 27.214844 C 39.738281 27.199219 39.78125 27.21875 39.789062 27.253906 C 39.800781 27.304688 39.734375 27.351562 39.699219 27.316406 C 39.660156 27.292969 39.671875 27.234375 39.707031 27.214844 Z M 39.707031 27.214844 " fill-opacity="1" fill-rule="nonzero"/><path fill="#020202" d="M 36.210938 27.296875 C 36.363281 27.308594 36.503906 27.390625 36.613281 27.496094 C 36.703125 27.585938 36.773438 27.695312 36.824219 27.8125 C 36.839844 27.855469 36.859375 27.902344 36.863281 27.953125 C 36.828125 27.941406 36.816406 27.902344 36.796875 27.875 C 36.707031 27.726562 36.605469 27.589844 36.476562 27.480469 C 36.40625 27.421875 36.332031 27.375 36.253906 27.332031 C 36.238281 27.324219 36.222656 27.3125 36.210938 27.296875 Z M 36.210938 27.296875 " fill-opacity="1" fill-rule="nonzero"/><path fill="#020202" d="M 39.839844 27.488281 C 39.886719 27.46875 39.933594 27.527344 39.90625 27.570312 C 39.886719 27.617188 39.8125 27.601562 39.804688 27.550781 C 39.800781 27.523438 39.816406 27.496094 39.839844 27.488281 Z M 39.839844 27.488281 " fill-opacity="1" fill-rule="nonzero"/><path fill="#020202" d="M 37.714844 27.683594 C 37.757812 27.652344 37.820312 27.707031 37.804688 27.757812 C 37.789062 27.792969 37.738281 27.804688 37.710938 27.78125 C 37.679688 27.761719 37.679688 27.703125 37.714844 27.683594 Z M 37.714844 27.683594 " fill-opacity="1" fill-rule="nonzero"/><path fill="#020202" d="M 39.863281 27.867188 C 39.898438 27.84375 39.949219 27.878906 39.945312 27.921875 C 39.945312 27.976562 39.875 28 39.847656 27.960938 C 39.820312 27.933594 39.832031 27.882812 39.863281 27.867188 Z M 39.863281 27.867188 " fill-opacity="1" fill-rule="nonzero"/><g clip-path="url(#9618cba65d)"><path fill="#020202" d="M 40.160156 28.066406 C 40.199219 28.046875 40.246094 28.089844 40.242188 28.132812 C 40.238281 28.171875 40.183594 28.199219 40.152344 28.171875 C 40.121094 28.148438 40.121094 28.085938 40.160156 28.066406 Z M 40.160156 28.066406 " fill-opacity="1" fill-rule="nonzero"/></g><path fill="#020202" d="M 39.167969 28.371094 C 39.207031 28.34375 39.265625 28.386719 39.253906 28.433594 C 39.242188 28.484375 39.175781 28.484375 39.148438 28.453125 C 39.128906 28.425781 39.140625 28.386719 39.167969 28.371094 Z M 39.167969 28.371094 " fill-opacity="1" fill-rule="nonzero"/><path fill="#020202" d="M 35.550781 28.476562 C 35.585938 28.4375 35.625 28.390625 35.679688 28.382812 C 35.660156 28.429688 35.628906 28.464844 35.601562 28.507812 C 35.5 28.660156 35.433594 28.839844 35.421875 29.027344 C 35.417969 29.136719 35.441406 29.257812 35.519531 29.335938 C 35.589844 29.410156 35.695312 29.410156 35.785156 29.386719 C 35.855469 29.371094 35.914062 29.328125 35.984375 29.308594 C 35.96875 29.347656 35.9375 29.371094 35.90625 29.394531 C 35.859375 29.4375 35.804688 29.472656 35.746094 29.492188 C 35.714844 29.617188 35.703125 29.753906 35.746094 29.878906 C 35.808594 30.074219 35.957031 30.230469 36.136719 30.3125 C 36.371094 30.421875 36.628906 30.445312 36.882812 30.492188 C 36.894531 30.492188 36.910156 30.496094 36.914062 30.511719 C 36.664062 30.550781 36.40625 30.523438 36.164062 30.445312 C 36.007812 30.394531 35.867188 30.292969 35.761719 30.160156 C 35.664062 30.027344 35.601562 29.859375 35.605469 29.6875 C 35.605469 29.625 35.621094 29.5625 35.632812 29.5 C 35.542969 29.488281 35.457031 29.4375 35.40625 29.359375 C 35.328125 29.242188 35.3125 29.089844 35.332031 28.953125 C 35.363281 28.777344 35.4375 28.609375 35.550781 28.476562 Z M 35.550781 28.476562 " fill-opacity="1" fill-rule="nonzero"/><path fill="#020202" d="M 35.949219 28.46875 C 35.941406 28.4375 35.925781 28.40625 35.941406 28.378906 C 35.980469 28.4375 36.015625 28.5 36.066406 28.554688 C 36.152344 28.65625 36.261719 28.734375 36.371094 28.800781 C 36.402344 28.8125 36.4375 28.816406 36.472656 28.824219 C 36.585938 28.855469 36.699219 28.929688 36.761719 29.039062 C 36.820312 29.144531 36.835938 29.273438 36.816406 29.394531 C 36.785156 29.386719 36.789062 29.355469 36.785156 29.332031 C 36.761719 29.207031 36.710938 29.078125 36.609375 29.003906 C 36.46875 28.890625 36.277344 28.886719 36.109375 28.925781 C 36.003906 28.945312 35.90625 29 35.804688 29.046875 C 35.820312 29 35.859375 28.96875 35.894531 28.941406 C 35.988281 28.863281 36.109375 28.828125 36.222656 28.808594 C 36.097656 28.734375 35.996094 28.613281 35.949219 28.46875 Z M 35.949219 28.46875 " fill-opacity="1" fill-rule="nonzero"/><g clip-path="url(#d32f19aa01)"><path fill="#020202" d="M 40.195312 28.40625 C 40.238281 28.394531 40.28125 28.453125 40.253906 28.496094 C 40.238281 28.53125 40.191406 28.53125 40.167969 28.507812 C 40.132812 28.476562 40.15625 28.414062 40.195312 28.40625 Z M 40.195312 28.40625 " fill-opacity="1" fill-rule="nonzero"/></g><path fill="#020202" d="M 39.894531 28.589844 C 39.9375 28.578125 39.988281 28.640625 39.957031 28.679688 C 39.929688 28.714844 39.871094 28.710938 39.855469 28.664062 C 39.839844 28.632812 39.867188 28.601562 39.894531 28.589844 Z M 39.894531 28.589844 " fill-opacity="1" fill-rule="nonzero"/><g clip-path="url(#a55052468e)"><path fill="#020202" d="M 40.257812 28.671875 C 40.296875 28.648438 40.351562 28.691406 40.339844 28.738281 C 40.332031 28.777344 40.277344 28.796875 40.246094 28.769531 C 40.21875 28.742188 40.226562 28.6875 40.257812 28.671875 Z M 40.257812 28.671875 " fill-opacity="1" fill-rule="nonzero"/></g><path fill="#020202" d="M 38.386719 28.757812 C 38.425781 28.738281 38.476562 28.785156 38.457031 28.828125 C 38.449219 28.878906 38.382812 28.878906 38.359375 28.84375 C 38.339844 28.8125 38.351562 28.769531 38.386719 28.757812 Z M 38.386719 28.757812 " fill-opacity="1" fill-rule="nonzero"/><path fill="#020202" d="M 39.6875 28.824219 C 39.734375 28.804688 39.785156 28.882812 39.742188 28.917969 C 39.714844 28.953125 39.65625 28.941406 39.644531 28.898438 C 39.636719 28.867188 39.65625 28.835938 39.6875 28.824219 Z M 39.6875 28.824219 " fill-opacity="1" fill-rule="nonzero"/><g clip-path="url(#cdaf1b9e05)"><path fill="#020202" d="M 34.472656 28.921875 C 34.546875 28.972656 34.605469 29.042969 34.671875 29.097656 C 34.796875 28.996094 34.972656 28.980469 35.113281 29.042969 C 35.136719 29.054688 35.164062 29.066406 35.175781 29.09375 C 35.058594 29.070312 34.933594 29.074219 34.824219 29.125 C 34.722656 29.167969 34.65625 29.269531 34.632812 29.378906 C 34.613281 29.492188 34.621094 29.605469 34.652344 29.714844 C 34.664062 29.761719 34.683594 29.808594 34.6875 29.859375 C 34.648438 29.839844 34.632812 29.792969 34.609375 29.757812 C 34.523438 29.574219 34.507812 29.347656 34.609375 29.167969 C 34.546875 29.105469 34.488281 29.019531 34.472656 28.921875 Z M 34.472656 28.921875 " fill-opacity="1" fill-rule="nonzero"/></g><g clip-path="url(#5a6670787a)"><path fill="#020202" d="M 40.449219 28.941406 C 40.484375 28.925781 40.527344 28.964844 40.523438 29.003906 C 40.515625 29.050781 40.445312 29.070312 40.421875 29.03125 C 40.394531 29 40.414062 28.953125 40.449219 28.941406 Z M 40.449219 28.941406 " fill-opacity="1" fill-rule="nonzero"/></g><path fill="#020202" d="M 38.429688 29.058594 C 38.46875 29.03125 38.523438 29.0625 38.519531 29.109375 C 38.519531 29.164062 38.441406 29.1875 38.414062 29.144531 C 38.390625 29.117188 38.398438 29.074219 38.429688 29.058594 Z M 38.429688 29.058594 " fill-opacity="1" fill-rule="nonzero"/><path fill="#020202" d="M 39.75 29.132812 C 39.796875 29.113281 39.84375 29.175781 39.820312 29.222656 C 39.800781 29.257812 39.746094 29.261719 39.726562 29.230469 C 39.699219 29.195312 39.71875 29.148438 39.75 29.132812 Z M 39.75 29.132812 " fill-opacity="1" fill-rule="nonzero"/><g clip-path="url(#de799a8158)"><path fill="#020202" d="M 40.46875 29.265625 C 40.511719 29.253906 40.558594 29.296875 40.542969 29.339844 C 40.527344 29.382812 40.464844 29.390625 40.441406 29.355469 C 40.410156 29.328125 40.433594 29.273438 40.46875 29.265625 Z M 40.46875 29.265625 " fill-opacity="1" fill-rule="nonzero"/></g><g clip-path="url(#73efe8dcd3)"><path fill="#020202" d="M 34.996094 29.433594 C 35.023438 29.441406 35.035156 29.472656 35.046875 29.496094 C 35.097656 29.613281 35.117188 29.738281 35.117188 29.863281 C 35.117188 29.933594 35.117188 30.003906 35.128906 30.074219 C 35.167969 30.3125 35.304688 30.535156 35.507812 30.648438 C 35.660156 30.726562 35.820312 30.785156 35.964844 30.878906 C 35.976562 30.882812 35.984375 30.894531 35.988281 30.910156 C 35.9375 30.90625 35.882812 30.890625 35.832031 30.875 C 35.71875 30.84375 35.609375 30.808594 35.503906 30.761719 C 35.421875 30.839844 35.347656 30.941406 35.335938 31.0625 C 35.320312 31.222656 35.390625 31.378906 35.476562 31.507812 C 35.609375 31.695312 35.816406 31.835938 36.042969 31.855469 C 36.144531 31.859375 36.253906 31.847656 36.339844 31.78125 C 36.402344 31.738281 36.445312 31.671875 36.476562 31.601562 C 36.480469 31.601562 36.484375 31.597656 36.488281 31.59375 C 36.503906 31.65625 36.496094 31.722656 36.464844 31.777344 C 36.433594 31.835938 36.382812 31.878906 36.324219 31.914062 C 36.355469 32.015625 36.414062 32.109375 36.503906 32.167969 C 36.617188 32.25 36.757812 32.28125 36.894531 32.304688 C 36.859375 32.339844 36.8125 32.332031 36.769531 32.335938 C 36.542969 32.335938 36.304688 32.1875 36.242188 31.949219 C 36.042969 32.003906 35.828125 31.957031 35.65625 31.847656 C 35.609375 31.957031 35.5 32.019531 35.386719 32.03125 C 35.394531 32.074219 35.402344 32.117188 35.421875 32.15625 C 35.441406 32.195312 35.46875 32.222656 35.492188 32.261719 C 35.378906 32.253906 35.304688 32.136719 35.292969 32.023438 C 35.203125 32 35.117188 31.949219 35.078125 31.859375 C 35.128906 31.875 35.171875 31.90625 35.222656 31.921875 C 35.320312 31.953125 35.429688 31.953125 35.515625 31.894531 C 35.550781 31.871094 35.570312 31.839844 35.589844 31.804688 C 35.433594 31.671875 35.300781 31.5 35.242188 31.296875 C 35.207031 31.179688 35.199219 31.046875 35.242188 30.929688 C 35.273438 30.839844 35.332031 30.765625 35.394531 30.703125 C 35.21875 30.589844 35.097656 30.386719 35.0625 30.175781 C 35.027344 30.007812 35.054688 29.835938 35.035156 29.667969 C 35.027344 29.585938 35 29.511719 34.996094 29.433594 Z M 34.996094 29.433594 " fill-opacity="1" fill-rule="nonzero"/></g><g clip-path="url(#52b86cc3f2)"><path fill="#020202" d="M 40.460938 29.699219 C 40.503906 29.679688 40.550781 29.730469 40.535156 29.777344 C 40.515625 29.824219 40.441406 29.820312 40.425781 29.769531 C 40.414062 29.742188 40.433594 29.707031 40.460938 29.699219 Z M 40.460938 29.699219 " fill-opacity="1" fill-rule="nonzero"/></g><g clip-path="url(#b9d6821e47)"><path fill="#020202" d="M 40.359375 29.976562 C 40.402344 29.964844 40.441406 30.015625 40.425781 30.058594 C 40.410156 30.09375 40.355469 30.109375 40.328125 30.078125 C 40.300781 30.046875 40.316406 29.984375 40.359375 29.976562 Z M 40.359375 29.976562 " fill-opacity="1" fill-rule="nonzero"/></g><g clip-path="url(#8d2fdfcbbe)"><path fill="#020202" d="M 40.457031 30.21875 C 40.496094 30.199219 40.542969 30.230469 40.542969 30.273438 C 40.546875 30.324219 40.476562 30.355469 40.445312 30.316406 C 40.414062 30.289062 40.425781 30.238281 40.457031 30.21875 Z M 40.457031 30.21875 " fill-opacity="1" fill-rule="nonzero"/></g><path fill="#020202" d="M 36.292969 30.519531 C 36.328125 30.527344 36.347656 30.566406 36.367188 30.59375 C 36.503906 30.78125 36.492188 31.078125 36.324219 31.246094 C 36.214844 31.355469 36.0625 31.414062 35.910156 31.410156 C 35.875 31.410156 35.839844 31.414062 35.808594 31.390625 C 35.953125 31.347656 36.117188 31.320312 36.238281 31.210938 C 36.347656 31.117188 36.390625 30.957031 36.371094 30.8125 C 36.363281 30.710938 36.320312 30.617188 36.292969 30.519531 Z M 36.292969 30.519531 " fill-opacity="1" fill-rule="nonzero"/><g clip-path="url(#7d80e91a00)"><path fill="#020202" d="M 40.378906 30.542969 C 40.410156 30.53125 40.449219 30.550781 40.457031 30.585938 C 40.46875 30.632812 40.410156 30.679688 40.371094 30.648438 C 40.332031 30.628906 40.335938 30.558594 40.378906 30.542969 Z M 40.378906 30.542969 " fill-opacity="1" fill-rule="nonzero"/></g><path fill="#020202" d="M 38.152344 30.695312 C 38.191406 30.671875 38.242188 30.714844 38.230469 30.757812 C 38.226562 30.796875 38.179688 30.820312 38.144531 30.796875 C 38.105469 30.777344 38.113281 30.710938 38.152344 30.695312 Z M 38.152344 30.695312 " fill-opacity="1" fill-rule="nonzero"/><path fill="#020202" d="M 39.875 30.824219 C 39.921875 30.800781 39.964844 30.871094 39.9375 30.914062 C 39.910156 30.953125 39.84375 30.933594 39.835938 30.886719 C 39.828125 30.855469 39.851562 30.832031 39.875 30.824219 Z M 39.875 30.824219 " fill-opacity="1" fill-rule="nonzero"/><g clip-path="url(#5653b18a90)"><path fill="#020202" d="M 40.171875 30.835938 C 40.210938 30.820312 40.253906 30.855469 40.246094 30.898438 C 40.238281 30.949219 40.160156 30.960938 40.140625 30.914062 C 40.125 30.886719 40.140625 30.847656 40.171875 30.835938 Z M 40.171875 30.835938 " fill-opacity="1" fill-rule="nonzero"/></g><path fill="#020202" d="M 38.363281 30.863281 C 38.398438 30.84375 38.457031 30.867188 38.453125 30.914062 C 38.449219 30.96875 38.378906 30.988281 38.34375 30.949219 C 38.316406 30.921875 38.332031 30.871094 38.363281 30.863281 Z M 38.363281 30.863281 " fill-opacity="1" fill-rule="nonzero"/><path fill="#020202" d="M 38.660156 30.914062 C 38.699219 30.886719 38.753906 30.921875 38.746094 30.96875 C 38.738281 31.019531 38.671875 31.039062 38.640625 30.996094 C 38.617188 30.972656 38.632812 30.929688 38.660156 30.914062 Z M 38.660156 30.914062 " fill-opacity="1" fill-rule="nonzero"/><path fill="#020202" d="M 37.679688 31.21875 C 37.71875 31.203125 37.769531 31.238281 37.761719 31.28125 C 37.757812 31.328125 37.695312 31.347656 37.664062 31.316406 C 37.632812 31.292969 37.640625 31.234375 37.679688 31.21875 Z M 37.679688 31.21875 " fill-opacity="1" fill-rule="nonzero"/><path fill="#020202" d="M 38.273438 31.21875 C 38.308594 31.207031 38.355469 31.230469 38.351562 31.273438 C 38.351562 31.324219 38.285156 31.347656 38.25 31.316406 C 38.21875 31.289062 38.234375 31.226562 38.273438 31.21875 Z M 38.273438 31.21875 " fill-opacity="1" fill-rule="nonzero"/><g clip-path="url(#3374f270a5)"><path fill="#020202" d="M 40.207031 31.21875 C 40.246094 31.183594 40.3125 31.242188 40.285156 31.292969 C 40.269531 31.339844 40.199219 31.335938 40.179688 31.289062 C 40.167969 31.265625 40.183594 31.234375 40.207031 31.21875 Z M 40.207031 31.21875 " fill-opacity="1" fill-rule="nonzero"/></g><path fill="#020202" d="M 38.617188 31.289062 C 38.648438 31.277344 38.699219 31.300781 38.695312 31.34375 C 38.695312 31.390625 38.636719 31.421875 38.601562 31.390625 C 38.5625 31.363281 38.574219 31.296875 38.617188 31.289062 Z M 38.617188 31.289062 " fill-opacity="1" fill-rule="nonzero"/><path fill="#020202" d="M 39.15625 31.285156 C 39.191406 31.265625 39.242188 31.296875 39.234375 31.339844 C 39.234375 31.382812 39.1875 31.40625 39.15625 31.386719 C 39.113281 31.371094 39.113281 31.300781 39.15625 31.285156 Z M 39.15625 31.285156 " fill-opacity="1" fill-rule="nonzero"/><g clip-path="url(#f70c3c884c)"><path fill="#020202" d="M 39.917969 31.511719 C 39.953125 31.484375 40.011719 31.519531 40.007812 31.5625 C 40.007812 31.613281 39.9375 31.644531 39.90625 31.605469 C 39.878906 31.578125 39.890625 31.53125 39.917969 31.511719 Z M 39.917969 31.511719 " fill-opacity="1" fill-rule="nonzero"/></g><path fill="#020202" d="M 38.226562 31.625 C 38.644531 31.625 39.0625 31.613281 39.484375 31.617188 C 39.511719 31.625 39.53125 31.664062 39.554688 31.683594 C 39.621094 31.757812 39.699219 31.820312 39.757812 31.898438 C 39.730469 31.910156 39.714844 31.933594 39.703125 31.957031 C 39.632812 31.953125 39.566406 31.957031 39.5 31.953125 C 39.40625 31.878906 39.332031 31.777344 39.238281 31.703125 C 38.9375 31.703125 38.632812 31.703125 38.328125 31.707031 C 38.328125 31.796875 38.328125 31.890625 38.328125 31.980469 C 38.296875 32.015625 38.253906 32.039062 38.222656 32.082031 C 38.21875 32.152344 38.21875 32.226562 38.226562 32.300781 C 38.289062 32.359375 38.351562 32.421875 38.414062 32.484375 C 38.464844 32.519531 38.4375 32.589844 38.441406 32.644531 C 38.40625 32.625 38.382812 32.589844 38.351562 32.558594 C 38.289062 32.488281 38.21875 32.425781 38.148438 32.355469 C 38.140625 32.34375 38.128906 32.335938 38.128906 32.320312 C 38.128906 32.199219 38.132812 32.078125 38.132812 31.957031 C 38.132812 31.9375 38.128906 31.921875 38.136719 31.90625 C 38.164062 31.871094 38.203125 31.851562 38.226562 31.816406 C 38.234375 31.753906 38.226562 31.6875 38.226562 31.625 Z M 38.226562 31.625 " fill-opacity="1" fill-rule="nonzero"/><path fill="#020202" d="M 39.753906 31.9375 C 39.785156 31.917969 39.839844 31.9375 39.84375 31.980469 C 39.851562 32.019531 39.816406 32.054688 39.785156 32.046875 C 39.734375 32.046875 39.710938 31.964844 39.753906 31.9375 Z M 39.753906 31.9375 " fill-opacity="1" fill-rule="nonzero"/><path fill="#020202" d="M 39.53125 32.183594 C 39.570312 32.164062 39.609375 32.203125 39.601562 32.246094 C 39.597656 32.296875 39.523438 32.308594 39.5 32.265625 C 39.480469 32.234375 39.5 32.191406 39.53125 32.183594 Z M 39.53125 32.183594 " fill-opacity="1" fill-rule="nonzero"/><path fill="#020202" d="M 39.15625 32.25 C 39.191406 32.226562 39.242188 32.261719 39.234375 32.304688 C 39.238281 32.367188 39.148438 32.375 39.128906 32.324219 C 39.113281 32.296875 39.132812 32.265625 39.15625 32.25 Z M 39.15625 32.25 " fill-opacity="1" fill-rule="nonzero"/><path fill="#020202" d="M 38.828125 32.300781 C 38.863281 32.269531 38.921875 32.316406 38.910156 32.363281 C 38.902344 32.402344 38.851562 32.421875 38.824219 32.402344 C 38.789062 32.378906 38.796875 32.320312 38.828125 32.300781 Z M 38.828125 32.300781 " fill-opacity="1" fill-rule="nonzero"/><path fill="#020202" d="M 37.820312 32.53125 C 37.863281 32.515625 37.90625 32.5625 37.894531 32.605469 C 37.878906 32.652344 37.808594 32.664062 37.785156 32.617188 C 37.765625 32.585938 37.789062 32.542969 37.820312 32.53125 Z M 37.820312 32.53125 " fill-opacity="1" fill-rule="nonzero"/><path fill="#020202" d="M 38.695312 32.566406 C 38.730469 32.546875 38.78125 32.578125 38.777344 32.621094 C 38.773438 32.664062 38.71875 32.6875 38.6875 32.660156 C 38.652344 32.636719 38.65625 32.578125 38.695312 32.566406 Z M 38.695312 32.566406 " fill-opacity="1" fill-rule="nonzero"/><path fill="#020202" d="M 38.429688 32.679688 C 38.460938 32.660156 38.511719 32.691406 38.503906 32.734375 C 38.503906 32.78125 38.441406 32.804688 38.414062 32.773438 C 38.382812 32.746094 38.390625 32.691406 38.429688 32.679688 Z M 38.429688 32.679688 " fill-opacity="1" fill-rule="nonzero"/><path fill="#020202" d="M 38.078125 32.695312 C 38.105469 32.675781 38.144531 32.679688 38.164062 32.714844 C 38.1875 32.753906 38.140625 32.8125 38.097656 32.796875 C 38.050781 32.789062 38.035156 32.71875 38.078125 32.695312 Z M 38.078125 32.695312 " fill-opacity="1" fill-rule="nonzero"/><g transform="matrix(1, 0, 0, 1, 6, 27)"><g clip-path="url(#c30e899ced)"><g fill="#7a2fcd" fill-opacity="1"><g transform="translate(0.465864, 15.669992)"><g><path d="M 5.375 0.140625 C 4.46875 0.140625 3.664062 -0.046875 2.96875 -0.421875 C 2.28125 -0.796875 1.742188 -1.359375 1.359375 -2.109375 C 0.972656 -2.867188 0.78125 -3.804688 0.78125 -4.921875 C 0.78125 -6.023438 0.972656 -6.953125 1.359375 -7.703125 C 1.742188 -8.460938 2.28125 -9.03125 2.96875 -9.40625 C 3.664062 -9.789062 4.46875 -9.984375 5.375 -9.984375 C 6.320312 -9.984375 7.125 -9.796875 7.78125 -9.421875 C 8.445312 -9.054688 8.921875 -8.492188 9.203125 -7.734375 L 7.78125 -6.859375 L 7.625 -6.875 C 7.40625 -7.382812 7.113281 -7.75 6.75 -7.96875 C 6.394531 -8.1875 5.9375 -8.296875 5.375 -8.296875 C 4.5625 -8.296875 3.925781 -8.023438 3.46875 -7.484375 C 3.007812 -6.953125 2.78125 -6.097656 2.78125 -4.921875 C 2.78125 -3.742188 3.007812 -2.882812 3.46875 -2.34375 C 3.925781 -1.8125 4.5625 -1.546875 5.375 -1.546875 C 6.65625 -1.546875 7.4375 -2.164062 7.71875 -3.40625 L 7.890625 -3.40625 L 9.328125 -2.65625 C 9.054688 -1.726562 8.59375 -1.03125 7.9375 -0.5625 C 7.289062 -0.09375 6.4375 0.140625 5.375 0.140625 Z M 5.375 0.140625 "/></g></g></g><g fill="#7a2fcd" fill-opacity="1"><g transform="translate(10.118275, 15.669992)"><g><path d="M 4.3125 0.140625 C 3.582031 0.140625 2.941406 -0.00390625 2.390625 -0.296875 C 1.847656 -0.597656 1.425781 -1.035156 1.125 -1.609375 C 0.820312 -2.191406 0.671875 -2.890625 0.671875 -3.703125 C 0.671875 -4.523438 0.820312 -5.222656 1.125 -5.796875 C 1.425781 -6.378906 1.847656 -6.816406 2.390625 -7.109375 C 2.941406 -7.410156 3.582031 -7.5625 4.3125 -7.5625 C 5.039062 -7.5625 5.675781 -7.410156 6.21875 -7.109375 C 6.769531 -6.816406 7.195312 -6.378906 7.5 -5.796875 C 7.8125 -5.222656 7.96875 -4.523438 7.96875 -3.703125 C 7.96875 -2.890625 7.8125 -2.191406 7.5 -1.609375 C 7.195312 -1.035156 6.769531 -0.597656 6.21875 -0.296875 C 5.675781 -0.00390625 5.039062 0.140625 4.3125 0.140625 Z M 4.3125 -1.4375 C 5.46875 -1.4375 6.046875 -2.191406 6.046875 -3.703125 C 6.046875 -4.492188 5.894531 -5.070312 5.59375 -5.4375 C 5.300781 -5.800781 4.875 -5.984375 4.3125 -5.984375 C 3.15625 -5.984375 2.578125 -5.222656 2.578125 -3.703125 C 2.578125 -2.191406 3.15625 -1.4375 4.3125 -1.4375 Z M 4.3125 -1.4375 "/></g></g></g><g fill="#7a2fcd" fill-opacity="1"><g transform="translate(18.693708, 15.669992)"><g><path d="M 3.84375 3.15625 C 2.625 3.15625 1.722656 2.972656 1.140625 2.609375 C 0.554688 2.253906 0.265625 1.753906 0.265625 1.109375 C 0.265625 0.722656 0.390625 0.40625 0.640625 0.15625 C 0.890625 -0.09375 1.242188 -0.257812 1.703125 -0.34375 L 1.703125 -0.484375 C 1.453125 -0.640625 1.269531 -0.8125 1.15625 -1 C 1.050781 -1.1875 1 -1.40625 1 -1.65625 C 1 -2.25 1.390625 -2.648438 2.171875 -2.859375 L 2.171875 -3 C 1.765625 -3.226562 1.460938 -3.507812 1.265625 -3.84375 C 1.066406 -4.1875 0.96875 -4.597656 0.96875 -5.078125 C 0.96875 -5.566406 1.078125 -6 1.296875 -6.375 C 1.523438 -6.75 1.859375 -7.039062 2.296875 -7.25 C 2.734375 -7.457031 3.257812 -7.5625 3.875 -7.5625 C 4.488281 -7.5625 4.976562 -7.453125 5.34375 -7.234375 C 5.570312 -7.566406 5.707031 -7.953125 5.75 -8.390625 L 5.890625 -8.484375 L 7.234375 -8.15625 C 7.191406 -7.800781 7.085938 -7.5 6.921875 -7.25 C 6.753906 -7.007812 6.492188 -6.796875 6.140625 -6.609375 L 6.140625 -6.46875 C 6.554688 -6.101562 6.765625 -5.585938 6.765625 -4.921875 C 6.765625 -4.460938 6.648438 -4.050781 6.421875 -3.6875 C 6.191406 -3.332031 5.859375 -3.046875 5.421875 -2.828125 C 4.984375 -2.617188 4.46875 -2.515625 3.875 -2.515625 L 3.59375 -2.515625 C 3.40625 -2.523438 3.273438 -2.53125 3.203125 -2.53125 C 3.035156 -2.53125 2.90625 -2.484375 2.8125 -2.390625 C 2.71875 -2.304688 2.671875 -2.191406 2.671875 -2.046875 C 2.671875 -1.890625 2.734375 -1.765625 2.859375 -1.671875 C 2.984375 -1.585938 3.164062 -1.539062 3.40625 -1.53125 L 5.0625 -1.46875 C 6.707031 -1.425781 7.53125 -0.722656 7.53125 0.640625 C 7.53125 1.117188 7.40625 1.546875 7.15625 1.921875 C 6.914062 2.296875 6.519531 2.59375 5.96875 2.8125 C 5.425781 3.039062 4.71875 3.15625 3.84375 3.15625 Z M 3.875 -3.828125 C 4.226562 -3.828125 4.503906 -3.929688 4.703125 -4.140625 C 4.910156 -4.347656 5.015625 -4.648438 5.015625 -5.046875 C 5.015625 -5.429688 4.910156 -5.726562 4.703125 -5.9375 C 4.503906 -6.144531 4.226562 -6.25 3.875 -6.25 C 3.507812 -6.25 3.226562 -6.144531 3.03125 -5.9375 C 2.832031 -5.726562 2.734375 -5.429688 2.734375 -5.046875 C 2.734375 -4.648438 2.832031 -4.347656 3.03125 -4.140625 C 3.226562 -3.929688 3.507812 -3.828125 3.875 -3.828125 Z M 3.84375 1.796875 C 4.476562 1.796875 4.941406 1.707031 5.234375 1.53125 C 5.523438 1.351562 5.671875 1.117188 5.671875 0.828125 C 5.671875 0.597656 5.597656 0.425781 5.453125 0.3125 C 5.304688 0.195312 5.070312 0.140625 4.75 0.140625 L 3.28125 0.0625 C 3.226562 0.0625 3.179688 0.0546875 3.140625 0.046875 C 3.097656 0.046875 3.054688 0.046875 3.015625 0.046875 C 2.703125 0.046875 2.460938 0.113281 2.296875 0.25 C 2.128906 0.382812 2.046875 0.570312 2.046875 0.8125 C 2.046875 1.125 2.195312 1.363281 2.5 1.53125 C 2.800781 1.707031 3.25 1.796875 3.84375 1.796875 Z M 3.84375 1.796875 "/></g></g></g><g fill="#7a2fcd" fill-opacity="1"><g transform="translate(26.414292, 15.669992)"><g><path d="M 1.0625 0 L 1.0625 -7.421875 L 2.859375 -7.421875 L 2.859375 -6.328125 L 3 -6.296875 C 3.457031 -7.140625 4.207031 -7.5625 5.25 -7.5625 C 6.101562 -7.5625 6.726562 -7.328125 7.125 -6.859375 C 7.53125 -6.390625 7.734375 -5.710938 7.734375 -4.828125 L 7.734375 0 L 5.875 0 L 5.875 -4.59375 C 5.875 -5.09375 5.773438 -5.445312 5.578125 -5.65625 C 5.378906 -5.875 5.0625 -5.984375 4.625 -5.984375 C 4.09375 -5.984375 3.675781 -5.8125 3.375 -5.46875 C 3.082031 -5.125 2.9375 -4.582031 2.9375 -3.84375 L 2.9375 0 Z M 1.0625 0 "/></g></g></g><g fill="#7a2fcd" fill-opacity="1"><g transform="translate(35.110885, 15.669992)"><g><path d="M 2 -8.3125 C 1.664062 -8.3125 1.390625 -8.410156 1.171875 -8.609375 C 0.960938 -8.816406 0.859375 -9.082031 0.859375 -9.40625 C 0.859375 -9.726562 0.960938 -9.988281 1.171875 -10.1875 C 1.390625 -10.394531 1.664062 -10.5 2 -10.5 C 2.21875 -10.5 2.414062 -10.453125 2.59375 -10.359375 C 2.769531 -10.265625 2.90625 -10.132812 3 -9.96875 C 3.101562 -9.800781 3.15625 -9.613281 3.15625 -9.40625 C 3.15625 -9.195312 3.101562 -9.007812 3 -8.84375 C 2.90625 -8.675781 2.769531 -8.546875 2.59375 -8.453125 C 2.414062 -8.359375 2.21875 -8.3125 2 -8.3125 Z M 1.0625 0 L 1.0625 -7.421875 L 2.9375 -7.421875 L 2.9375 0 Z M 1.0625 0 "/></g></g></g><g fill="#7a2fcd" fill-opacity="1"><g transform="translate(39.109164, 15.669992)"><g><path d="M 5.109375 0 L 2.890625 0 L 0.140625 -7.421875 L 2.09375 -7.421875 L 3.9375 -2.140625 L 4.09375 -2.140625 L 5.9375 -7.421875 L 7.84375 -7.421875 Z M 5.109375 0 "/></g></g></g><g fill="#7a2fcd" fill-opacity="1"><g transform="translate(47.09226, 15.669992)"><g><path d="M 3.390625 0.140625 C 2.554688 0.140625 1.941406 -0.0820312 1.546875 -0.53125 C 1.148438 -0.988281 0.953125 -1.644531 0.953125 -2.5 L 0.953125 -7.421875 L 2.8125 -7.421875 L 2.8125 -2.734375 C 2.8125 -2.285156 2.910156 -1.957031 3.109375 -1.75 C 3.304688 -1.539062 3.609375 -1.4375 4.015625 -1.4375 C 4.535156 -1.4375 4.9375 -1.601562 5.21875 -1.9375 C 5.507812 -2.28125 5.65625 -2.816406 5.65625 -3.546875 L 5.65625 -7.421875 L 7.515625 -7.421875 L 7.515625 0 L 5.71875 0 L 5.71875 -1.09375 L 5.578125 -1.125 C 5.347656 -0.695312 5.0625 -0.378906 4.71875 -0.171875 C 4.375 0.0351562 3.929688 0.140625 3.390625 0.140625 Z M 3.390625 0.140625 "/></g></g></g><g clip-path="url(#ed2c85bf13)"><g fill="#7a2fcd" fill-opacity="1"><g transform="translate(55.681155, 15.669992)"><g><path d="M 3.46875 0.140625 C 2.96875 0.140625 2.503906 0.0820312 2.078125 -0.03125 C 1.660156 -0.15625 1.300781 -0.320312 1 -0.53125 C 0.695312 -0.738281 0.476562 -0.976562 0.34375 -1.25 L 1.375 -2.359375 L 1.515625 -2.359375 C 1.765625 -2.023438 2.054688 -1.773438 2.390625 -1.609375 C 2.722656 -1.441406 3.085938 -1.359375 3.484375 -1.359375 C 3.847656 -1.359375 4.117188 -1.421875 4.296875 -1.546875 C 4.484375 -1.679688 4.578125 -1.875 4.578125 -2.125 C 4.578125 -2.3125 4.507812 -2.46875 4.375 -2.59375 C 4.25 -2.71875 4.035156 -2.816406 3.734375 -2.890625 L 2.765625 -3.125 C 2.023438 -3.300781 1.484375 -3.566406 1.140625 -3.921875 C 0.804688 -4.285156 0.640625 -4.75 0.640625 -5.3125 C 0.640625 -5.769531 0.753906 -6.171875 0.984375 -6.515625 C 1.222656 -6.859375 1.554688 -7.117188 1.984375 -7.296875 C 2.410156 -7.472656 2.910156 -7.5625 3.484375 -7.5625 C 4.148438 -7.5625 4.703125 -7.460938 5.140625 -7.265625 C 5.585938 -7.078125 5.929688 -6.820312 6.171875 -6.5 L 5.1875 -5.421875 L 5.046875 -5.421875 C 4.835938 -5.660156 4.601562 -5.832031 4.34375 -5.9375 C 4.09375 -6.039062 3.804688 -6.09375 3.484375 -6.09375 C 2.742188 -6.09375 2.375 -5.863281 2.375 -5.40625 C 2.375 -5.21875 2.441406 -5.0625 2.578125 -4.9375 C 2.722656 -4.8125 2.96875 -4.710938 3.3125 -4.640625 L 4.21875 -4.4375 C 4.976562 -4.28125 5.53125 -4.019531 5.875 -3.65625 C 6.226562 -3.300781 6.40625 -2.828125 6.40625 -2.234375 C 6.40625 -1.753906 6.285156 -1.332031 6.046875 -0.96875 C 5.816406 -0.613281 5.476562 -0.335938 5.03125 -0.140625 C 4.59375 0.046875 4.070312 0.140625 3.46875 0.140625 Z M 3.46875 0.140625 "/></g></g></g></g></g></g></svg>